M48
; DRILL file {KiCad 9.0.6} date 2026-06-29T13:27:22+0530
; FORMAT={-:-/ absolute / metric / decimal}
; #@! TF.CreationDate,2026-06-29T13:27:22+05:30
; #@! TF.GenerationSoftware,Kicad,Pcbnew,9.0.6
; #@! TF.FileFunction,Plated,1,2,PTH
FMAT,2
METRIC
; #@! TA.AperFunction,Plated,PTH,ComponentDrill
T1C0.200
; #@! TA.AperFunction,Plated,PTH,ViaDrill
T2C0.300
; #@! TA.AperFunction,Plated,PTH,ComponentDrill
T3C0.500
; #@! TA.AperFunction,Plated,PTH,ViaDrill
T4C0.600
; #@! TA.AperFunction,Plated,PTH,ComponentDrill
T5C0.750
; #@! TA.AperFunction,Plated,PTH,ComponentDrill
T6C0.800
; #@! TA.AperFunction,Plated,PTH,ComponentDrill
T7C1.000
; #@! TA.AperFunction,Plated,PTH,ComponentDrill
T8C1.100
; #@! TA.AperFunction,Plated,PTH,ComponentDrill
T9C1.300
; #@! TA.AperFunction,Plated,PTH,ComponentDrill
T10C1.520
; #@! TA.AperFunction,Plated,PTH,ComponentDrill
T11C1.600
; #@! TA.AperFunction,Plated,PTH,ComponentDrill
T12C2.700
%
G90
G05
T1
X139.637Y-114.287
X139.637Y-115.812
X140.4Y-113.525
X140.4Y-115.05
X140.4Y-116.575
X141.162Y-114.287
X141.162Y-115.812
X141.925Y-113.525
X141.925Y-115.05
X141.925Y-116.575
X142.688Y-114.287
X142.688Y-115.812
T2
X121.412Y-97.9
X128.188Y-107.675
X129.137Y-109.5
X135.088Y-120.475
X136.412Y-108.75
X136.713Y-110.275
X137.987Y-81.8
X142.112Y-82.275
X143.162Y-89.225
X144.338Y-81.75
X148.762Y-72.825
X151.838Y-80.275
X152.287Y-88.725
X158.537Y-113.85
T3
X122.794Y-87.507
X123.387Y-86.075
X123.387Y-88.939
X123.387Y-120.075
X123.981Y-118.643
X123.981Y-121.507
X124.819Y-85.482
X124.819Y-89.532
X125.412Y-118.05
X125.412Y-122.1
X126.251Y-86.075
X126.251Y-88.939
X126.844Y-87.507
X126.844Y-118.643
X126.844Y-121.507
X127.438Y-120.075
X155.794Y-62.507
X155.794Y-120.075
X156.387Y-61.075
X156.387Y-63.939
X156.387Y-118.643
X156.387Y-121.507
X157.819Y-60.482
X157.819Y-64.532
X157.819Y-118.05
X157.819Y-122.1
X159.251Y-61.075
X159.251Y-63.939
X159.251Y-118.643
X159.251Y-121.507
X159.844Y-62.507
X159.844Y-120.075
T4
X136.162Y-116.075
X136.588Y-100.375
X136.912Y-117.35
X138.512Y-100.225
T5
X114.142Y-85.26
X115.412Y-85.26
X116.682Y-85.26
X118.637Y-102.055
X118.637Y-103.325
X118.637Y-104.595
T6
X116.987Y-90.94
X116.987Y-98.56
X119.387Y-112.015
X119.387Y-119.635
X122.862Y-104.005
X122.862Y-111.625
X125.402Y-104.005
X125.402Y-111.625
X128.112Y-92.755
X128.112Y-100.375
X130.653Y-92.755
X130.653Y-100.375
T7
X96.807Y-67.867
X96.807Y-72.867
X125.887Y-62.867
X125.887Y-77.867
X155.887Y-84.275
X155.887Y-86.815
X155.887Y-89.355
X155.887Y-91.895
T8
X109.297Y-111.075
X109.297Y-121.275
X153.637Y-70.825
X153.637Y-75.325
X153.637Y-103.075
X153.637Y-107.575
X160.137Y-70.825
X160.137Y-75.325
X160.137Y-103.075
X160.137Y-107.575
T9
X96.188Y-85.825
X96.188Y-97.825
X108.387Y-85.825
X108.387Y-97.825
X110.387Y-91.825
T10
X87.888Y-61.585
X87.888Y-66.665
X87.888Y-71.745
X87.888Y-76.825
X87.888Y-86.415
X87.888Y-91.495
X87.888Y-96.575
T11
X94.097Y-107.275
X96.637Y-125.075
T12
X124.819Y-87.507
X125.412Y-120.075
X157.819Y-62.507
X157.819Y-120.075
M30
