%TF.GenerationSoftware,KiCad,Pcbnew,9.0.6*%
%TF.CreationDate,2026-06-29T13:27:28+05:30*%
%TF.ProjectId,smart home automation,736d6172-7420-4686-9f6d-65206175746f,rev?*%
%TF.SameCoordinates,Original*%
%TF.FileFunction,Soldermask,Bot*%
%TF.FilePolarity,Negative*%
%FSLAX46Y46*%
G04 Gerber Fmt 4.6, Leading zero omitted, Abs format (unit mm)*
G04 Created by KiCad (PCBNEW 9.0.6) date 2026-06-29 13:27:28*
%MOMM*%
%LPD*%
G01*
G04 APERTURE LIST*
G04 Aperture macros list*
%AMRoundRect*
0 Rectangle with rounded corners*
0 $1 Rounding radius*
0 $2 $3 $4 $5 $6 $7 $8 $9 X,Y pos of 4 corners*
0 Add a 4 corners polygon primitive as box body*
4,1,4,$2,$3,$4,$5,$6,$7,$8,$9,$2,$3,0*
0 Add four circle primitives for the rounded corners*
1,1,$1+$1,$2,$3*
1,1,$1+$1,$4,$5*
1,1,$1+$1,$6,$7*
1,1,$1+$1,$8,$9*
0 Add four rect primitives between the rounded corners*
20,1,$1+$1,$2,$3,$4,$5,0*
20,1,$1+$1,$4,$5,$6,$7,0*
20,1,$1+$1,$6,$7,$8,$9,0*
20,1,$1+$1,$8,$9,$2,$3,0*%
G04 Aperture macros list end*
%ADD10C,2.000000*%
%ADD11R,1.500000X1.050000*%
%ADD12O,1.500000X1.050000*%
%ADD13C,0.800000*%
%ADD14C,5.400000*%
%ADD15R,1.600000X1.600000*%
%ADD16O,1.600000X1.600000*%
%ADD17C,3.000000*%
%ADD18RoundRect,0.500000X-0.500000X-0.500000X0.500000X-0.500000X0.500000X0.500000X-0.500000X0.500000X0*%
%ADD19R,1.050000X1.500000*%
%ADD20O,1.050000X1.500000*%
%ADD21R,3.000000X3.000000*%
%ADD22C,2.154000*%
%ADD23R,1.700000X1.700000*%
%ADD24O,1.700000X1.700000*%
%ADD25R,1.700000X2.000000*%
%ADD26O,1.700000X2.000000*%
%TA.AperFunction,ComponentPad*%
%ADD27C,2.000000*%
%TD*%
%TA.AperFunction,ComponentPad*%
%ADD28R,1.500000X1.050000*%
%TD*%
%TA.AperFunction,ComponentPad*%
%ADD29O,1.500000X1.050000*%
%TD*%
%TA.AperFunction,ComponentPad*%
%ADD30C,0.800000*%
%TD*%
%TA.AperFunction,ComponentPad*%
%ADD31C,5.400000*%
%TD*%
%TA.AperFunction,ComponentPad*%
%ADD32R,1.600000X1.600000*%
%TD*%
%TA.AperFunction,ComponentPad*%
%ADD33O,1.600000X1.600000*%
%TD*%
%TA.AperFunction,ComponentPad*%
%ADD34C,3.000000*%
%TD*%
%TA.AperFunction,ComponentPad*%
%ADD35RoundRect,0.500000X-0.500000X-0.500000X0.500000X-0.500000X0.500000X0.500000X-0.500000X0.500000X0*%
%TD*%
%TA.AperFunction,HeatsinkPad*%
%ADD36C,0.600000*%
%TD*%
%TA.AperFunction,ComponentPad*%
%ADD37R,1.050000X1.500000*%
%TD*%
%TA.AperFunction,ComponentPad*%
%ADD38O,1.050000X1.500000*%
%TD*%
%TA.AperFunction,ComponentPad*%
%ADD39R,3.000000X3.000000*%
%TD*%
%TA.AperFunction,ComponentPad*%
%ADD40C,1.950000*%
%TD*%
%TA.AperFunction,ComponentPad*%
%ADD41R,1.700000X1.700000*%
%TD*%
%TA.AperFunction,ComponentPad*%
%ADD42O,1.700000X1.700000*%
%TD*%
%TA.AperFunction,ComponentPad*%
%ADD43R,1.700000X2.000000*%
%TD*%
%TA.AperFunction,ComponentPad*%
%ADD44O,1.700000X2.000000*%
%TD*%
%TA.AperFunction,ViaPad*%
%ADD45C,0.600000*%
%TD*%
%TA.AperFunction,ViaPad*%
%ADD46C,0.900000*%
%TD*%
%TA.AperFunction,Conductor*%
%ADD47C,0.500000*%
%TD*%
%TA.AperFunction,Conductor*%
%ADD48C,2.500000*%
%TD*%
%ADD49C,0.200000*%
%TA.AperFunction,SMDPad,CuDef*%
%ADD50RoundRect,0.243750X-0.243750X-0.456250X0.243750X-0.456250X0.243750X0.456250X-0.243750X0.456250X0*%
%TD*%
%TA.AperFunction,SMDPad,CuDef*%
%ADD51RoundRect,0.250000X0.262500X0.450000X-0.262500X0.450000X-0.262500X-0.450000X0.262500X-0.450000X0*%
%TD*%
%TA.AperFunction,SMDPad,CuDef*%
%ADD52RoundRect,0.250000X-0.262500X-0.450000X0.262500X-0.450000X0.262500X0.450000X-0.262500X0.450000X0*%
%TD*%
%TA.AperFunction,SMDPad,CuDef*%
%ADD53R,1.500000X0.900000*%
%TD*%
%TA.AperFunction,SMDPad,CuDef*%
%ADD54R,0.900000X1.500000*%
%TD*%
%TA.AperFunction,SMDPad,CuDef*%
%ADD55R,1.050000X1.050000*%
%TD*%
%TA.AperFunction,SMDPad,CuDef*%
%ADD56R,4.200000X4.200000*%
%TD*%
%TA.AperFunction,SMDPad,CuDef*%
%ADD57RoundRect,0.250000X0.250000X0.475000X-0.250000X0.475000X-0.250000X-0.475000X0.250000X-0.475000X0*%
%TD*%
%TA.AperFunction,SMDPad,CuDef*%
%ADD58RoundRect,0.375000X-0.625000X-0.375000X0.625000X-0.375000X0.625000X0.375000X-0.625000X0.375000X0*%
%TD*%
%TA.AperFunction,SMDPad,CuDef*%
%ADD59RoundRect,0.500000X-0.500000X-1.400000X0.500000X-1.400000X0.500000X1.400000X-0.500000X1.400000X0*%
%TD*%
%TA.AperFunction,SMDPad,CuDef*%
%ADD60RoundRect,0.250000X0.450000X-0.262500X0.450000X0.262500X-0.450000X0.262500X-0.450000X-0.262500X0*%
%TD*%
%ADD61RoundRect,0.243750X-0.243750X-0.456250X0.243750X-0.456250X0.243750X0.456250X-0.243750X0.456250X0*%
%ADD62RoundRect,0.250000X0.262500X0.450000X-0.262500X0.450000X-0.262500X-0.450000X0.262500X-0.450000X0*%
%ADD63RoundRect,0.250000X-0.262500X-0.450000X0.262500X-0.450000X0.262500X0.450000X-0.262500X0.450000X0*%
%ADD64R,1.500000X0.900000*%
%ADD65R,0.900000X1.500000*%
%ADD66C,0.600000*%
%ADD67R,4.200000X4.200000*%
%ADD68RoundRect,0.250000X0.250000X0.475000X-0.250000X0.475000X-0.250000X-0.475000X0.250000X-0.475000X0*%
%ADD69RoundRect,0.375000X-0.625000X-0.375000X0.625000X-0.375000X0.625000X0.375000X-0.625000X0.375000X0*%
%ADD70RoundRect,0.500000X-0.500000X-1.400000X0.500000X-1.400000X0.500000X1.400000X-0.500000X1.400000X0*%
%ADD71RoundRect,0.250000X0.450000X-0.262500X0.450000X0.262500X-0.450000X0.262500X-0.450000X-0.262500X0*%
%ADD72R,1.050000X1.050000*%
%ADD73C,0.100000*%
%ADD74C,0.150000*%
%ADD75C,0.120000*%
%ADD76C,0.127000*%
%TA.AperFunction,Profile*%
%ADD77C,0.050000*%
%TD*%
G04 APERTURE END LIST*
D10*
%TO.C,SW1*%
X153637500Y-70825000D03*
X160137500Y-70825000D03*
X153637500Y-75325000D03*
X160137500Y-75325000D03*
%TD*%
D11*
%TO.C,Q1*%
X118637500Y-104595000D03*
D12*
X118637500Y-103325000D03*
X118637500Y-102055000D03*
%TD*%
D13*
%TO.C,H1*%
X155794391Y-62506891D03*
X156387500Y-61075000D03*
X156387500Y-63938782D03*
X157819391Y-60481891D03*
D14*
X157819391Y-62506891D03*
D13*
X157819391Y-64531891D03*
X159251282Y-61075000D03*
X159251282Y-63938782D03*
X159844391Y-62506891D03*
%TD*%
D15*
%TO.C,D3*%
X116987500Y-98560000D03*
D16*
X116987500Y-90940000D03*
%TD*%
D17*
%TO.C,K1*%
X96637500Y-125075000D03*
X94097500Y-107275000D03*
D18*
X109297500Y-121275000D03*
D10*
X109297500Y-111075000D03*
%TD*%
D13*
%TO.C,H4*%
X123387500Y-120075000D03*
X123980609Y-118643109D03*
X123980609Y-121506891D03*
X125412500Y-118050000D03*
D14*
X125412500Y-120075000D03*
D13*
X125412500Y-122100000D03*
X126844391Y-118643109D03*
X126844391Y-121506891D03*
X127437500Y-120075000D03*
%TD*%
D15*
%TO.C,D2*%
X119387500Y-119635000D03*
D16*
X119387500Y-112015000D03*
%TD*%
D13*
%TO.C,H3*%
X122794391Y-87506891D03*
X123387500Y-86075000D03*
X123387500Y-88938782D03*
X124819391Y-85481891D03*
D14*
X124819391Y-87506891D03*
D13*
X124819391Y-89531891D03*
X126251282Y-86075000D03*
X126251282Y-88938782D03*
X126844391Y-87506891D03*
%TD*%
D19*
%TO.C,Q2*%
X114142500Y-85260000D03*
D20*
X115412500Y-85260000D03*
X116682500Y-85260000D03*
%TD*%
D15*
%TO.C,U3*%
X128112500Y-100375000D03*
D16*
X130652500Y-100375000D03*
X130652500Y-92755000D03*
X128112500Y-92755000D03*
%TD*%
D21*
%TO.C,J2*%
X87887500Y-76825000D03*
D17*
X87887500Y-71745000D03*
X87887500Y-66665000D03*
X87887500Y-61585000D03*
%TD*%
D10*
%TO.C,SW2*%
X153637500Y-103075000D03*
X160137500Y-103075000D03*
X153637500Y-107575000D03*
X160137500Y-107575000D03*
%TD*%
D13*
%TO.C,H2*%
X155794391Y-120075000D03*
X156387500Y-118643109D03*
X156387500Y-121506891D03*
X157819391Y-118050000D03*
D14*
X157819391Y-120075000D03*
D13*
X157819391Y-122100000D03*
X159251282Y-118643109D03*
X159251282Y-121506891D03*
X159844391Y-120075000D03*
%TD*%
D22*
%TO.C,K2*%
X108387500Y-97825000D03*
X108387500Y-85825000D03*
X110387500Y-91825000D03*
X96187500Y-97825000D03*
X96187500Y-85825000D03*
%TD*%
D21*
%TO.C,J3*%
X87887500Y-96575000D03*
D17*
X87887500Y-91495000D03*
X87887500Y-86415000D03*
%TD*%
D23*
%TO.C,J1*%
X155887500Y-84275000D03*
D24*
X155887500Y-86815000D03*
X155887500Y-89355000D03*
X155887500Y-91895000D03*
%TD*%
D15*
%TO.C,U2*%
X122862500Y-111625000D03*
D16*
X125402500Y-111625000D03*
X125402500Y-104005000D03*
X122862500Y-104005000D03*
%TD*%
D25*
%TO.C,PS1*%
X96807500Y-67867500D03*
D26*
X96807500Y-72867500D03*
X125887500Y-62867500D03*
X125887500Y-77867500D03*
%TD*%
D27*
%TO.P,SW1,1,1*%
%TO.N,/BOOT*%
X153637500Y-70825000D03*
X160137500Y-70825000D03*
%TO.P,SW1,2,2*%
%TO.N,GND*%
X153637500Y-75325000D03*
X160137500Y-75325000D03*
%TD*%
D28*
%TO.P,Q1,1,E*%
%TO.N,GND*%
X118637500Y-104595000D03*
D29*
%TO.P,Q1,2,B*%
%TO.N,Net-(Q1-B)*%
X118637500Y-103325000D03*
%TO.P,Q1,3,C*%
%TO.N,Net-(D2-A)*%
X118637500Y-102055000D03*
%TD*%
D30*
%TO.P,H1,1,1*%
%TO.N,GND*%
X155794391Y-62506891D03*
X156387500Y-61075000D03*
X156387500Y-63938782D03*
X157819391Y-60481891D03*
D31*
X157819391Y-62506891D03*
D30*
X157819391Y-64531891D03*
X159251282Y-61075000D03*
X159251282Y-63938782D03*
X159844391Y-62506891D03*
%TD*%
D32*
%TO.P,D3,1,K*%
%TO.N,/5V*%
X116987500Y-98560000D03*
D33*
%TO.P,D3,2,A*%
%TO.N,Net-(D3-A)*%
X116987500Y-90940000D03*
%TD*%
D34*
%TO.P,K1,13*%
%TO.N,/L1*%
X96637500Y-125075000D03*
%TO.P,K1,14*%
%TO.N,/P*%
X94097500Y-107275000D03*
D35*
%TO.P,K1,A1*%
%TO.N,/5V*%
X109297500Y-121275000D03*
D27*
%TO.P,K1,A2*%
%TO.N,Net-(D2-A)*%
X109297500Y-111075000D03*
%TD*%
D30*
%TO.P,H4,1,1*%
%TO.N,GND*%
X123387500Y-120075000D03*
X123980609Y-118643109D03*
X123980609Y-121506891D03*
X125412500Y-118050000D03*
D31*
X125412500Y-120075000D03*
D30*
X125412500Y-122100000D03*
X126844391Y-118643109D03*
X126844391Y-121506891D03*
X127437500Y-120075000D03*
%TD*%
D36*
%TO.P,U1,39,GND*%
%TO.N,GND*%
X142687500Y-115812500D03*
X142687500Y-114287500D03*
X141925000Y-116575000D03*
X141925000Y-115050000D03*
X141925000Y-113525000D03*
X141162500Y-115812500D03*
X141162500Y-114287500D03*
X140400000Y-116575000D03*
X140400000Y-115050000D03*
X140400000Y-113525000D03*
X139637500Y-115812500D03*
X139637500Y-114287500D03*
%TD*%
D32*
%TO.P,D2,1,K*%
%TO.N,/5V*%
X119387500Y-119635000D03*
D33*
%TO.P,D2,2,A*%
%TO.N,Net-(D2-A)*%
X119387500Y-112015000D03*
%TD*%
D30*
%TO.P,H3,1,1*%
%TO.N,GND*%
X122794391Y-87506891D03*
X123387500Y-86075000D03*
X123387500Y-88938782D03*
X124819391Y-85481891D03*
D31*
X124819391Y-87506891D03*
D30*
X124819391Y-89531891D03*
X126251282Y-86075000D03*
X126251282Y-88938782D03*
X126844391Y-87506891D03*
%TD*%
D37*
%TO.P,Q2,1,E*%
%TO.N,GND*%
X114142500Y-85260000D03*
D38*
%TO.P,Q2,2,B*%
%TO.N,Net-(Q2-B)*%
X115412500Y-85260000D03*
%TO.P,Q2,3,C*%
%TO.N,Net-(D3-A)*%
X116682500Y-85260000D03*
%TD*%
D32*
%TO.P,U3,1*%
%TO.N,Net-(R2-Pad1)*%
X128112500Y-100375000D03*
D33*
%TO.P,U3,2*%
%TO.N,GND*%
X130652500Y-100375000D03*
%TO.P,U3,3*%
%TO.N,Net-(R4-Pad2)*%
X130652500Y-92755000D03*
%TO.P,U3,4*%
%TO.N,GND*%
X128112500Y-92755000D03*
%TD*%
D39*
%TO.P,J2,1,Pin_1*%
%TO.N,/L2*%
X87887500Y-76825000D03*
D34*
%TO.P,J2,2,Pin_2*%
%TO.N,/L1*%
X87887500Y-71745000D03*
%TO.P,J2,3,Pin_3*%
%TO.N,/N*%
X87887500Y-66665000D03*
%TO.P,J2,4,Pin_4*%
%TO.N,/P*%
X87887500Y-61585000D03*
%TD*%
D27*
%TO.P,SW2,1,1*%
%TO.N,/EN*%
X153637500Y-103075000D03*
X160137500Y-103075000D03*
%TO.P,SW2,2,2*%
%TO.N,GND*%
X153637500Y-107575000D03*
X160137500Y-107575000D03*
%TD*%
D30*
%TO.P,H2,1,1*%
%TO.N,GND*%
X155794391Y-120075000D03*
X156387500Y-118643109D03*
X156387500Y-121506891D03*
X157819391Y-118050000D03*
D31*
X157819391Y-120075000D03*
D30*
X157819391Y-122100000D03*
X159251282Y-118643109D03*
X159251282Y-121506891D03*
X159844391Y-120075000D03*
%TD*%
D40*
%TO.P,K2,A1*%
%TO.N,/5V*%
X108387500Y-97825000D03*
%TO.P,K2,A2*%
%TO.N,Net-(D3-A)*%
X108387500Y-85825000D03*
%TO.P,K2,COM*%
%TO.N,/P*%
X110387500Y-91825000D03*
%TO.P,K2,NC*%
%TO.N,unconnected-(K2-PadNC)*%
X96187500Y-97825000D03*
%TO.P,K2,NO*%
%TO.N,/L2*%
X96187500Y-85825000D03*
%TD*%
D39*
%TO.P,J3,1,Pin_1*%
%TO.N,/IN1*%
X87887500Y-96575000D03*
D34*
%TO.P,J3,2,Pin_2*%
%TO.N,/IN2*%
X87887500Y-91495000D03*
%TO.P,J3,3,Pin_3*%
%TO.N,GND*%
X87887500Y-86415000D03*
%TD*%
D41*
%TO.P,J1,1,Pin_1*%
%TO.N,/TXD*%
X155887500Y-84275000D03*
D42*
%TO.P,J1,2,Pin_2*%
%TO.N,/RXD*%
X155887500Y-86815000D03*
%TO.P,J1,3,Pin_3*%
%TO.N,GND*%
X155887500Y-89355000D03*
%TO.P,J1,4,Pin_4*%
%TO.N,/3V3*%
X155887500Y-91895000D03*
%TD*%
D32*
%TO.P,U2,1*%
%TO.N,Net-(R1-Pad1)*%
X122862500Y-111625000D03*
D33*
%TO.P,U2,2*%
%TO.N,GND*%
X125402500Y-111625000D03*
%TO.P,U2,3*%
%TO.N,Net-(R3-Pad2)*%
X125402500Y-104005000D03*
%TO.P,U2,4*%
%TO.N,GND*%
X122862500Y-104005000D03*
%TD*%
D43*
%TO.P,PS1,1,AC/L*%
%TO.N,/P*%
X96807500Y-67867500D03*
D44*
%TO.P,PS1,2,AC/N*%
%TO.N,/N*%
X96807500Y-72867500D03*
%TO.P,PS1,3,-Vout*%
%TO.N,GND*%
X125887500Y-62867500D03*
%TO.P,PS1,4,+Vout*%
%TO.N,/5V*%
X125887500Y-77867500D03*
%TD*%
D45*
%TO.N,/3V3*%
X158537500Y-113850000D03*
D46*
%TO.N,/TXD*%
X136912500Y-117350000D03*
X136587500Y-100375000D03*
%TO.N,/RXD*%
X138512500Y-100225000D03*
X136162500Y-116075000D03*
D45*
%TO.N,/R2*%
X135087500Y-120475000D03*
X121412500Y-97900000D03*
%TO.N,/LED1*%
X152287500Y-88725000D03*
X144337500Y-81750000D03*
%TO.N,/LED2*%
X143162500Y-89225000D03*
X142112500Y-82275000D03*
%TO.N,/BOOT*%
X148762500Y-72825000D03*
X137987500Y-81800000D03*
%TO.N,/EN*%
X151837500Y-80275000D03*
%TO.N,/IN2*%
X128187500Y-107675000D03*
X136412500Y-108750000D03*
%TO.N,/IN1*%
X129137500Y-109500000D03*
X136712500Y-110275000D03*
%TD*%
D47*
%TO.N,/5V*%
X119487500Y-81875000D02*
X123495000Y-77867500D01*
X105112500Y-119450000D02*
X106937500Y-121275000D01*
X108387500Y-97825000D02*
X108387500Y-105900000D01*
X106937500Y-121275000D02*
X109297500Y-121275000D01*
X116987500Y-94900000D02*
X119487500Y-92400000D01*
X105112500Y-109175000D02*
X105112500Y-119450000D01*
X116987500Y-98560000D02*
X116987500Y-94900000D01*
X119487500Y-92400000D02*
X119487500Y-81875000D01*
X123495000Y-77867500D02*
X125887500Y-77867500D01*
X119387500Y-119635000D02*
X110937500Y-119635000D01*
X116987500Y-98560000D02*
X109122500Y-98560000D01*
X110937500Y-119635000D02*
X109297500Y-121275000D01*
X109122500Y-98560000D02*
X108387500Y-97825000D01*
X108387500Y-105900000D02*
X105112500Y-109175000D01*
%TO.N,/3V3*%
X157187500Y-93195000D02*
X155887500Y-91895000D01*
X157187500Y-113000000D02*
X157187500Y-93195000D01*
X158537500Y-113850000D02*
X158037500Y-113850000D01*
X158037500Y-113850000D02*
X157187500Y-113000000D01*
%TO.N,Net-(D2-A)*%
X118637500Y-102055000D02*
X117082500Y-102055000D01*
X119387500Y-112015000D02*
X114987500Y-112015000D01*
X116362500Y-102775000D02*
X116362500Y-110640000D01*
X114987500Y-112015000D02*
X110237500Y-112015000D01*
X116362500Y-110640000D02*
X114987500Y-112015000D01*
X117082500Y-102055000D02*
X116362500Y-102775000D01*
X110237500Y-112015000D02*
X109297500Y-111075000D01*
%TO.N,Net-(D3-A)*%
X115987500Y-82350000D02*
X116687500Y-83050000D01*
X116682500Y-83055000D02*
X116682500Y-85260000D01*
X116687500Y-83050000D02*
X116682500Y-83055000D01*
X108387500Y-85825000D02*
X108387500Y-83550000D01*
X108387500Y-83550000D02*
X109587500Y-82350000D01*
X116987500Y-90940000D02*
X116987500Y-85565000D01*
X116987500Y-85565000D02*
X116682500Y-85260000D01*
X109587500Y-82350000D02*
X115987500Y-82350000D01*
%TO.N,/TXD*%
X138012500Y-116250000D02*
X138012500Y-112825000D01*
X139637500Y-103425000D02*
X136587500Y-100375000D01*
X139637500Y-111200000D02*
X139637500Y-103425000D01*
X138012500Y-112825000D02*
X139637500Y-111200000D01*
X136912500Y-117350000D02*
X138012500Y-116250000D01*
%TO.N,/RXD*%
X134687500Y-100700000D02*
X134687500Y-99125000D01*
X137337500Y-98300000D02*
X138512500Y-99475000D01*
X137862500Y-111275000D02*
X138437500Y-110700000D01*
X137837500Y-111275000D02*
X137862500Y-111275000D01*
X136162500Y-116075000D02*
X136162500Y-112950000D01*
X138437500Y-110700000D02*
X138437500Y-104450000D01*
X135512500Y-98300000D02*
X137337500Y-98300000D01*
X136162500Y-112950000D02*
X137837500Y-111275000D01*
X134687500Y-99125000D02*
X135512500Y-98300000D01*
X138512500Y-99475000D02*
X138512500Y-100225000D01*
X138437500Y-104450000D02*
X134687500Y-100700000D01*
D48*
%TO.N,/L1*%
X91115812Y-73571688D02*
X91530000Y-73985877D01*
X91530000Y-74217500D02*
X93037500Y-75725000D01*
X87887500Y-71745000D02*
X89289124Y-71745000D01*
X91530000Y-73985877D02*
X91530000Y-74217500D01*
X89289124Y-71745000D02*
X91115812Y-73571688D01*
X92212500Y-101050000D02*
X88412500Y-104850000D01*
X93037500Y-83375000D02*
X92212500Y-84200000D01*
X88412500Y-104850000D02*
X88162500Y-104850000D01*
X92212500Y-84200000D02*
X92212500Y-101050000D01*
X93037500Y-75725000D02*
X93037500Y-83375000D01*
X88162500Y-111225000D02*
X96637500Y-119700000D01*
X96637500Y-119700000D02*
X96637500Y-125075000D01*
X88162500Y-104850000D02*
X88162500Y-111225000D01*
%TO.N,/P*%
X100000000Y-87000000D02*
X102812500Y-84187500D01*
X98187500Y-107275000D02*
X100987500Y-104475000D01*
X100987500Y-91450000D02*
X102812500Y-89625000D01*
X105012500Y-91825000D02*
X102812500Y-89625000D01*
X102812500Y-84187500D02*
X102812500Y-71275000D01*
X96807500Y-63145000D02*
X96807500Y-67867500D01*
X100987500Y-104475000D02*
X100987500Y-91450000D01*
X99405000Y-67867500D02*
X96807500Y-67867500D01*
X94097500Y-107275000D02*
X98187500Y-107275000D01*
X95247500Y-61585000D02*
X96807500Y-63145000D01*
X110387500Y-91825000D02*
X105012500Y-91825000D01*
X102812500Y-71275000D02*
X99405000Y-67867500D01*
X87887500Y-61585000D02*
X95247500Y-61585000D01*
D47*
%TO.N,/R2*%
X121412500Y-101450000D02*
X120712500Y-102150000D01*
X120737500Y-107250000D02*
X122637500Y-109150000D01*
X120737500Y-102625000D02*
X120737500Y-107250000D01*
X120712500Y-102600000D02*
X120737500Y-102625000D01*
X120712500Y-102150000D02*
X120712500Y-102600000D01*
X127112500Y-109150000D02*
X135087500Y-117125000D01*
X121412500Y-97900000D02*
X121412500Y-101450000D01*
X122637500Y-109150000D02*
X127112500Y-109150000D01*
X135087500Y-117125000D02*
X135087500Y-120475000D01*
%TO.N,/LED1*%
X150462500Y-81750000D02*
X144337500Y-81750000D01*
X152287500Y-83575000D02*
X150462500Y-81750000D01*
X152287500Y-88725000D02*
X152287500Y-83575000D01*
%TO.N,/LED2*%
X143162500Y-83325000D02*
X142112500Y-82275000D01*
X143162500Y-89225000D02*
X143162500Y-83325000D01*
%TO.N,/BOOT*%
X148762500Y-72825000D02*
X146662500Y-74925000D01*
X146662500Y-74925000D02*
X139962500Y-74925000D01*
X139962500Y-74925000D02*
X137837500Y-77050000D01*
X137837500Y-77050000D02*
X137837500Y-81650000D01*
X137837500Y-81650000D02*
X137987500Y-81800000D01*
%TO.N,/EN*%
X158087500Y-80100000D02*
X152012500Y-80100000D01*
X160137500Y-82150000D02*
X158087500Y-80100000D01*
X160137500Y-103075000D02*
X160137500Y-82150000D01*
X152012500Y-80100000D02*
X151837500Y-80275000D01*
%TO.N,/IN2*%
X131537500Y-108750000D02*
X130437500Y-107650000D01*
X136412500Y-108750000D02*
X131537500Y-108750000D01*
X130437500Y-107650000D02*
X130412500Y-107675000D01*
X130412500Y-107675000D02*
X128187500Y-107675000D01*
%TO.N,/IN1*%
X129912500Y-110275000D02*
X136712500Y-110275000D01*
X129137500Y-109500000D02*
X129912500Y-110275000D01*
%TD*%
D49*
X94441636Y-77392219D02*
X94917826Y-77392219D01*
X94917826Y-77392219D02*
X94917826Y-76392219D01*
X93917826Y-76392219D02*
X93727350Y-76392219D01*
X93727350Y-76392219D02*
X93632112Y-76439838D01*
X93632112Y-76439838D02*
X93536874Y-76535076D01*
X93536874Y-76535076D02*
X93489255Y-76725552D01*
X93489255Y-76725552D02*
X93489255Y-77058885D01*
X93489255Y-77058885D02*
X93536874Y-77249361D01*
X93536874Y-77249361D02*
X93632112Y-77344600D01*
X93632112Y-77344600D02*
X93727350Y-77392219D01*
X93727350Y-77392219D02*
X93917826Y-77392219D01*
X93917826Y-77392219D02*
X94013064Y-77344600D01*
X94013064Y-77344600D02*
X94108302Y-77249361D01*
X94108302Y-77249361D02*
X94155921Y-77058885D01*
X94155921Y-77058885D02*
X94155921Y-76725552D01*
X94155921Y-76725552D02*
X94108302Y-76535076D01*
X94108302Y-76535076D02*
X94013064Y-76439838D01*
X94013064Y-76439838D02*
X93917826Y-76392219D01*
X93108302Y-77106504D02*
X92632112Y-77106504D01*
X93203540Y-77392219D02*
X92870207Y-76392219D01*
X92870207Y-76392219D02*
X92536874Y-77392219D01*
X92203540Y-77392219D02*
X92203540Y-76392219D01*
X92203540Y-76392219D02*
X91965445Y-76392219D01*
X91965445Y-76392219D02*
X91822588Y-76439838D01*
X91822588Y-76439838D02*
X91727350Y-76535076D01*
X91727350Y-76535076D02*
X91679731Y-76630314D01*
X91679731Y-76630314D02*
X91632112Y-76820790D01*
X91632112Y-76820790D02*
X91632112Y-76963647D01*
X91632112Y-76963647D02*
X91679731Y-77154123D01*
X91679731Y-77154123D02*
X91727350Y-77249361D01*
X91727350Y-77249361D02*
X91822588Y-77344600D01*
X91822588Y-77344600D02*
X91965445Y-77392219D01*
X91965445Y-77392219D02*
X92203540Y-77392219D01*
X91251159Y-76487457D02*
X91203540Y-76439838D01*
X91203540Y-76439838D02*
X91108302Y-76392219D01*
X91108302Y-76392219D02*
X90870207Y-76392219D01*
X90870207Y-76392219D02*
X90774969Y-76439838D01*
X90774969Y-76439838D02*
X90727350Y-76487457D01*
X90727350Y-76487457D02*
X90679731Y-76582695D01*
X90679731Y-76582695D02*
X90679731Y-76677933D01*
X90679731Y-76677933D02*
X90727350Y-76820790D01*
X90727350Y-76820790D02*
X91298778Y-77392219D01*
X91298778Y-77392219D02*
X90679731Y-77392219D01*
X95017826Y-62067219D02*
X95017826Y-61067219D01*
X95017826Y-61067219D02*
X94636874Y-61067219D01*
X94636874Y-61067219D02*
X94541636Y-61114838D01*
X94541636Y-61114838D02*
X94494017Y-61162457D01*
X94494017Y-61162457D02*
X94446398Y-61257695D01*
X94446398Y-61257695D02*
X94446398Y-61400552D01*
X94446398Y-61400552D02*
X94494017Y-61495790D01*
X94494017Y-61495790D02*
X94541636Y-61543409D01*
X94541636Y-61543409D02*
X94636874Y-61591028D01*
X94636874Y-61591028D02*
X95017826Y-61591028D01*
X94017826Y-62067219D02*
X94017826Y-61067219D01*
X94017826Y-61543409D02*
X93446398Y-61543409D01*
X93446398Y-62067219D02*
X93446398Y-61067219D01*
X93017826Y-61781504D02*
X92541636Y-61781504D01*
X93113064Y-62067219D02*
X92779731Y-61067219D01*
X92779731Y-61067219D02*
X92446398Y-62067219D01*
X92160683Y-62019600D02*
X92017826Y-62067219D01*
X92017826Y-62067219D02*
X91779731Y-62067219D01*
X91779731Y-62067219D02*
X91684493Y-62019600D01*
X91684493Y-62019600D02*
X91636874Y-61971980D01*
X91636874Y-61971980D02*
X91589255Y-61876742D01*
X91589255Y-61876742D02*
X91589255Y-61781504D01*
X91589255Y-61781504D02*
X91636874Y-61686266D01*
X91636874Y-61686266D02*
X91684493Y-61638647D01*
X91684493Y-61638647D02*
X91779731Y-61591028D01*
X91779731Y-61591028D02*
X91970207Y-61543409D01*
X91970207Y-61543409D02*
X92065445Y-61495790D01*
X92065445Y-61495790D02*
X92113064Y-61448171D01*
X92113064Y-61448171D02*
X92160683Y-61352933D01*
X92160683Y-61352933D02*
X92160683Y-61257695D01*
X92160683Y-61257695D02*
X92113064Y-61162457D01*
X92113064Y-61162457D02*
X92065445Y-61114838D01*
X92065445Y-61114838D02*
X91970207Y-61067219D01*
X91970207Y-61067219D02*
X91732112Y-61067219D01*
X91732112Y-61067219D02*
X91589255Y-61114838D01*
X91160683Y-61543409D02*
X90827350Y-61543409D01*
X90684493Y-62067219D02*
X91160683Y-62067219D01*
X91160683Y-62067219D02*
X91160683Y-61067219D01*
X91160683Y-61067219D02*
X90684493Y-61067219D01*
X94291636Y-72342219D02*
X94767826Y-72342219D01*
X94767826Y-72342219D02*
X94767826Y-71342219D01*
X93767826Y-71342219D02*
X93577350Y-71342219D01*
X93577350Y-71342219D02*
X93482112Y-71389838D01*
X93482112Y-71389838D02*
X93386874Y-71485076D01*
X93386874Y-71485076D02*
X93339255Y-71675552D01*
X93339255Y-71675552D02*
X93339255Y-72008885D01*
X93339255Y-72008885D02*
X93386874Y-72199361D01*
X93386874Y-72199361D02*
X93482112Y-72294600D01*
X93482112Y-72294600D02*
X93577350Y-72342219D01*
X93577350Y-72342219D02*
X93767826Y-72342219D01*
X93767826Y-72342219D02*
X93863064Y-72294600D01*
X93863064Y-72294600D02*
X93958302Y-72199361D01*
X93958302Y-72199361D02*
X94005921Y-72008885D01*
X94005921Y-72008885D02*
X94005921Y-71675552D01*
X94005921Y-71675552D02*
X93958302Y-71485076D01*
X93958302Y-71485076D02*
X93863064Y-71389838D01*
X93863064Y-71389838D02*
X93767826Y-71342219D01*
X92958302Y-72056504D02*
X92482112Y-72056504D01*
X93053540Y-72342219D02*
X92720207Y-71342219D01*
X92720207Y-71342219D02*
X92386874Y-72342219D01*
X92053540Y-72342219D02*
X92053540Y-71342219D01*
X92053540Y-71342219D02*
X91815445Y-71342219D01*
X91815445Y-71342219D02*
X91672588Y-71389838D01*
X91672588Y-71389838D02*
X91577350Y-71485076D01*
X91577350Y-71485076D02*
X91529731Y-71580314D01*
X91529731Y-71580314D02*
X91482112Y-71770790D01*
X91482112Y-71770790D02*
X91482112Y-71913647D01*
X91482112Y-71913647D02*
X91529731Y-72104123D01*
X91529731Y-72104123D02*
X91577350Y-72199361D01*
X91577350Y-72199361D02*
X91672588Y-72294600D01*
X91672588Y-72294600D02*
X91815445Y-72342219D01*
X91815445Y-72342219D02*
X92053540Y-72342219D01*
X90529731Y-72342219D02*
X91101159Y-72342219D01*
X90815445Y-72342219D02*
X90815445Y-71342219D01*
X90815445Y-71342219D02*
X90910683Y-71485076D01*
X90910683Y-71485076D02*
X91005921Y-71580314D01*
X91005921Y-71580314D02*
X91101159Y-71627933D01*
X96767826Y-66467219D02*
X96767826Y-65467219D01*
X96767826Y-65467219D02*
X96196398Y-66467219D01*
X96196398Y-66467219D02*
X96196398Y-65467219D01*
X95720207Y-65467219D02*
X95720207Y-66276742D01*
X95720207Y-66276742D02*
X95672588Y-66371980D01*
X95672588Y-66371980D02*
X95624969Y-66419600D01*
X95624969Y-66419600D02*
X95529731Y-66467219D01*
X95529731Y-66467219D02*
X95339255Y-66467219D01*
X95339255Y-66467219D02*
X95244017Y-66419600D01*
X95244017Y-66419600D02*
X95196398Y-66371980D01*
X95196398Y-66371980D02*
X95148779Y-66276742D01*
X95148779Y-66276742D02*
X95148779Y-65467219D01*
X94672588Y-65943409D02*
X94339255Y-65943409D01*
X94196398Y-66467219D02*
X94672588Y-66467219D01*
X94672588Y-66467219D02*
X94672588Y-65467219D01*
X94672588Y-65467219D02*
X94196398Y-65467219D01*
X93910683Y-65467219D02*
X93339255Y-65467219D01*
X93624969Y-66467219D02*
X93624969Y-65467219D01*
X92434493Y-66467219D02*
X92767826Y-65991028D01*
X93005921Y-66467219D02*
X93005921Y-65467219D01*
X93005921Y-65467219D02*
X92624969Y-65467219D01*
X92624969Y-65467219D02*
X92529731Y-65514838D01*
X92529731Y-65514838D02*
X92482112Y-65562457D01*
X92482112Y-65562457D02*
X92434493Y-65657695D01*
X92434493Y-65657695D02*
X92434493Y-65800552D01*
X92434493Y-65800552D02*
X92482112Y-65895790D01*
X92482112Y-65895790D02*
X92529731Y-65943409D01*
X92529731Y-65943409D02*
X92624969Y-65991028D01*
X92624969Y-65991028D02*
X93005921Y-65991028D01*
X92053540Y-66181504D02*
X91577350Y-66181504D01*
X92148778Y-66467219D02*
X91815445Y-65467219D01*
X91815445Y-65467219D02*
X91482112Y-66467219D01*
X90672588Y-66467219D02*
X91148778Y-66467219D01*
X91148778Y-66467219D02*
X91148778Y-65467219D01*
X92842826Y-97217219D02*
X92842826Y-96217219D01*
X92366636Y-97217219D02*
X92366636Y-96217219D01*
X92366636Y-96217219D02*
X91795208Y-97217219D01*
X91795208Y-97217219D02*
X91795208Y-96217219D01*
X91366636Y-96312457D02*
X91319017Y-96264838D01*
X91319017Y-96264838D02*
X91223779Y-96217219D01*
X91223779Y-96217219D02*
X90985684Y-96217219D01*
X90985684Y-96217219D02*
X90890446Y-96264838D01*
X90890446Y-96264838D02*
X90842827Y-96312457D01*
X90842827Y-96312457D02*
X90795208Y-96407695D01*
X90795208Y-96407695D02*
X90795208Y-96502933D01*
X90795208Y-96502933D02*
X90842827Y-96645790D01*
X90842827Y-96645790D02*
X91414255Y-97217219D01*
X91414255Y-97217219D02*
X90795208Y-97217219D01*
X92992826Y-91717219D02*
X92992826Y-90717219D01*
X92516636Y-91717219D02*
X92516636Y-90717219D01*
X92516636Y-90717219D02*
X91945208Y-91717219D01*
X91945208Y-91717219D02*
X91945208Y-90717219D01*
X90945208Y-91717219D02*
X91516636Y-91717219D01*
X91230922Y-91717219D02*
X91230922Y-90717219D01*
X91230922Y-90717219D02*
X91326160Y-90860076D01*
X91326160Y-90860076D02*
X91421398Y-90955314D01*
X91421398Y-90955314D02*
X91516636Y-91002933D01*
X92744017Y-85964838D02*
X92839255Y-85917219D01*
X92839255Y-85917219D02*
X92982112Y-85917219D01*
X92982112Y-85917219D02*
X93124969Y-85964838D01*
X93124969Y-85964838D02*
X93220207Y-86060076D01*
X93220207Y-86060076D02*
X93267826Y-86155314D01*
X93267826Y-86155314D02*
X93315445Y-86345790D01*
X93315445Y-86345790D02*
X93315445Y-86488647D01*
X93315445Y-86488647D02*
X93267826Y-86679123D01*
X93267826Y-86679123D02*
X93220207Y-86774361D01*
X93220207Y-86774361D02*
X93124969Y-86869600D01*
X93124969Y-86869600D02*
X92982112Y-86917219D01*
X92982112Y-86917219D02*
X92886874Y-86917219D01*
X92886874Y-86917219D02*
X92744017Y-86869600D01*
X92744017Y-86869600D02*
X92696398Y-86821980D01*
X92696398Y-86821980D02*
X92696398Y-86488647D01*
X92696398Y-86488647D02*
X92886874Y-86488647D01*
X92267826Y-86917219D02*
X92267826Y-85917219D01*
X92267826Y-85917219D02*
X91696398Y-86917219D01*
X91696398Y-86917219D02*
X91696398Y-85917219D01*
X91220207Y-86917219D02*
X91220207Y-85917219D01*
X91220207Y-85917219D02*
X90982112Y-85917219D01*
X90982112Y-85917219D02*
X90839255Y-85964838D01*
X90839255Y-85964838D02*
X90744017Y-86060076D01*
X90744017Y-86060076D02*
X90696398Y-86155314D01*
X90696398Y-86155314D02*
X90648779Y-86345790D01*
X90648779Y-86345790D02*
X90648779Y-86488647D01*
X90648779Y-86488647D02*
X90696398Y-86679123D01*
X90696398Y-86679123D02*
X90744017Y-86774361D01*
X90744017Y-86774361D02*
X90839255Y-86869600D01*
X90839255Y-86869600D02*
X90982112Y-86917219D01*
X90982112Y-86917219D02*
X91220207Y-86917219D01*
D27*
%TO.P,SW1,1,1*%
%TO.N,/BOOT*%
X153637500Y-70825000D03*
X160137500Y-70825000D03*
%TO.P,SW1,2,2*%
%TO.N,GND*%
X153637500Y-75325000D03*
X160137500Y-75325000D03*
%TD*%
D28*
%TO.P,Q1,1,E*%
%TO.N,GND*%
X118637500Y-104595000D03*
D29*
%TO.P,Q1,2,B*%
%TO.N,Net-(Q1-B)*%
X118637500Y-103325000D03*
%TO.P,Q1,3,C*%
%TO.N,Net-(D2-A)*%
X118637500Y-102055000D03*
%TD*%
D50*
%TO.P,D4,1,K*%
%TO.N,GND*%
X132862500Y-76825000D03*
%TO.P,D4,2,A*%
%TO.N,Net-(D4-A)*%
X134737500Y-76825000D03*
%TD*%
D51*
%TO.P,R7,1*%
%TO.N,/BOOT*%
X145800000Y-72825000D03*
%TO.P,R7,2*%
%TO.N,/3V3*%
X143975000Y-72825000D03*
%TD*%
D30*
%TO.P,H1,1,1*%
%TO.N,GND*%
X155794391Y-62506891D03*
X156387500Y-61075000D03*
X156387500Y-63938782D03*
X157819391Y-60481891D03*
D31*
X157819391Y-62506891D03*
D30*
X157819391Y-64531891D03*
X159251282Y-61075000D03*
X159251282Y-63938782D03*
X159844391Y-62506891D03*
%TD*%
D32*
%TO.P,D3,1,K*%
%TO.N,/5V*%
X116987500Y-98560000D03*
D33*
%TO.P,D3,2,A*%
%TO.N,Net-(D3-A)*%
X116987500Y-90940000D03*
%TD*%
D51*
%TO.P,R6,1*%
%TO.N,/LED2*%
X139712500Y-76825000D03*
%TO.P,R6,2*%
%TO.N,Net-(D4-A)*%
X137887500Y-76825000D03*
%TD*%
D34*
%TO.P,K1,13*%
%TO.N,/L1*%
X96637500Y-125075000D03*
%TO.P,K1,14*%
%TO.N,/P*%
X94097500Y-107275000D03*
D35*
%TO.P,K1,A1*%
%TO.N,/5V*%
X109297500Y-121275000D03*
D27*
%TO.P,K1,A2*%
%TO.N,Net-(D2-A)*%
X109297500Y-111075000D03*
%TD*%
D30*
%TO.P,H4,1,1*%
%TO.N,GND*%
X123387500Y-120075000D03*
X123980609Y-118643109D03*
X123980609Y-121506891D03*
X125412500Y-118050000D03*
D31*
X125412500Y-120075000D03*
D30*
X125412500Y-122100000D03*
X126844391Y-118643109D03*
X126844391Y-121506891D03*
X127437500Y-120075000D03*
%TD*%
D52*
%TO.P,R1,1*%
%TO.N,Net-(R1-Pad1)*%
X122225000Y-115075000D03*
%TO.P,R1,2*%
%TO.N,/R1*%
X124050000Y-115075000D03*
%TD*%
D53*
%TO.P,U1,1,GND*%
%TO.N,GND*%
X149232500Y-122390000D03*
%TO.P,U1,2,VDD*%
%TO.N,/3V3*%
X149232500Y-121120000D03*
%TO.P,U1,3,EN*%
%TO.N,/EN*%
X149232500Y-119850000D03*
%TO.P,U1,4,SENSOR_VP*%
%TO.N,unconnected-(U1-SENSOR_VP-Pad4)*%
X149232500Y-118580000D03*
%TO.P,U1,5,SENSOR_VN*%
%TO.N,unconnected-(U1-SENSOR_VN-Pad5)*%
X149232500Y-117310000D03*
%TO.P,U1,6,IO34*%
%TO.N,/IN1*%
X149232500Y-116040000D03*
%TO.P,U1,7,IO35*%
%TO.N,/IN2*%
X149232500Y-114770000D03*
%TO.P,U1,8,IO32*%
%TO.N,unconnected-(U1-IO32-Pad8)*%
X149232500Y-113500000D03*
%TO.P,U1,9,IO33*%
%TO.N,unconnected-(U1-IO33-Pad9)*%
X149232500Y-112230000D03*
%TO.P,U1,10,IO25*%
%TO.N,unconnected-(U1-IO25-Pad10)*%
X149232500Y-110960000D03*
%TO.P,U1,11,IO26*%
%TO.N,unconnected-(U1-IO26-Pad11)*%
X149232500Y-109690000D03*
%TO.P,U1,12,IO27*%
%TO.N,unconnected-(U1-IO27-Pad12)*%
X149232500Y-108420000D03*
%TO.P,U1,13,IO14*%
%TO.N,unconnected-(U1-IO14-Pad13)*%
X149232500Y-107150000D03*
%TO.P,U1,14,IO12*%
%TO.N,/LED1*%
X149232500Y-105880000D03*
D54*
%TO.P,U1,15,GND*%
%TO.N,GND*%
X146192500Y-104630000D03*
%TO.P,U1,16,IO13*%
%TO.N,/LED2*%
X144922500Y-104630000D03*
%TO.P,U1,17,SHD/SD2*%
%TO.N,unconnected-(U1-SHD{slash}SD2-Pad17)*%
X143652500Y-104630000D03*
%TO.P,U1,18,SWP/SD3*%
%TO.N,unconnected-(U1-SWP{slash}SD3-Pad18)*%
X142382500Y-104630000D03*
%TO.P,U1,19,SCS/CMD*%
%TO.N,unconnected-(U1-SCS{slash}CMD-Pad19)*%
X141112500Y-104630000D03*
%TO.P,U1,20,SCK/CLK*%
%TO.N,unconnected-(U1-SCK{slash}CLK-Pad20)*%
X139842500Y-104630000D03*
%TO.P,U1,21,SDO/SD0*%
%TO.N,unconnected-(U1-SDO{slash}SD0-Pad21)*%
X138572500Y-104630000D03*
%TO.P,U1,22,SDI/SD1*%
%TO.N,unconnected-(U1-SDI{slash}SD1-Pad22)*%
X137302500Y-104630000D03*
%TO.P,U1,23,IO15*%
%TO.N,unconnected-(U1-IO15-Pad23)*%
X136032500Y-104630000D03*
%TO.P,U1,24,IO2*%
%TO.N,unconnected-(U1-IO2-Pad24)*%
X134762500Y-104630000D03*
D53*
%TO.P,U1,25,IO0*%
%TO.N,/BOOT*%
X131732500Y-105880000D03*
%TO.P,U1,26,IO4*%
%TO.N,unconnected-(U1-IO4-Pad26)*%
X131732500Y-107150000D03*
%TO.P,U1,27,IO16*%
%TO.N,unconnected-(U1-IO16-Pad27)*%
X131732500Y-108420000D03*
%TO.P,U1,28,IO17*%
%TO.N,unconnected-(U1-IO17-Pad28)*%
X131732500Y-109690000D03*
%TO.P,U1,29,IO5*%
%TO.N,unconnected-(U1-IO5-Pad29)*%
X131732500Y-110960000D03*
%TO.P,U1,30,IO18*%
%TO.N,unconnected-(U1-IO18-Pad30)*%
X131732500Y-112230000D03*
%TO.P,U1,31,IO19*%
%TO.N,unconnected-(U1-IO19-Pad31)*%
X131732500Y-113500000D03*
%TO.P,U1,32,NC*%
%TO.N,unconnected-(U1-NC-Pad32)*%
X131732500Y-114770000D03*
%TO.P,U1,33,IO21*%
%TO.N,unconnected-(U1-IO21-Pad33)*%
X131732500Y-116040000D03*
%TO.P,U1,34,RXD0/IO3*%
%TO.N,/RXD*%
X131732500Y-117310000D03*
%TO.P,U1,35,TXD0/IO1*%
%TO.N,/TXD*%
X131732500Y-118580000D03*
%TO.P,U1,36,IO22*%
%TO.N,/R1*%
X131732500Y-119850000D03*
%TO.P,U1,37,IO23*%
%TO.N,/R2*%
X131732500Y-121120000D03*
%TO.P,U1,38,GND*%
%TO.N,GND*%
X131732500Y-122390000D03*
D55*
%TO.P,U1,39,GND*%
X142687500Y-116575000D03*
D36*
X142687500Y-115812500D03*
D55*
X142687500Y-115050000D03*
D36*
X142687500Y-114287500D03*
D55*
X142687500Y-113525000D03*
D36*
X141925000Y-116575000D03*
X141925000Y-115050000D03*
X141925000Y-113525000D03*
D55*
X141162500Y-116575000D03*
D36*
X141162500Y-115812500D03*
D55*
X141162500Y-115050000D03*
D56*
X141162500Y-115050000D03*
D36*
X141162500Y-114287500D03*
D55*
X141162500Y-113525000D03*
D36*
X140400000Y-116575000D03*
X140400000Y-115050000D03*
X140400000Y-113525000D03*
D55*
X139637500Y-116575000D03*
D36*
X139637500Y-115812500D03*
D55*
X139637500Y-115050000D03*
D36*
X139637500Y-114287500D03*
D55*
X139637500Y-113525000D03*
%TD*%
D57*
%TO.P,C1,1*%
%TO.N,/5V*%
X134587500Y-67325000D03*
%TO.P,C1,2*%
%TO.N,GND*%
X132687500Y-67325000D03*
%TD*%
D32*
%TO.P,D2,1,K*%
%TO.N,/5V*%
X119387500Y-119635000D03*
D33*
%TO.P,D2,2,A*%
%TO.N,Net-(D2-A)*%
X119387500Y-112015000D03*
%TD*%
D50*
%TO.P,D1,1,K*%
%TO.N,GND*%
X132862500Y-73075000D03*
%TO.P,D1,2,A*%
%TO.N,Net-(D1-A)*%
X134737500Y-73075000D03*
%TD*%
D52*
%TO.P,R8,1*%
%TO.N,/EN*%
X143975000Y-76825000D03*
%TO.P,R8,2*%
%TO.N,/3V3*%
X145800000Y-76825000D03*
%TD*%
D30*
%TO.P,H3,1,1*%
%TO.N,GND*%
X122794391Y-87506891D03*
X123387500Y-86075000D03*
X123387500Y-88938782D03*
X124819391Y-85481891D03*
D31*
X124819391Y-87506891D03*
D30*
X124819391Y-89531891D03*
X126251282Y-86075000D03*
X126251282Y-88938782D03*
X126844391Y-87506891D03*
%TD*%
D37*
%TO.P,Q2,1,E*%
%TO.N,GND*%
X114142500Y-85260000D03*
D38*
%TO.P,Q2,2,B*%
%TO.N,Net-(Q2-B)*%
X115412500Y-85260000D03*
%TO.P,Q2,3,C*%
%TO.N,Net-(D3-A)*%
X116682500Y-85260000D03*
%TD*%
D32*
%TO.P,U3,1*%
%TO.N,Net-(R2-Pad1)*%
X128112500Y-100375000D03*
D33*
%TO.P,U3,2*%
%TO.N,GND*%
X130652500Y-100375000D03*
%TO.P,U3,3*%
%TO.N,Net-(R4-Pad2)*%
X130652500Y-92755000D03*
%TO.P,U3,4*%
%TO.N,GND*%
X128112500Y-92755000D03*
%TD*%
D51*
%TO.P,R5,1*%
%TO.N,/LED1*%
X139462500Y-73075000D03*
%TO.P,R5,2*%
%TO.N,Net-(D1-A)*%
X137637500Y-73075000D03*
%TD*%
D39*
%TO.P,J2,1,Pin_1*%
%TO.N,/L2*%
X87887500Y-76825000D03*
D34*
%TO.P,J2,2,Pin_2*%
%TO.N,/L1*%
X87887500Y-71745000D03*
%TO.P,J2,3,Pin_3*%
%TO.N,/N*%
X87887500Y-66665000D03*
%TO.P,J2,4,Pin_4*%
%TO.N,/P*%
X87887500Y-61585000D03*
%TD*%
D52*
%TO.P,R4,1*%
%TO.N,Net-(Q2-B)*%
X130387500Y-88825000D03*
%TO.P,R4,2*%
%TO.N,Net-(R4-Pad2)*%
X132212500Y-88825000D03*
%TD*%
D27*
%TO.P,SW2,1,1*%
%TO.N,/EN*%
X153637500Y-103075000D03*
X160137500Y-103075000D03*
%TO.P,SW2,2,2*%
%TO.N,GND*%
X153637500Y-107575000D03*
X160137500Y-107575000D03*
%TD*%
D51*
%TO.P,R2,1*%
%TO.N,Net-(R2-Pad1)*%
X122800000Y-93825000D03*
%TO.P,R2,2*%
%TO.N,/R2*%
X120975000Y-93825000D03*
%TD*%
D57*
%TO.P,C2,1*%
%TO.N,/3V3*%
X134587500Y-63825000D03*
%TO.P,C2,2*%
%TO.N,GND*%
X132687500Y-63825000D03*
%TD*%
D58*
%TO.P,U4,1,GND*%
%TO.N,GND*%
X138987500Y-62525000D03*
%TO.P,U4,2,VO*%
%TO.N,/3V3*%
X138987500Y-64825000D03*
D59*
X145287500Y-64825000D03*
D58*
%TO.P,U4,3,VI*%
%TO.N,/5V*%
X138987500Y-67125000D03*
%TD*%
D60*
%TO.P,R3,1*%
%TO.N,Net-(Q1-B)*%
X113637500Y-104150000D03*
%TO.P,R3,2*%
%TO.N,Net-(R3-Pad2)*%
X113637500Y-102325000D03*
%TD*%
D30*
%TO.P,H2,1,1*%
%TO.N,GND*%
X155794391Y-120075000D03*
X156387500Y-118643109D03*
X156387500Y-121506891D03*
X157819391Y-118050000D03*
D31*
X157819391Y-120075000D03*
D30*
X157819391Y-122100000D03*
X159251282Y-118643109D03*
X159251282Y-121506891D03*
X159844391Y-120075000D03*
%TD*%
D40*
%TO.P,K2,A1*%
%TO.N,/5V*%
X108387500Y-97825000D03*
%TO.P,K2,A2*%
%TO.N,Net-(D3-A)*%
X108387500Y-85825000D03*
%TO.P,K2,COM*%
%TO.N,/P*%
X110387500Y-91825000D03*
%TO.P,K2,NC*%
%TO.N,unconnected-(K2-PadNC)*%
X96187500Y-97825000D03*
%TO.P,K2,NO*%
%TO.N,/L2*%
X96187500Y-85825000D03*
%TD*%
D39*
%TO.P,J3,1,Pin_1*%
%TO.N,/IN1*%
X87887500Y-96575000D03*
D34*
%TO.P,J3,2,Pin_2*%
%TO.N,/IN2*%
X87887500Y-91495000D03*
%TO.P,J3,3,Pin_3*%
%TO.N,GND*%
X87887500Y-86415000D03*
%TD*%
D41*
%TO.P,J1,1,Pin_1*%
%TO.N,/TXD*%
X155887500Y-84275000D03*
D42*
%TO.P,J1,2,Pin_2*%
%TO.N,/RXD*%
X155887500Y-86815000D03*
%TO.P,J1,3,Pin_3*%
%TO.N,GND*%
X155887500Y-89355000D03*
%TO.P,J1,4,Pin_4*%
%TO.N,/3V3*%
X155887500Y-91895000D03*
%TD*%
D32*
%TO.P,U2,1*%
%TO.N,Net-(R1-Pad1)*%
X122862500Y-111625000D03*
D33*
%TO.P,U2,2*%
%TO.N,GND*%
X125402500Y-111625000D03*
%TO.P,U2,3*%
%TO.N,Net-(R3-Pad2)*%
X125402500Y-104005000D03*
%TO.P,U2,4*%
%TO.N,GND*%
X122862500Y-104005000D03*
%TD*%
D43*
%TO.P,PS1,1,AC/L*%
%TO.N,/P*%
X96807500Y-67867500D03*
D44*
%TO.P,PS1,2,AC/N*%
%TO.N,/N*%
X96807500Y-72867500D03*
%TO.P,PS1,3,-Vout*%
%TO.N,GND*%
X125887500Y-62867500D03*
%TO.P,PS1,4,+Vout*%
%TO.N,/5V*%
X125887500Y-77867500D03*
%TD*%
D45*
%TO.N,/3V3*%
X158537500Y-113850000D03*
D46*
%TO.N,/TXD*%
X136912500Y-117350000D03*
X136587500Y-100375000D03*
%TO.N,/RXD*%
X138512500Y-100225000D03*
X136162500Y-116075000D03*
D45*
%TO.N,/R2*%
X135087500Y-120475000D03*
X121412500Y-97900000D03*
%TO.N,/LED1*%
X152287500Y-88725000D03*
X144337500Y-81750000D03*
%TO.N,/LED2*%
X143162500Y-89225000D03*
X142112500Y-82275000D03*
%TO.N,/BOOT*%
X148762500Y-72825000D03*
X137987500Y-81800000D03*
%TO.N,/EN*%
X151837500Y-80275000D03*
%TO.N,/IN2*%
X128187500Y-107675000D03*
X136412500Y-108750000D03*
%TO.N,/IN1*%
X129137500Y-109500000D03*
X136712500Y-110275000D03*
%TD*%
D47*
%TO.N,GND*%
X112587500Y-82125000D02*
X114142500Y-83680000D01*
X105512500Y-86100000D02*
X105512500Y-84200000D01*
X87887500Y-86415000D02*
X90702500Y-86415000D01*
X105512500Y-84200000D02*
X107587500Y-82125000D01*
X90702500Y-86415000D02*
X93062500Y-88775000D01*
X93062500Y-88775000D02*
X102837500Y-88775000D01*
X114142500Y-83680000D02*
X114142500Y-85260000D01*
X107587500Y-82125000D02*
X112587500Y-82125000D01*
X102837500Y-88775000D02*
X105512500Y-86100000D01*
%TO.N,/5V*%
X134787500Y-67125000D02*
X134587500Y-67325000D01*
X134587500Y-69125000D02*
X134587500Y-67325000D01*
X138987500Y-67125000D02*
X134787500Y-67125000D01*
X125887500Y-77867500D02*
X125887500Y-72725000D01*
X128012500Y-70600000D02*
X133112500Y-70600000D01*
X125887500Y-72725000D02*
X128012500Y-70600000D01*
X133112500Y-70600000D02*
X134587500Y-69125000D01*
%TO.N,/3V3*%
X156512500Y-115875000D02*
X158537500Y-113850000D01*
X159662500Y-90650000D02*
X159662500Y-80175000D01*
X152617500Y-121120000D02*
X153512500Y-120225000D01*
X158537500Y-113850000D02*
X158587500Y-113800000D01*
X157662500Y-78600000D02*
X148137500Y-78600000D01*
X143975000Y-66137500D02*
X145287500Y-64825000D01*
X158417500Y-91895000D02*
X159662500Y-90650000D01*
X153512500Y-117650000D02*
X155287500Y-115875000D01*
X158137500Y-78650000D02*
X157712500Y-78650000D01*
X149232500Y-121120000D02*
X152617500Y-121120000D01*
X155287500Y-115875000D02*
X156512500Y-115875000D01*
X148137500Y-78600000D02*
X146362500Y-76825000D01*
X143975000Y-73987500D02*
X143975000Y-72825000D01*
X143975000Y-72825000D02*
X143975000Y-66137500D01*
X138987500Y-64825000D02*
X135587500Y-64825000D01*
X145800000Y-76825000D02*
X145800000Y-75812500D01*
X159662500Y-80175000D02*
X158137500Y-78650000D01*
X142662500Y-64825000D02*
X143975000Y-66137500D01*
X157712500Y-78650000D02*
X157662500Y-78600000D01*
X153512500Y-120225000D02*
X153512500Y-117650000D01*
X146362500Y-76825000D02*
X145800000Y-76825000D01*
X138987500Y-64825000D02*
X142662500Y-64825000D01*
X135587500Y-64825000D02*
X134587500Y-63825000D01*
X145800000Y-75812500D02*
X143975000Y-73987500D01*
X155887500Y-91895000D02*
X158417500Y-91895000D01*
%TO.N,Net-(D1-A)*%
X137637500Y-73075000D02*
X134737500Y-73075000D01*
%TO.N,Net-(D4-A)*%
X137887500Y-76825000D02*
X134737500Y-76825000D01*
%TO.N,/TXD*%
X136587500Y-90500000D02*
X136587500Y-100375000D01*
X131732500Y-118580000D02*
X135757500Y-118580000D01*
X135757500Y-118580000D02*
X137037500Y-117300000D01*
X155887500Y-84275000D02*
X142812500Y-84275000D01*
X142812500Y-84275000D02*
X137987500Y-89100000D01*
X137987500Y-89100000D02*
X136587500Y-90500000D01*
%TO.N,/RXD*%
X142122500Y-86815000D02*
X139312500Y-89625000D01*
X131732500Y-117310000D02*
X134852500Y-117310000D01*
X139312500Y-89625000D02*
X138487500Y-90450000D01*
X155887500Y-86815000D02*
X142122500Y-86815000D01*
X138487500Y-90450000D02*
X138512500Y-100225000D01*
X138512500Y-100225000D02*
X138487500Y-100175000D01*
X134852500Y-117310000D02*
X136162500Y-116000000D01*
D48*
%TO.N,/N*%
X96807500Y-72867500D02*
X95680000Y-72867500D01*
X91187500Y-68375000D02*
X89597500Y-68375000D01*
X95680000Y-72867500D02*
X91187500Y-68375000D01*
X89597500Y-68375000D02*
X87887500Y-66665000D01*
D47*
%TO.N,Net-(Q1-B)*%
X118637500Y-103325000D02*
X116362500Y-103325000D01*
X116362500Y-103325000D02*
X115537500Y-104150000D01*
X115537500Y-104150000D02*
X113637500Y-104150000D01*
%TO.N,Net-(Q2-B)*%
X130387500Y-88825000D02*
X130387500Y-84675000D01*
X130387500Y-84675000D02*
X128212500Y-82500000D01*
X116262500Y-82500000D02*
X115387500Y-83375000D01*
X115387500Y-83375000D02*
X115412500Y-83400000D01*
X115412500Y-83400000D02*
X115412500Y-85260000D01*
X128212500Y-82500000D02*
X116262500Y-82500000D01*
%TO.N,Net-(R1-Pad1)*%
X122225000Y-115075000D02*
X122225000Y-112262500D01*
X122225000Y-112262500D02*
X122862500Y-111625000D01*
%TO.N,/R1*%
X130662500Y-119850000D02*
X129187500Y-118375000D01*
X127487500Y-115075000D02*
X124050000Y-115075000D01*
X129187500Y-118375000D02*
X129187500Y-116775000D01*
X129187500Y-116775000D02*
X127487500Y-115075000D01*
X131732500Y-119850000D02*
X130662500Y-119850000D01*
%TO.N,Net-(R2-Pad1)*%
X128112500Y-100375000D02*
X126337500Y-100375000D01*
X126337500Y-100375000D02*
X122800000Y-96837500D01*
X122800000Y-96837500D02*
X122800000Y-93825000D01*
%TO.N,/R2*%
X120975000Y-97462500D02*
X121412500Y-97900000D01*
X135087500Y-120475000D02*
X135137500Y-120475000D01*
X131732500Y-121120000D02*
X134492500Y-121120000D01*
X120975000Y-93825000D02*
X120975000Y-97462500D01*
X135137500Y-120475000D02*
X135062500Y-120550000D01*
X135087500Y-120525000D02*
X135087500Y-120475000D01*
X134492500Y-121120000D02*
X135087500Y-120525000D01*
%TO.N,Net-(R3-Pad2)*%
X125402500Y-104005000D02*
X125402500Y-102040000D01*
X114737500Y-102325000D02*
X113637500Y-102325000D01*
X123912500Y-100550000D02*
X116512500Y-100550000D01*
X116512500Y-100550000D02*
X114737500Y-102325000D01*
X125402500Y-102040000D02*
X123912500Y-100550000D01*
%TO.N,Net-(R4-Pad2)*%
X132212500Y-91195000D02*
X132212500Y-88825000D01*
X130652500Y-92755000D02*
X132212500Y-91195000D01*
%TO.N,/LED1*%
X144337500Y-81750000D02*
X144362500Y-81750000D01*
X149232500Y-105880000D02*
X149232500Y-91730000D01*
X152287500Y-88675000D02*
X152262500Y-88700000D01*
X141862500Y-73450000D02*
X141862500Y-79250000D01*
X144362500Y-81750000D02*
X144312500Y-81700000D01*
X144337500Y-81725000D02*
X144337500Y-81750000D01*
X139462500Y-73075000D02*
X141487500Y-73075000D01*
X152237500Y-88725000D02*
X152287500Y-88725000D01*
X141487500Y-73075000D02*
X141862500Y-73450000D01*
X152287500Y-88725000D02*
X152287500Y-88675000D01*
X149232500Y-91730000D02*
X152237500Y-88725000D01*
X141862500Y-79250000D02*
X144337500Y-81725000D01*
%TO.N,/LED2*%
X144922500Y-104630000D02*
X144922500Y-90985000D01*
X142112500Y-82275000D02*
X142112500Y-82325000D01*
X139712500Y-76825000D02*
X139712500Y-79925000D01*
X142062500Y-82275000D02*
X142112500Y-82275000D01*
X144922500Y-90985000D02*
X143162500Y-89225000D01*
X139712500Y-79925000D02*
X142062500Y-82275000D01*
X142112500Y-82325000D02*
X142037500Y-82250000D01*
%TO.N,/BOOT*%
X133137500Y-101775000D02*
X133137500Y-91775000D01*
X133137500Y-91775000D02*
X137062500Y-87850000D01*
X137987500Y-86925000D02*
X137987500Y-81800000D01*
X131732500Y-103180000D02*
X133137500Y-101775000D01*
X145800000Y-72825000D02*
X148762500Y-72825000D01*
X151637500Y-72825000D02*
X153637500Y-70825000D01*
X131732500Y-105880000D02*
X131732500Y-103180000D01*
X160137500Y-70825000D02*
X153637500Y-70825000D01*
X137987500Y-81800000D02*
X137987500Y-81850000D01*
X137062500Y-87850000D02*
X137987500Y-86925000D01*
X148762500Y-72825000D02*
X151637500Y-72825000D01*
%TO.N,/EN*%
X152212500Y-119075000D02*
X152212500Y-115325000D01*
X149232500Y-119850000D02*
X151437500Y-119850000D01*
X156437500Y-105875000D02*
X153637500Y-103075000D01*
X143975000Y-78187500D02*
X146162500Y-80375000D01*
X151437500Y-119850000D02*
X152212500Y-119075000D01*
X160137500Y-103075000D02*
X153637500Y-103075000D01*
X143975000Y-76825000D02*
X143975000Y-78187500D01*
X151837500Y-80275000D02*
X151787500Y-80375000D01*
X152212500Y-115325000D02*
X156437500Y-111100000D01*
X146162500Y-80375000D02*
X151587500Y-80375000D01*
X151787500Y-80375000D02*
X151687500Y-80375000D01*
X156437500Y-111100000D02*
X156437500Y-105875000D01*
X151587500Y-80375000D02*
X151837500Y-80275000D01*
%TO.N,/IN2*%
X128187500Y-107675000D02*
X128187500Y-107725000D01*
X148257500Y-114770000D02*
X146462500Y-112975000D01*
X112112500Y-106350000D02*
X112812500Y-106350000D01*
X112812500Y-106350000D02*
X114012500Y-107550000D01*
X146462500Y-111950000D02*
X143287500Y-108775000D01*
X105112500Y-99375000D02*
X105112500Y-102950000D01*
X97232500Y-91495000D02*
X105112500Y-99375000D01*
X146462500Y-112975000D02*
X146462500Y-111950000D01*
X143287500Y-108775000D02*
X136412500Y-108750000D01*
X136412500Y-108750000D02*
X136387500Y-108775000D01*
X128187500Y-107725000D02*
X128112500Y-107650000D01*
X105112500Y-102950000D02*
X108512500Y-106350000D01*
X114012500Y-107550000D02*
X128012500Y-107550000D01*
X87887500Y-91495000D02*
X97232500Y-91495000D01*
X108512500Y-106350000D02*
X112112500Y-106350000D01*
X128137500Y-107675000D02*
X128187500Y-107675000D01*
X149232500Y-114770000D02*
X148257500Y-114770000D01*
X128012500Y-107550000D02*
X128137500Y-107675000D01*
%TO.N,/IN1*%
X111637500Y-108075000D02*
X106412500Y-108075000D01*
X136737500Y-110300000D02*
X136712500Y-110275000D01*
X87887500Y-97425000D02*
X87887500Y-96575000D01*
X128862500Y-109225000D02*
X112787500Y-109225000D01*
X145187500Y-112950000D02*
X142537500Y-110300000D01*
X145187500Y-114400000D02*
X145187500Y-112950000D01*
X142537500Y-110300000D02*
X136737500Y-110300000D01*
X129137500Y-109500000D02*
X128862500Y-109225000D01*
X112787500Y-109225000D02*
X111637500Y-108075000D01*
X106412500Y-108075000D02*
X100062500Y-101725000D01*
X92187500Y-101725000D02*
X87887500Y-97425000D01*
X136687500Y-110300000D02*
X136662500Y-110300000D01*
X146827500Y-116040000D02*
X145187500Y-114400000D01*
X149232500Y-116040000D02*
X146827500Y-116040000D01*
X136712500Y-110275000D02*
X136687500Y-110300000D01*
X100062500Y-101725000D02*
X92187500Y-101725000D01*
D48*
%TO.N,/L2*%
X96187500Y-85825000D02*
X96187500Y-81050000D01*
X96187500Y-81050000D02*
X91962500Y-76825000D01*
X91962500Y-76825000D02*
X87887500Y-76825000D01*
%TD*%
D10*
%TO.C,SW1*%
X153637500Y-70825000D03*
X160137500Y-70825000D03*
X153637500Y-75325000D03*
X160137500Y-75325000D03*
%TD*%
D11*
%TO.C,Q1*%
X118637500Y-104595000D03*
D12*
X118637500Y-103325000D03*
X118637500Y-102055000D03*
%TD*%
D61*
%TO.C,D4*%
X132862500Y-76825000D03*
X134737500Y-76825000D03*
%TD*%
D62*
%TO.C,R7*%
X145800000Y-72825000D03*
X143975000Y-72825000D03*
%TD*%
D13*
%TO.C,H1*%
X155794391Y-62506891D03*
X156387500Y-61075000D03*
X156387500Y-63938782D03*
X157819391Y-60481891D03*
D14*
X157819391Y-62506891D03*
D13*
X157819391Y-64531891D03*
X159251282Y-61075000D03*
X159251282Y-63938782D03*
X159844391Y-62506891D03*
%TD*%
D15*
%TO.C,D3*%
X116987500Y-98560000D03*
D16*
X116987500Y-90940000D03*
%TD*%
D62*
%TO.C,R6*%
X139712500Y-76825000D03*
X137887500Y-76825000D03*
%TD*%
D17*
%TO.C,K1*%
X96637500Y-125075000D03*
X94097500Y-107275000D03*
D18*
X109297500Y-121275000D03*
D10*
X109297500Y-111075000D03*
%TD*%
D13*
%TO.C,H4*%
X123387500Y-120075000D03*
X123980609Y-118643109D03*
X123980609Y-121506891D03*
X125412500Y-118050000D03*
D14*
X125412500Y-120075000D03*
D13*
X125412500Y-122100000D03*
X126844391Y-118643109D03*
X126844391Y-121506891D03*
X127437500Y-120075000D03*
%TD*%
D63*
%TO.C,R1*%
X122225000Y-115075000D03*
X124050000Y-115075000D03*
%TD*%
D64*
%TO.C,U1*%
X149232500Y-122390000D03*
X149232500Y-121120000D03*
X149232500Y-119850000D03*
X149232500Y-118580000D03*
X149232500Y-117310000D03*
X149232500Y-116040000D03*
X149232500Y-114770000D03*
X149232500Y-113500000D03*
X149232500Y-112230000D03*
X149232500Y-110960000D03*
X149232500Y-109690000D03*
X149232500Y-108420000D03*
X149232500Y-107150000D03*
X149232500Y-105880000D03*
D65*
X146192500Y-104630000D03*
X144922500Y-104630000D03*
X143652500Y-104630000D03*
X142382500Y-104630000D03*
X141112500Y-104630000D03*
X139842500Y-104630000D03*
X138572500Y-104630000D03*
X137302500Y-104630000D03*
X136032500Y-104630000D03*
X134762500Y-104630000D03*
D64*
X131732500Y-105880000D03*
X131732500Y-107150000D03*
X131732500Y-108420000D03*
X131732500Y-109690000D03*
X131732500Y-110960000D03*
X131732500Y-112230000D03*
X131732500Y-113500000D03*
X131732500Y-114770000D03*
X131732500Y-116040000D03*
X131732500Y-117310000D03*
X131732500Y-118580000D03*
X131732500Y-119850000D03*
X131732500Y-121120000D03*
X131732500Y-122390000D03*
D66*
X142687500Y-115812500D03*
X142687500Y-114287500D03*
X141925000Y-116575000D03*
X141925000Y-115050000D03*
X141925000Y-113525000D03*
X141162500Y-115812500D03*
D67*
X141162500Y-115050000D03*
D66*
X141162500Y-114287500D03*
X140400000Y-116575000D03*
X140400000Y-115050000D03*
X140400000Y-113525000D03*
X139637500Y-115812500D03*
X139637500Y-114287500D03*
%TD*%
D68*
%TO.C,C1*%
X134587500Y-67325000D03*
X132687500Y-67325000D03*
%TD*%
D15*
%TO.C,D2*%
X119387500Y-119635000D03*
D16*
X119387500Y-112015000D03*
%TD*%
D61*
%TO.C,D1*%
X132862500Y-73075000D03*
X134737500Y-73075000D03*
%TD*%
D63*
%TO.C,R8*%
X143975000Y-76825000D03*
X145800000Y-76825000D03*
%TD*%
D13*
%TO.C,H3*%
X122794391Y-87506891D03*
X123387500Y-86075000D03*
X123387500Y-88938782D03*
X124819391Y-85481891D03*
D14*
X124819391Y-87506891D03*
D13*
X124819391Y-89531891D03*
X126251282Y-86075000D03*
X126251282Y-88938782D03*
X126844391Y-87506891D03*
%TD*%
D19*
%TO.C,Q2*%
X114142500Y-85260000D03*
D20*
X115412500Y-85260000D03*
X116682500Y-85260000D03*
%TD*%
D15*
%TO.C,U3*%
X128112500Y-100375000D03*
D16*
X130652500Y-100375000D03*
X130652500Y-92755000D03*
X128112500Y-92755000D03*
%TD*%
D62*
%TO.C,R5*%
X139462500Y-73075000D03*
X137637500Y-73075000D03*
%TD*%
D21*
%TO.C,J2*%
X87887500Y-76825000D03*
D17*
X87887500Y-71745000D03*
X87887500Y-66665000D03*
X87887500Y-61585000D03*
%TD*%
D63*
%TO.C,R4*%
X130387500Y-88825000D03*
X132212500Y-88825000D03*
%TD*%
D10*
%TO.C,SW2*%
X153637500Y-103075000D03*
X160137500Y-103075000D03*
X153637500Y-107575000D03*
X160137500Y-107575000D03*
%TD*%
D62*
%TO.C,R2*%
X122800000Y-93825000D03*
X120975000Y-93825000D03*
%TD*%
D68*
%TO.C,C2*%
X134587500Y-63825000D03*
X132687500Y-63825000D03*
%TD*%
D69*
%TO.C,U4*%
X138987500Y-62525000D03*
X138987500Y-64825000D03*
D70*
X145287500Y-64825000D03*
D69*
X138987500Y-67125000D03*
%TD*%
D71*
%TO.C,R3*%
X113637500Y-104150000D03*
X113637500Y-102325000D03*
%TD*%
D13*
%TO.C,H2*%
X155794391Y-120075000D03*
X156387500Y-118643109D03*
X156387500Y-121506891D03*
X157819391Y-118050000D03*
D14*
X157819391Y-120075000D03*
D13*
X157819391Y-122100000D03*
X159251282Y-118643109D03*
X159251282Y-121506891D03*
X159844391Y-120075000D03*
%TD*%
D22*
%TO.C,K2*%
X108387500Y-97825000D03*
X108387500Y-85825000D03*
X110387500Y-91825000D03*
X96187500Y-97825000D03*
X96187500Y-85825000D03*
%TD*%
D21*
%TO.C,J3*%
X87887500Y-96575000D03*
D17*
X87887500Y-91495000D03*
X87887500Y-86415000D03*
%TD*%
D23*
%TO.C,J1*%
X155887500Y-84275000D03*
D24*
X155887500Y-86815000D03*
X155887500Y-89355000D03*
X155887500Y-91895000D03*
%TD*%
D15*
%TO.C,U2*%
X122862500Y-111625000D03*
D16*
X125402500Y-111625000D03*
X125402500Y-104005000D03*
X122862500Y-104005000D03*
%TD*%
D25*
%TO.C,PS1*%
X96807500Y-67867500D03*
D26*
X96807500Y-72867500D03*
X125887500Y-62867500D03*
X125887500Y-77867500D03*
%TD*%
D61*
%TO.C,D4*%
X132862500Y-76825000D03*
X134737500Y-76825000D03*
%TD*%
D62*
%TO.C,R7*%
X145800000Y-72825000D03*
X143975000Y-72825000D03*
%TD*%
%TO.C,R6*%
X139712500Y-76825000D03*
X137887500Y-76825000D03*
%TD*%
D63*
%TO.C,R1*%
X122225000Y-115075000D03*
X124050000Y-115075000D03*
%TD*%
D64*
%TO.C,U1*%
X149232500Y-122390000D03*
X149232500Y-121120000D03*
X149232500Y-119850000D03*
X149232500Y-118580000D03*
X149232500Y-117310000D03*
X149232500Y-116040000D03*
X149232500Y-114770000D03*
X149232500Y-113500000D03*
X149232500Y-112230000D03*
X149232500Y-110960000D03*
X149232500Y-109690000D03*
X149232500Y-108420000D03*
X149232500Y-107150000D03*
X149232500Y-105880000D03*
D65*
X146192500Y-104630000D03*
X144922500Y-104630000D03*
X143652500Y-104630000D03*
X142382500Y-104630000D03*
X141112500Y-104630000D03*
X139842500Y-104630000D03*
X138572500Y-104630000D03*
X137302500Y-104630000D03*
X136032500Y-104630000D03*
X134762500Y-104630000D03*
D64*
X131732500Y-105880000D03*
X131732500Y-107150000D03*
X131732500Y-108420000D03*
X131732500Y-109690000D03*
X131732500Y-110960000D03*
X131732500Y-112230000D03*
X131732500Y-113500000D03*
X131732500Y-114770000D03*
X131732500Y-116040000D03*
X131732500Y-117310000D03*
X131732500Y-118580000D03*
X131732500Y-119850000D03*
X131732500Y-121120000D03*
X131732500Y-122390000D03*
D72*
X142687500Y-116575000D03*
X142687500Y-115050000D03*
X142687500Y-113525000D03*
X141162500Y-116575000D03*
X141162500Y-115050000D03*
X141162500Y-113525000D03*
X139637500Y-116575000D03*
X139637500Y-115050000D03*
X139637500Y-113525000D03*
%TD*%
D68*
%TO.C,C1*%
X134587500Y-67325000D03*
X132687500Y-67325000D03*
%TD*%
D61*
%TO.C,D1*%
X132862500Y-73075000D03*
X134737500Y-73075000D03*
%TD*%
D63*
%TO.C,R8*%
X143975000Y-76825000D03*
X145800000Y-76825000D03*
%TD*%
D62*
%TO.C,R5*%
X139462500Y-73075000D03*
X137637500Y-73075000D03*
%TD*%
D63*
%TO.C,R4*%
X130387500Y-88825000D03*
X132212500Y-88825000D03*
%TD*%
D62*
%TO.C,R2*%
X122800000Y-93825000D03*
X120975000Y-93825000D03*
%TD*%
D68*
%TO.C,C2*%
X134587500Y-63825000D03*
X132687500Y-63825000D03*
%TD*%
D69*
%TO.C,U4*%
X138987500Y-62525000D03*
X138987500Y-64825000D03*
D70*
X145287500Y-64825000D03*
D69*
X138987500Y-67125000D03*
%TD*%
D71*
%TO.C,R3*%
X113637500Y-104150000D03*
X113637500Y-102325000D03*
%TD*%
D49*
X158436935Y-91117219D02*
X159055982Y-91117219D01*
X159055982Y-91117219D02*
X158722649Y-91498171D01*
X158722649Y-91498171D02*
X158865506Y-91498171D01*
X158865506Y-91498171D02*
X158960744Y-91545790D01*
X158960744Y-91545790D02*
X159008363Y-91593409D01*
X159008363Y-91593409D02*
X159055982Y-91688647D01*
X159055982Y-91688647D02*
X159055982Y-91926742D01*
X159055982Y-91926742D02*
X159008363Y-92021980D01*
X159008363Y-92021980D02*
X158960744Y-92069600D01*
X158960744Y-92069600D02*
X158865506Y-92117219D01*
X158865506Y-92117219D02*
X158579792Y-92117219D01*
X158579792Y-92117219D02*
X158484554Y-92069600D01*
X158484554Y-92069600D02*
X158436935Y-92021980D01*
X159341697Y-91117219D02*
X159675030Y-92117219D01*
X159675030Y-92117219D02*
X160008363Y-91117219D01*
X160246459Y-91117219D02*
X160865506Y-91117219D01*
X160865506Y-91117219D02*
X160532173Y-91498171D01*
X160532173Y-91498171D02*
X160675030Y-91498171D01*
X160675030Y-91498171D02*
X160770268Y-91545790D01*
X160770268Y-91545790D02*
X160817887Y-91593409D01*
X160817887Y-91593409D02*
X160865506Y-91688647D01*
X160865506Y-91688647D02*
X160865506Y-91926742D01*
X160865506Y-91926742D02*
X160817887Y-92021980D01*
X160817887Y-92021980D02*
X160770268Y-92069600D01*
X160770268Y-92069600D02*
X160675030Y-92117219D01*
X160675030Y-92117219D02*
X160389316Y-92117219D01*
X160389316Y-92117219D02*
X160294078Y-92069600D01*
X160294078Y-92069600D02*
X160246459Y-92021980D01*
X159055982Y-88764838D02*
X158960744Y-88717219D01*
X158960744Y-88717219D02*
X158817887Y-88717219D01*
X158817887Y-88717219D02*
X158675030Y-88764838D01*
X158675030Y-88764838D02*
X158579792Y-88860076D01*
X158579792Y-88860076D02*
X158532173Y-88955314D01*
X158532173Y-88955314D02*
X158484554Y-89145790D01*
X158484554Y-89145790D02*
X158484554Y-89288647D01*
X158484554Y-89288647D02*
X158532173Y-89479123D01*
X158532173Y-89479123D02*
X158579792Y-89574361D01*
X158579792Y-89574361D02*
X158675030Y-89669600D01*
X158675030Y-89669600D02*
X158817887Y-89717219D01*
X158817887Y-89717219D02*
X158913125Y-89717219D01*
X158913125Y-89717219D02*
X159055982Y-89669600D01*
X159055982Y-89669600D02*
X159103601Y-89621980D01*
X159103601Y-89621980D02*
X159103601Y-89288647D01*
X159103601Y-89288647D02*
X158913125Y-89288647D01*
X159532173Y-89717219D02*
X159532173Y-88717219D01*
X159532173Y-88717219D02*
X160103601Y-89717219D01*
X160103601Y-89717219D02*
X160103601Y-88717219D01*
X160579792Y-89717219D02*
X160579792Y-88717219D01*
X160579792Y-88717219D02*
X160817887Y-88717219D01*
X160817887Y-88717219D02*
X160960744Y-88764838D01*
X160960744Y-88764838D02*
X161055982Y-88860076D01*
X161055982Y-88860076D02*
X161103601Y-88955314D01*
X161103601Y-88955314D02*
X161151220Y-89145790D01*
X161151220Y-89145790D02*
X161151220Y-89288647D01*
X161151220Y-89288647D02*
X161103601Y-89479123D01*
X161103601Y-89479123D02*
X161055982Y-89574361D01*
X161055982Y-89574361D02*
X160960744Y-89669600D01*
X160960744Y-89669600D02*
X160817887Y-89717219D01*
X160817887Y-89717219D02*
X160579792Y-89717219D01*
X155365506Y-78143409D02*
X155508363Y-78191028D01*
X155508363Y-78191028D02*
X155555982Y-78238647D01*
X155555982Y-78238647D02*
X155603601Y-78333885D01*
X155603601Y-78333885D02*
X155603601Y-78476742D01*
X155603601Y-78476742D02*
X155555982Y-78571980D01*
X155555982Y-78571980D02*
X155508363Y-78619600D01*
X155508363Y-78619600D02*
X155413125Y-78667219D01*
X155413125Y-78667219D02*
X155032173Y-78667219D01*
X155032173Y-78667219D02*
X155032173Y-77667219D01*
X155032173Y-77667219D02*
X155365506Y-77667219D01*
X155365506Y-77667219D02*
X155460744Y-77714838D01*
X155460744Y-77714838D02*
X155508363Y-77762457D01*
X155508363Y-77762457D02*
X155555982Y-77857695D01*
X155555982Y-77857695D02*
X155555982Y-77952933D01*
X155555982Y-77952933D02*
X155508363Y-78048171D01*
X155508363Y-78048171D02*
X155460744Y-78095790D01*
X155460744Y-78095790D02*
X155365506Y-78143409D01*
X155365506Y-78143409D02*
X155032173Y-78143409D01*
X156222649Y-77667219D02*
X156413125Y-77667219D01*
X156413125Y-77667219D02*
X156508363Y-77714838D01*
X156508363Y-77714838D02*
X156603601Y-77810076D01*
X156603601Y-77810076D02*
X156651220Y-78000552D01*
X156651220Y-78000552D02*
X156651220Y-78333885D01*
X156651220Y-78333885D02*
X156603601Y-78524361D01*
X156603601Y-78524361D02*
X156508363Y-78619600D01*
X156508363Y-78619600D02*
X156413125Y-78667219D01*
X156413125Y-78667219D02*
X156222649Y-78667219D01*
X156222649Y-78667219D02*
X156127411Y-78619600D01*
X156127411Y-78619600D02*
X156032173Y-78524361D01*
X156032173Y-78524361D02*
X155984554Y-78333885D01*
X155984554Y-78333885D02*
X155984554Y-78000552D01*
X155984554Y-78000552D02*
X156032173Y-77810076D01*
X156032173Y-77810076D02*
X156127411Y-77714838D01*
X156127411Y-77714838D02*
X156222649Y-77667219D01*
X157270268Y-77667219D02*
X157460744Y-77667219D01*
X157460744Y-77667219D02*
X157555982Y-77714838D01*
X157555982Y-77714838D02*
X157651220Y-77810076D01*
X157651220Y-77810076D02*
X157698839Y-78000552D01*
X157698839Y-78000552D02*
X157698839Y-78333885D01*
X157698839Y-78333885D02*
X157651220Y-78524361D01*
X157651220Y-78524361D02*
X157555982Y-78619600D01*
X157555982Y-78619600D02*
X157460744Y-78667219D01*
X157460744Y-78667219D02*
X157270268Y-78667219D01*
X157270268Y-78667219D02*
X157175030Y-78619600D01*
X157175030Y-78619600D02*
X157079792Y-78524361D01*
X157079792Y-78524361D02*
X157032173Y-78333885D01*
X157032173Y-78333885D02*
X157032173Y-78000552D01*
X157032173Y-78000552D02*
X157079792Y-77810076D01*
X157079792Y-77810076D02*
X157175030Y-77714838D01*
X157175030Y-77714838D02*
X157270268Y-77667219D01*
X157984554Y-77667219D02*
X158555982Y-77667219D01*
X158270268Y-78667219D02*
X158270268Y-77667219D01*
X155878601Y-110792219D02*
X155545268Y-110316028D01*
X155307173Y-110792219D02*
X155307173Y-109792219D01*
X155307173Y-109792219D02*
X155688125Y-109792219D01*
X155688125Y-109792219D02*
X155783363Y-109839838D01*
X155783363Y-109839838D02*
X155830982Y-109887457D01*
X155830982Y-109887457D02*
X155878601Y-109982695D01*
X155878601Y-109982695D02*
X155878601Y-110125552D01*
X155878601Y-110125552D02*
X155830982Y-110220790D01*
X155830982Y-110220790D02*
X155783363Y-110268409D01*
X155783363Y-110268409D02*
X155688125Y-110316028D01*
X155688125Y-110316028D02*
X155307173Y-110316028D01*
X156307173Y-110268409D02*
X156640506Y-110268409D01*
X156783363Y-110792219D02*
X156307173Y-110792219D01*
X156307173Y-110792219D02*
X156307173Y-109792219D01*
X156307173Y-109792219D02*
X156783363Y-109792219D01*
X157164316Y-110744600D02*
X157307173Y-110792219D01*
X157307173Y-110792219D02*
X157545268Y-110792219D01*
X157545268Y-110792219D02*
X157640506Y-110744600D01*
X157640506Y-110744600D02*
X157688125Y-110696980D01*
X157688125Y-110696980D02*
X157735744Y-110601742D01*
X157735744Y-110601742D02*
X157735744Y-110506504D01*
X157735744Y-110506504D02*
X157688125Y-110411266D01*
X157688125Y-110411266D02*
X157640506Y-110363647D01*
X157640506Y-110363647D02*
X157545268Y-110316028D01*
X157545268Y-110316028D02*
X157354792Y-110268409D01*
X157354792Y-110268409D02*
X157259554Y-110220790D01*
X157259554Y-110220790D02*
X157211935Y-110173171D01*
X157211935Y-110173171D02*
X157164316Y-110077933D01*
X157164316Y-110077933D02*
X157164316Y-109982695D01*
X157164316Y-109982695D02*
X157211935Y-109887457D01*
X157211935Y-109887457D02*
X157259554Y-109839838D01*
X157259554Y-109839838D02*
X157354792Y-109792219D01*
X157354792Y-109792219D02*
X157592887Y-109792219D01*
X157592887Y-109792219D02*
X157735744Y-109839838D01*
X158164316Y-110268409D02*
X158497649Y-110268409D01*
X158640506Y-110792219D02*
X158164316Y-110792219D01*
X158164316Y-110792219D02*
X158164316Y-109792219D01*
X158164316Y-109792219D02*
X158640506Y-109792219D01*
X158926221Y-109792219D02*
X159497649Y-109792219D01*
X159211935Y-110792219D02*
X159211935Y-109792219D01*
G36*
X134271458Y-60406796D02*
G01*
X134224042Y-60430504D01*
X133961731Y-60430504D01*
X133888850Y-60394064D01*
X133852411Y-60321183D01*
X133852411Y-60244586D01*
X133888850Y-60171706D01*
X133961733Y-60135266D01*
X134247649Y-60135266D01*
X134267158Y-60133345D01*
X134270478Y-60131969D01*
X134271458Y-60131900D01*
X134271458Y-60406796D01*
G37*
G36*
X139140791Y-59807927D02*
G01*
X139179747Y-59846883D01*
X139223838Y-59935064D01*
X139223838Y-60259277D01*
X139179747Y-60347458D01*
X139140791Y-60386414D01*
X139052612Y-60430504D01*
X138914111Y-60430504D01*
X138825931Y-60386414D01*
X138786975Y-60347458D01*
X138742886Y-60259278D01*
X138742886Y-59935063D01*
X138786975Y-59846883D01*
X138825931Y-59807927D01*
X138914111Y-59763838D01*
X139052612Y-59763838D01*
X139140791Y-59807927D01*
G37*
G36*
X142035015Y-59800277D02*
G01*
X142071456Y-59873159D01*
X142071456Y-59891380D01*
X141652409Y-59975190D01*
X141652409Y-59873158D01*
X141688848Y-59800277D01*
X141761729Y-59763838D01*
X141962135Y-59763838D01*
X142035015Y-59800277D01*
G37*
G36*
X144176218Y-60406796D02*
G01*
X144128802Y-60430504D01*
X143866491Y-60430504D01*
X143793610Y-60394064D01*
X143757171Y-60321183D01*
X143757171Y-60244586D01*
X143793610Y-60171706D01*
X143866493Y-60135266D01*
X144152409Y-60135266D01*
X144171918Y-60133345D01*
X144175238Y-60131969D01*
X144176218Y-60131900D01*
X144176218Y-60406796D01*
G37*
G36*
X147250313Y-59807927D02*
G01*
X147289269Y-59846883D01*
X147333360Y-59935064D01*
X147333360Y-60259277D01*
X147289269Y-60347458D01*
X147250313Y-60386414D01*
X147162134Y-60430504D01*
X147023633Y-60430504D01*
X146935453Y-60386414D01*
X146896497Y-60347458D01*
X146852408Y-60259278D01*
X146852408Y-59935063D01*
X146896497Y-59846883D01*
X146935453Y-59807927D01*
X147023633Y-59763838D01*
X147162134Y-59763838D01*
X147250313Y-59807927D01*
G37*
G36*
X150180978Y-60406796D02*
G01*
X150133562Y-60430504D01*
X149871251Y-60430504D01*
X149798370Y-60394064D01*
X149761931Y-60321183D01*
X149761931Y-60244586D01*
X149798370Y-60171706D01*
X149871253Y-60135266D01*
X150157169Y-60135266D01*
X150176678Y-60133345D01*
X150179998Y-60131969D01*
X150180978Y-60131900D01*
X150180978Y-60406796D01*
G37*
G36*
X152697931Y-59807927D02*
G01*
X152736887Y-59846883D01*
X152780978Y-59935064D01*
X152780978Y-60259277D01*
X152736887Y-60347458D01*
X152697931Y-60386414D01*
X152609752Y-60430504D01*
X152471251Y-60430504D01*
X152383071Y-60386414D01*
X152344115Y-60347458D01*
X152300026Y-60259278D01*
X152300026Y-59935063D01*
X152344115Y-59846883D01*
X152383071Y-59807927D01*
X152471251Y-59763838D01*
X152609752Y-59763838D01*
X152697931Y-59807927D01*
G37*
G36*
X154239707Y-60774948D02*
G01*
X130722253Y-60774948D01*
X130722253Y-59849552D01*
X130866697Y-59849552D01*
X130866697Y-59911457D01*
X130868618Y-59930966D01*
X130869993Y-59934286D01*
X130870248Y-59937870D01*
X130877254Y-59956178D01*
X130939158Y-60079987D01*
X130941211Y-60083250D01*
X130941725Y-60084789D01*
X130943387Y-60086705D01*
X130949601Y-60096577D01*
X130959072Y-60104791D01*
X130967289Y-60114266D01*
X130977159Y-60120478D01*
X130979077Y-60122142D01*
X130980617Y-60122655D01*
X130983880Y-60124709D01*
X131107690Y-60186614D01*
X131125998Y-60193620D01*
X131129581Y-60193874D01*
X131132902Y-60195250D01*
X131152411Y-60197171D01*
X131314518Y-60197171D01*
X131387399Y-60233611D01*
X131423839Y-60306491D01*
X131423839Y-60321184D01*
X131387399Y-60394064D01*
X131314518Y-60430504D01*
X131114113Y-60430504D01*
X131011418Y-60379157D01*
X130993110Y-60372151D01*
X130954189Y-60369385D01*
X130917174Y-60381724D01*
X130887697Y-60407289D01*
X130870248Y-60442187D01*
X130867482Y-60481108D01*
X130879821Y-60518123D01*
X130905386Y-60547600D01*
X130921976Y-60558043D01*
X131045785Y-60619947D01*
X131064093Y-60626953D01*
X131067676Y-60627207D01*
X131070997Y-60628583D01*
X131090506Y-60630504D01*
X131338125Y-60630504D01*
X131357634Y-60628583D01*
X131360954Y-60627207D01*
X131364537Y-60626953D01*
X131382846Y-60619947D01*
X131506655Y-60558043D01*
X131509916Y-60555990D01*
X131511459Y-60555476D01*
X131513379Y-60553810D01*
X131523246Y-60547600D01*
X131531462Y-60538127D01*
X131540935Y-60529911D01*
X131547146Y-60520042D01*
X131548811Y-60518124D01*
X131549324Y-60516583D01*
X131551378Y-60513321D01*
X131613282Y-60389511D01*
X131620288Y-60371203D01*
X131620542Y-60367619D01*
X131621918Y-60364299D01*
X131623839Y-60344790D01*
X131623839Y-60282885D01*
X131621918Y-60263376D01*
X131620542Y-60260055D01*
X131620288Y-60256472D01*
X131613282Y-60238164D01*
X131551378Y-60114355D01*
X131549324Y-60111091D01*
X131548811Y-60109553D01*
X131547148Y-60107636D01*
X131540935Y-60097765D01*
X131531464Y-60089551D01*
X131523247Y-60080076D01*
X131513371Y-60073859D01*
X131511458Y-60072200D01*
X131509921Y-60071687D01*
X131506657Y-60069633D01*
X131382846Y-60007728D01*
X131364538Y-60000722D01*
X131360954Y-60000467D01*
X131357634Y-59999092D01*
X131338125Y-59997171D01*
X131176019Y-59997171D01*
X131103136Y-59960730D01*
X131066697Y-59887850D01*
X131066697Y-59873158D01*
X131103136Y-59800277D01*
X131176017Y-59763838D01*
X131314518Y-59763838D01*
X131417214Y-59815185D01*
X131435522Y-59822191D01*
X131474443Y-59824957D01*
X131511458Y-59812618D01*
X131540935Y-59787053D01*
X131558384Y-59752154D01*
X131561149Y-59713234D01*
X131548811Y-59676218D01*
X131538074Y-59663838D01*
X131980982Y-59663838D01*
X131980982Y-60530504D01*
X131982903Y-60550013D01*
X131997835Y-60586061D01*
X132025425Y-60613651D01*
X132061473Y-60628583D01*
X132100491Y-60628583D01*
X132136539Y-60613651D01*
X132164129Y-60586061D01*
X132179061Y-60550013D01*
X132180982Y-60530504D01*
X132180982Y-59829069D01*
X132202123Y-59807927D01*
X132290303Y-59763838D01*
X132428804Y-59763838D01*
X132501684Y-59800277D01*
X132538125Y-59873159D01*
X132538125Y-60530504D01*
X132540046Y-60550013D01*
X132554978Y-60586061D01*
X132582568Y-60613651D01*
X132618616Y-60628583D01*
X132657634Y-60628583D01*
X132693682Y-60613651D01*
X132721272Y-60586061D01*
X132736204Y-60550013D01*
X132738125Y-60530504D01*
X132738125Y-59873159D01*
X132774565Y-59800277D01*
X132847446Y-59763838D01*
X132985947Y-59763838D01*
X133058827Y-59800277D01*
X133095268Y-59873159D01*
X133095268Y-60530504D01*
X133097189Y-60550013D01*
X133112121Y-60586061D01*
X133139711Y-60613651D01*
X133175759Y-60628583D01*
X133214777Y-60628583D01*
X133250825Y-60613651D01*
X133278415Y-60586061D01*
X133293347Y-60550013D01*
X133295268Y-60530504D01*
X133295268Y-60220980D01*
X133652411Y-60220980D01*
X133652411Y-60344790D01*
X133654332Y-60364299D01*
X133655707Y-60367619D01*
X133655962Y-60371202D01*
X133662968Y-60389511D01*
X133724872Y-60513320D01*
X133726924Y-60516581D01*
X133727439Y-60518124D01*
X133729104Y-60520044D01*
X133735315Y-60529911D01*
X133744787Y-60538127D01*
X133753004Y-60547600D01*
X133762872Y-60553811D01*
X133764791Y-60555476D01*
X133766331Y-60555989D01*
X133769594Y-60558043D01*
X133893404Y-60619947D01*
X133911712Y-60626953D01*
X133915295Y-60627207D01*
X133918616Y-60628583D01*
X133938125Y-60630504D01*
X134247649Y-60630504D01*
X134267158Y-60628583D01*
X134270478Y-60627207D01*
X134274062Y-60626953D01*
X134292370Y-60619947D01*
X134312254Y-60610004D01*
X134315901Y-60613651D01*
X134351949Y-60628583D01*
X134390967Y-60628583D01*
X134427015Y-60613651D01*
X134454605Y-60586061D01*
X134469537Y-60550013D01*
X134471458Y-60530504D01*
X134471458Y-59849552D01*
X134469537Y-59830043D01*
X134468161Y-59826722D01*
X134467907Y-59823139D01*
X134460901Y-59804831D01*
X134398996Y-59681021D01*
X134396942Y-59677758D01*
X134396429Y-59676218D01*
X134394765Y-59674300D01*
X134388553Y-59664430D01*
X134387870Y-59663838D01*
X134890505Y-59663838D01*
X134890505Y-60530504D01*
X134892426Y-60550013D01*
X134907358Y-60586061D01*
X134934948Y-60613651D01*
X134970996Y-60628583D01*
X135010014Y-60628583D01*
X135046062Y-60613651D01*
X135073652Y-60586061D01*
X135088584Y-60550013D01*
X135090505Y-60530504D01*
X135090505Y-59935064D01*
X135134595Y-59846884D01*
X135173551Y-59807927D01*
X135261731Y-59763838D01*
X135361934Y-59763838D01*
X135381443Y-59761917D01*
X135417491Y-59746985D01*
X135445081Y-59719395D01*
X135460013Y-59683347D01*
X135460013Y-59644329D01*
X135511474Y-59644329D01*
X135511474Y-59683347D01*
X135526406Y-59719395D01*
X135553996Y-59746985D01*
X135590044Y-59761917D01*
X135609553Y-59763838D01*
X135695267Y-59763838D01*
X135695267Y-60344790D01*
X135697188Y-60364299D01*
X135698563Y-60367619D01*
X135698818Y-60371203D01*
X135705824Y-60389511D01*
X135767729Y-60513322D01*
X135769782Y-60516585D01*
X135770296Y-60518124D01*
X135771957Y-60520040D01*
X135778172Y-60529912D01*
X135787646Y-60538128D01*
X135795861Y-60547600D01*
X135805732Y-60553813D01*
X135807649Y-60555476D01*
X135809187Y-60555989D01*
X135812451Y-60558043D01*
X135936261Y-60619947D01*
X135954569Y-60626953D01*
X135958152Y-60627207D01*
X135961473Y-60628583D01*
X135980982Y-60630504D01*
X136104791Y-60630504D01*
X136124300Y-60628583D01*
X136160348Y-60613651D01*
X136187938Y-60586061D01*
X136202870Y-60550013D01*
X136202870Y-60510995D01*
X136187938Y-60474947D01*
X136160348Y-60447357D01*
X136124300Y-60432425D01*
X136104791Y-60430504D01*
X136004588Y-60430504D01*
X135931707Y-60394064D01*
X135895267Y-60321183D01*
X135895267Y-59763838D01*
X136104791Y-59763838D01*
X136124300Y-59761917D01*
X136160348Y-59746985D01*
X136187938Y-59719395D01*
X136202870Y-59683347D01*
X136202870Y-59644329D01*
X136187938Y-59608281D01*
X136160348Y-59580691D01*
X136124300Y-59565759D01*
X136104791Y-59563838D01*
X135895267Y-59563838D01*
X135895267Y-59230504D01*
X137428600Y-59230504D01*
X137428600Y-60530504D01*
X137430521Y-60550013D01*
X137445453Y-60586061D01*
X137473043Y-60613651D01*
X137509091Y-60628583D01*
X137548109Y-60628583D01*
X137584157Y-60613651D01*
X137611747Y-60586061D01*
X137626679Y-60550013D01*
X137628600Y-60530504D01*
X137628600Y-59829069D01*
X137649741Y-59807927D01*
X137737921Y-59763838D01*
X137876422Y-59763838D01*
X137949302Y-59800277D01*
X137985743Y-59873159D01*
X137985743Y-60530504D01*
X137987664Y-60550013D01*
X138002596Y-60586061D01*
X138030186Y-60613651D01*
X138066234Y-60628583D01*
X138105252Y-60628583D01*
X138141300Y-60613651D01*
X138168890Y-60586061D01*
X138183822Y-60550013D01*
X138185743Y-60530504D01*
X138185743Y-59911457D01*
X138542886Y-59911457D01*
X138542886Y-60282885D01*
X138544807Y-60302394D01*
X138546182Y-60305714D01*
X138546437Y-60309297D01*
X138553443Y-60327606D01*
X138615347Y-60451415D01*
X138620632Y-60459811D01*
X138621643Y-60462252D01*
X138623897Y-60464998D01*
X138625790Y-60468006D01*
X138627784Y-60469736D01*
X138634079Y-60477406D01*
X138695984Y-60539311D01*
X138703653Y-60545605D01*
X138705384Y-60547600D01*
X138708391Y-60549493D01*
X138711138Y-60551747D01*
X138713577Y-60552757D01*
X138721974Y-60558043D01*
X138845784Y-60619947D01*
X138864092Y-60626953D01*
X138867675Y-60627207D01*
X138870996Y-60628583D01*
X138890505Y-60630504D01*
X139076219Y-60630504D01*
X139095728Y-60628583D01*
X139099048Y-60627207D01*
X139102632Y-60626953D01*
X139120940Y-60619947D01*
X139244749Y-60558043D01*
X139253145Y-60552757D01*
X139255585Y-60551747D01*
X139258331Y-60549493D01*
X139261339Y-60547600D01*
X139263069Y-60545605D01*
X139270739Y-60539311D01*
X139332644Y-60477406D01*
X139338935Y-60469739D01*
X139340933Y-60468007D01*
X139342828Y-60464995D01*
X139345080Y-60462252D01*
X139346089Y-60459814D01*
X139351376Y-60451416D01*
X139413281Y-60327606D01*
X139420287Y-60309298D01*
X139420541Y-60305714D01*
X139421917Y-60302394D01*
X139423838Y-60282885D01*
X139423838Y-59911457D01*
X139421917Y-59891948D01*
X139420541Y-59888627D01*
X139420287Y-59885044D01*
X139413281Y-59866736D01*
X139351376Y-59742926D01*
X139346089Y-59734527D01*
X139345080Y-59732090D01*
X139342828Y-59729346D01*
X139340933Y-59726335D01*
X139338935Y-59724602D01*
X139332644Y-59716936D01*
X139279546Y-59663838D01*
X139780980Y-59663838D01*
X139780980Y-60530504D01*
X139782901Y-60550013D01*
X139797833Y-60586061D01*
X139825423Y-60613651D01*
X139861471Y-60628583D01*
X139900489Y-60628583D01*
X139936537Y-60613651D01*
X139964127Y-60586061D01*
X139979059Y-60550013D01*
X139980980Y-60530504D01*
X139980980Y-59829069D01*
X140002121Y-59807927D01*
X140090301Y-59763838D01*
X140228802Y-59763838D01*
X140301682Y-59800277D01*
X140338123Y-59873159D01*
X140338123Y-60530504D01*
X140340044Y-60550013D01*
X140354976Y-60586061D01*
X140382566Y-60613651D01*
X140418614Y-60628583D01*
X140457632Y-60628583D01*
X140493680Y-60613651D01*
X140521270Y-60586061D01*
X140536202Y-60550013D01*
X140538123Y-60530504D01*
X140538123Y-59873159D01*
X140574563Y-59800277D01*
X140647444Y-59763838D01*
X140785945Y-59763838D01*
X140858825Y-59800277D01*
X140895266Y-59873159D01*
X140895266Y-60530504D01*
X140897187Y-60550013D01*
X140912119Y-60586061D01*
X140939709Y-60613651D01*
X140975757Y-60628583D01*
X141014775Y-60628583D01*
X141050823Y-60613651D01*
X141078413Y-60586061D01*
X141093345Y-60550013D01*
X141095266Y-60530504D01*
X141095266Y-59849552D01*
X141452409Y-59849552D01*
X141452409Y-60344790D01*
X141454330Y-60364299D01*
X141455705Y-60367619D01*
X141455960Y-60371202D01*
X141462966Y-60389511D01*
X141524870Y-60513320D01*
X141526922Y-60516581D01*
X141527437Y-60518124D01*
X141529102Y-60520044D01*
X141535313Y-60529911D01*
X141544785Y-60538127D01*
X141553002Y-60547600D01*
X141562870Y-60553811D01*
X141564789Y-60555476D01*
X141566329Y-60555989D01*
X141569592Y-60558043D01*
X141693402Y-60619947D01*
X141711710Y-60626953D01*
X141715293Y-60627207D01*
X141718614Y-60628583D01*
X141738123Y-60630504D01*
X141985742Y-60630504D01*
X142005251Y-60628583D01*
X142008571Y-60627207D01*
X142012155Y-60626953D01*
X142030463Y-60619947D01*
X142154272Y-60558043D01*
X142170862Y-60547600D01*
X142196427Y-60518124D01*
X142208765Y-60481108D01*
X142206000Y-60442188D01*
X142188551Y-60407289D01*
X142159074Y-60381724D01*
X142122058Y-60369385D01*
X142083138Y-60372151D01*
X142064830Y-60379157D01*
X141962135Y-60430504D01*
X141761729Y-60430504D01*
X141688848Y-60394064D01*
X141652409Y-60321183D01*
X141652409Y-60220980D01*
X143557171Y-60220980D01*
X143557171Y-60344790D01*
X143559092Y-60364299D01*
X143560467Y-60367619D01*
X143560722Y-60371202D01*
X143567728Y-60389511D01*
X143629632Y-60513320D01*
X143631684Y-60516581D01*
X143632199Y-60518124D01*
X143633864Y-60520044D01*
X143640075Y-60529911D01*
X143649547Y-60538127D01*
X143657764Y-60547600D01*
X143667632Y-60553811D01*
X143669551Y-60555476D01*
X143671091Y-60555989D01*
X143674354Y-60558043D01*
X143798164Y-60619947D01*
X143816472Y-60626953D01*
X143820055Y-60627207D01*
X143823376Y-60628583D01*
X143842885Y-60630504D01*
X144152409Y-60630504D01*
X144171918Y-60628583D01*
X144175238Y-60627207D01*
X144178822Y-60626953D01*
X144197130Y-60619947D01*
X144217014Y-60610004D01*
X144220661Y-60613651D01*
X144256709Y-60628583D01*
X144295727Y-60628583D01*
X144331775Y-60613651D01*
X144359365Y-60586061D01*
X144374297Y-60550013D01*
X144376218Y-60530504D01*
X144376218Y-59849552D01*
X144374297Y-59830043D01*
X144372921Y-59826722D01*
X144372667Y-59823139D01*
X144365661Y-59804831D01*
X144303756Y-59681021D01*
X144301702Y-59677758D01*
X144301189Y-59676218D01*
X144299525Y-59674300D01*
X144293313Y-59664430D01*
X144292630Y-59663838D01*
X144795265Y-59663838D01*
X144795265Y-60344790D01*
X144797186Y-60364299D01*
X144798561Y-60367619D01*
X144798816Y-60371203D01*
X144805822Y-60389511D01*
X144867727Y-60513322D01*
X144869780Y-60516585D01*
X144870294Y-60518124D01*
X144871955Y-60520040D01*
X144878170Y-60529912D01*
X144887644Y-60538128D01*
X144895859Y-60547600D01*
X144905730Y-60553813D01*
X144907647Y-60555476D01*
X144909185Y-60555989D01*
X144912449Y-60558043D01*
X145036259Y-60619947D01*
X145054567Y-60626953D01*
X145058150Y-60627207D01*
X145061471Y-60628583D01*
X145080980Y-60630504D01*
X145266694Y-60630504D01*
X145286203Y-60628583D01*
X145289523Y-60627207D01*
X145293107Y-60626953D01*
X145311415Y-60619947D01*
X145372569Y-60589369D01*
X145396851Y-60613651D01*
X145432899Y-60628583D01*
X145471917Y-60628583D01*
X145507965Y-60613651D01*
X145535555Y-60586061D01*
X145550487Y-60550013D01*
X145552408Y-60530504D01*
X145552408Y-59663838D01*
X145550487Y-59644329D01*
X145787662Y-59644329D01*
X145787662Y-59683347D01*
X145802594Y-59719395D01*
X145830184Y-59746985D01*
X145866232Y-59761917D01*
X145885741Y-59763838D01*
X145971455Y-59763838D01*
X145971455Y-60344790D01*
X145973376Y-60364299D01*
X145974751Y-60367619D01*
X145975006Y-60371203D01*
X145982012Y-60389511D01*
X146043917Y-60513322D01*
X146045970Y-60516585D01*
X146046484Y-60518124D01*
X146048145Y-60520040D01*
X146054360Y-60529912D01*
X146063834Y-60538128D01*
X146072049Y-60547600D01*
X146081920Y-60553813D01*
X146083837Y-60555476D01*
X146085375Y-60555989D01*
X146088639Y-60558043D01*
X146212449Y-60619947D01*
X146230757Y-60626953D01*
X146234340Y-60627207D01*
X146237661Y-60628583D01*
X146257170Y-60630504D01*
X146380979Y-60630504D01*
X146400488Y-60628583D01*
X146436536Y-60613651D01*
X146464126Y-60586061D01*
X146479058Y-60550013D01*
X146479058Y-60510995D01*
X146464126Y-60474947D01*
X146436536Y-60447357D01*
X146400488Y-60432425D01*
X146380979Y-60430504D01*
X146280776Y-60430504D01*
X146207895Y-60394064D01*
X146171455Y-60321183D01*
X146171455Y-59911457D01*
X146652408Y-59911457D01*
X146652408Y-60282885D01*
X146654329Y-60302394D01*
X146655704Y-60305714D01*
X146655959Y-60309297D01*
X146662965Y-60327606D01*
X146724869Y-60451415D01*
X146730154Y-60459811D01*
X146731165Y-60462252D01*
X146733419Y-60464998D01*
X146735312Y-60468006D01*
X146737306Y-60469736D01*
X146743601Y-60477406D01*
X146805506Y-60539311D01*
X146813175Y-60545605D01*
X146814906Y-60547600D01*
X146817913Y-60549493D01*
X146820660Y-60551747D01*
X146823099Y-60552757D01*
X146831496Y-60558043D01*
X146955306Y-60619947D01*
X146973614Y-60626953D01*
X146977197Y-60627207D01*
X146980518Y-60628583D01*
X147000027Y-60630504D01*
X147185741Y-60630504D01*
X147205250Y-60628583D01*
X147208570Y-60627207D01*
X147212154Y-60626953D01*
X147230462Y-60619947D01*
X147354271Y-60558043D01*
X147362667Y-60552757D01*
X147365107Y-60551747D01*
X147367853Y-60549493D01*
X147370861Y-60547600D01*
X147372591Y-60545605D01*
X147380261Y-60539311D01*
X147442166Y-60477406D01*
X147448457Y-60469739D01*
X147450455Y-60468007D01*
X147452350Y-60464995D01*
X147454602Y-60462252D01*
X147455611Y-60459814D01*
X147460898Y-60451416D01*
X147522803Y-60327606D01*
X147529809Y-60309298D01*
X147530063Y-60305714D01*
X147531439Y-60302394D01*
X147533360Y-60282885D01*
X147533360Y-59911457D01*
X147531439Y-59891948D01*
X147530063Y-59888627D01*
X147529809Y-59885044D01*
X147522803Y-59866736D01*
X147460898Y-59742926D01*
X147455611Y-59734527D01*
X147454602Y-59732090D01*
X147452350Y-59729346D01*
X147450455Y-59726335D01*
X147448457Y-59724602D01*
X147442166Y-59716936D01*
X147389068Y-59663838D01*
X147890502Y-59663838D01*
X147890502Y-60530504D01*
X147892423Y-60550013D01*
X147907355Y-60586061D01*
X147934945Y-60613651D01*
X147970993Y-60628583D01*
X148010011Y-60628583D01*
X148046059Y-60613651D01*
X148073649Y-60586061D01*
X148088581Y-60550013D01*
X148090502Y-60530504D01*
X148090502Y-59829069D01*
X148111643Y-59807927D01*
X148199823Y-59763838D01*
X148338324Y-59763838D01*
X148411204Y-59800277D01*
X148447645Y-59873159D01*
X148447645Y-60530504D01*
X148449566Y-60550013D01*
X148464498Y-60586061D01*
X148492088Y-60613651D01*
X148528136Y-60628583D01*
X148567154Y-60628583D01*
X148603202Y-60613651D01*
X148630792Y-60586061D01*
X148645724Y-60550013D01*
X148647645Y-60530504D01*
X148647645Y-59873159D01*
X148684085Y-59800277D01*
X148756966Y-59763838D01*
X148895467Y-59763838D01*
X148968347Y-59800277D01*
X149004788Y-59873159D01*
X149004788Y-60530504D01*
X149006709Y-60550013D01*
X149021641Y-60586061D01*
X149049231Y-60613651D01*
X149085279Y-60628583D01*
X149124297Y-60628583D01*
X149160345Y-60613651D01*
X149187935Y-60586061D01*
X149202867Y-60550013D01*
X149204788Y-60530504D01*
X149204788Y-60220980D01*
X149561931Y-60220980D01*
X149561931Y-60344790D01*
X149563852Y-60364299D01*
X149565227Y-60367619D01*
X149565482Y-60371202D01*
X149572488Y-60389511D01*
X149634392Y-60513320D01*
X149636444Y-60516581D01*
X149636959Y-60518124D01*
X149638624Y-60520044D01*
X149644835Y-60529911D01*
X149654307Y-60538127D01*
X149662524Y-60547600D01*
X149672392Y-60553811D01*
X149674311Y-60555476D01*
X149675851Y-60555989D01*
X149679114Y-60558043D01*
X149802924Y-60619947D01*
X149821232Y-60626953D01*
X149824815Y-60627207D01*
X149828136Y-60628583D01*
X149847645Y-60630504D01*
X150157169Y-60630504D01*
X150176678Y-60628583D01*
X150179998Y-60627207D01*
X150183582Y-60626953D01*
X150201890Y-60619947D01*
X150221774Y-60610004D01*
X150225421Y-60613651D01*
X150261469Y-60628583D01*
X150300487Y-60628583D01*
X150336535Y-60613651D01*
X150364125Y-60586061D01*
X150379057Y-60550013D01*
X150380978Y-60530504D01*
X150380978Y-59849552D01*
X150379057Y-59830043D01*
X150377681Y-59826722D01*
X150377427Y-59823139D01*
X150370421Y-59804831D01*
X150308516Y-59681021D01*
X150306462Y-59677758D01*
X150305949Y-59676218D01*
X150304285Y-59674300D01*
X150298073Y-59664430D01*
X150288598Y-59656213D01*
X150280384Y-59646742D01*
X150276551Y-59644329D01*
X150616232Y-59644329D01*
X150616232Y-59683347D01*
X150631164Y-59719395D01*
X150658754Y-59746985D01*
X150694802Y-59761917D01*
X150714311Y-59763838D01*
X150800025Y-59763838D01*
X150800025Y-60344790D01*
X150801946Y-60364299D01*
X150803321Y-60367619D01*
X150803576Y-60371203D01*
X150810582Y-60389511D01*
X150872487Y-60513322D01*
X150874540Y-60516585D01*
X150875054Y-60518124D01*
X150876715Y-60520040D01*
X150882930Y-60529912D01*
X150892404Y-60538128D01*
X150900619Y-60547600D01*
X150910490Y-60553813D01*
X150912407Y-60555476D01*
X150913945Y-60555989D01*
X150917209Y-60558043D01*
X151041019Y-60619947D01*
X151059327Y-60626953D01*
X151062910Y-60627207D01*
X151066231Y-60628583D01*
X151085740Y-60630504D01*
X151209549Y-60630504D01*
X151229058Y-60628583D01*
X151265106Y-60613651D01*
X151292696Y-60586061D01*
X151307628Y-60550013D01*
X151307628Y-60510995D01*
X151292696Y-60474947D01*
X151265106Y-60447357D01*
X151229058Y-60432425D01*
X151209549Y-60430504D01*
X151109346Y-60430504D01*
X151036465Y-60394064D01*
X151000025Y-60321183D01*
X151000025Y-59763838D01*
X151209549Y-59763838D01*
X151229058Y-59761917D01*
X151265106Y-59746985D01*
X151292696Y-59719395D01*
X151307628Y-59683347D01*
X151307628Y-59663838D01*
X151542882Y-59663838D01*
X151542882Y-60530504D01*
X151544803Y-60550013D01*
X151559735Y-60586061D01*
X151587325Y-60613651D01*
X151623373Y-60628583D01*
X151662391Y-60628583D01*
X151698439Y-60613651D01*
X151726029Y-60586061D01*
X151740961Y-60550013D01*
X151742882Y-60530504D01*
X151742882Y-59911457D01*
X152100026Y-59911457D01*
X152100026Y-60282885D01*
X152101947Y-60302394D01*
X152103322Y-60305714D01*
X152103577Y-60309297D01*
X152110583Y-60327606D01*
X152172487Y-60451415D01*
X152177772Y-60459811D01*
X152178783Y-60462252D01*
X152181037Y-60464998D01*
X152182930Y-60468006D01*
X152184924Y-60469736D01*
X152191219Y-60477406D01*
X152253124Y-60539311D01*
X152260793Y-60545605D01*
X152262524Y-60547600D01*
X152265531Y-60549493D01*
X152268278Y-60551747D01*
X152270717Y-60552757D01*
X152279114Y-60558043D01*
X152402924Y-60619947D01*
X152421232Y-60626953D01*
X152424815Y-60627207D01*
X152428136Y-60628583D01*
X152447645Y-60630504D01*
X152633359Y-60630504D01*
X152652868Y-60628583D01*
X152656188Y-60627207D01*
X152659772Y-60626953D01*
X152678080Y-60619947D01*
X152801889Y-60558043D01*
X152810285Y-60552757D01*
X152812725Y-60551747D01*
X152815471Y-60549493D01*
X152818479Y-60547600D01*
X152820209Y-60545605D01*
X152827879Y-60539311D01*
X152889784Y-60477406D01*
X152896075Y-60469739D01*
X152898073Y-60468007D01*
X152899968Y-60464995D01*
X152902220Y-60462252D01*
X152903229Y-60459814D01*
X152908516Y-60451416D01*
X152970421Y-60327606D01*
X152977427Y-60309298D01*
X152977681Y-60305714D01*
X152979057Y-60302394D01*
X152980978Y-60282885D01*
X152980978Y-59911457D01*
X152979057Y-59891948D01*
X152977681Y-59888627D01*
X152977427Y-59885044D01*
X152970421Y-59866736D01*
X152908516Y-59742926D01*
X152903229Y-59734527D01*
X152902220Y-59732090D01*
X152899968Y-59729346D01*
X152898073Y-59726335D01*
X152896075Y-59724602D01*
X152889784Y-59716936D01*
X152836686Y-59663838D01*
X153338120Y-59663838D01*
X153338120Y-60530504D01*
X153340041Y-60550013D01*
X153354973Y-60586061D01*
X153382563Y-60613651D01*
X153418611Y-60628583D01*
X153457629Y-60628583D01*
X153493677Y-60613651D01*
X153521267Y-60586061D01*
X153536199Y-60550013D01*
X153538120Y-60530504D01*
X153538120Y-59829069D01*
X153559261Y-59807927D01*
X153647441Y-59763838D01*
X153785942Y-59763838D01*
X153858822Y-59800277D01*
X153895263Y-59873159D01*
X153895263Y-60530504D01*
X153897184Y-60550013D01*
X153912116Y-60586061D01*
X153939706Y-60613651D01*
X153975754Y-60628583D01*
X154014772Y-60628583D01*
X154050820Y-60613651D01*
X154078410Y-60586061D01*
X154093342Y-60550013D01*
X154095263Y-60530504D01*
X154095263Y-59849552D01*
X154093342Y-59830043D01*
X154091966Y-59826722D01*
X154091712Y-59823139D01*
X154084706Y-59804831D01*
X154022801Y-59681021D01*
X154020747Y-59677758D01*
X154020234Y-59676218D01*
X154018570Y-59674300D01*
X154012358Y-59664430D01*
X154002883Y-59656213D01*
X153994669Y-59646742D01*
X153984797Y-59640528D01*
X153982881Y-59638866D01*
X153981342Y-59638352D01*
X153978079Y-59636299D01*
X153854270Y-59574395D01*
X153835962Y-59567389D01*
X153832378Y-59567134D01*
X153829058Y-59565759D01*
X153809549Y-59563838D01*
X153623835Y-59563838D01*
X153604326Y-59565759D01*
X153601005Y-59567134D01*
X153597422Y-59567389D01*
X153579114Y-59574395D01*
X153517958Y-59604972D01*
X153493677Y-59580691D01*
X153457629Y-59565759D01*
X153418611Y-59565759D01*
X153382563Y-59580691D01*
X153354973Y-59608281D01*
X153340041Y-59644329D01*
X153338120Y-59663838D01*
X152836686Y-59663838D01*
X152827879Y-59655031D01*
X152820209Y-59648736D01*
X152818479Y-59646742D01*
X152815471Y-59644848D01*
X152812725Y-59642595D01*
X152810285Y-59641584D01*
X152801889Y-59636299D01*
X152678080Y-59574395D01*
X152659772Y-59567389D01*
X152656188Y-59567134D01*
X152652868Y-59565759D01*
X152633359Y-59563838D01*
X152447645Y-59563838D01*
X152428136Y-59565759D01*
X152424815Y-59567134D01*
X152421232Y-59567389D01*
X152402924Y-59574395D01*
X152279114Y-59636299D01*
X152270717Y-59641584D01*
X152268278Y-59642595D01*
X152265531Y-59644848D01*
X152262524Y-59646742D01*
X152260793Y-59648736D01*
X152253124Y-59655031D01*
X152191219Y-59716936D01*
X152184924Y-59724605D01*
X152182930Y-59726336D01*
X152181037Y-59729343D01*
X152178783Y-59732090D01*
X152177772Y-59734530D01*
X152172487Y-59742927D01*
X152110583Y-59866736D01*
X152103577Y-59885045D01*
X152103322Y-59888627D01*
X152101947Y-59891948D01*
X152100026Y-59911457D01*
X151742882Y-59911457D01*
X151742882Y-59663838D01*
X151740961Y-59644329D01*
X151726029Y-59608281D01*
X151698439Y-59580691D01*
X151662391Y-59565759D01*
X151623373Y-59565759D01*
X151587325Y-59580691D01*
X151559735Y-59608281D01*
X151544803Y-59644329D01*
X151542882Y-59663838D01*
X151307628Y-59663838D01*
X151307628Y-59644329D01*
X151292696Y-59608281D01*
X151265106Y-59580691D01*
X151229058Y-59565759D01*
X151209549Y-59563838D01*
X151000025Y-59563838D01*
X151000025Y-59272901D01*
X151482899Y-59272901D01*
X151482899Y-59292409D01*
X151482899Y-59311917D01*
X151497830Y-59347966D01*
X151510267Y-59363119D01*
X151572171Y-59425024D01*
X151587324Y-59437461D01*
X151602256Y-59443645D01*
X151623373Y-59452393D01*
X151662390Y-59452393D01*
X151662391Y-59452393D01*
X151672948Y-59448019D01*
X151698439Y-59437462D01*
X151698444Y-59437456D01*
X151713593Y-59425025D01*
X151775498Y-59363120D01*
X151787934Y-59347966D01*
X151802866Y-59311918D01*
X151802866Y-59272900D01*
X151787934Y-59236852D01*
X151787933Y-59236851D01*
X151775498Y-59221698D01*
X151713593Y-59159793D01*
X151698444Y-59147361D01*
X151698439Y-59147356D01*
X151672948Y-59136798D01*
X151662391Y-59132425D01*
X151623373Y-59132425D01*
X151602256Y-59141172D01*
X151587324Y-59147357D01*
X151572171Y-59159794D01*
X151510267Y-59221699D01*
X151497830Y-59236852D01*
X151482899Y-59272901D01*
X151000025Y-59272901D01*
X151000025Y-59230504D01*
X150998104Y-59210995D01*
X150983172Y-59174947D01*
X150955582Y-59147357D01*
X150919534Y-59132425D01*
X150880516Y-59132425D01*
X150844468Y-59147357D01*
X150816878Y-59174947D01*
X150801946Y-59210995D01*
X150800025Y-59230504D01*
X150800025Y-59563838D01*
X150714311Y-59563838D01*
X150694802Y-59565759D01*
X150658754Y-59580691D01*
X150631164Y-59608281D01*
X150616232Y-59644329D01*
X150276551Y-59644329D01*
X150270512Y-59640528D01*
X150268596Y-59638866D01*
X150267057Y-59638352D01*
X150263794Y-59636299D01*
X150139985Y-59574395D01*
X150121677Y-59567389D01*
X150118093Y-59567134D01*
X150114773Y-59565759D01*
X150095264Y-59563838D01*
X149847645Y-59563838D01*
X149828136Y-59565759D01*
X149824815Y-59567134D01*
X149821232Y-59567389D01*
X149802924Y-59574395D01*
X149679114Y-59636299D01*
X149662524Y-59646742D01*
X149636959Y-59676218D01*
X149624620Y-59713234D01*
X149627386Y-59752154D01*
X149644835Y-59787053D01*
X149674311Y-59812618D01*
X149711327Y-59824957D01*
X149750247Y-59822191D01*
X149768556Y-59815185D01*
X149871251Y-59763838D01*
X150071657Y-59763838D01*
X150144537Y-59800277D01*
X150180978Y-59873159D01*
X150180978Y-59911557D01*
X150133561Y-59935266D01*
X149847645Y-59935266D01*
X149828136Y-59937187D01*
X149824815Y-59938562D01*
X149821232Y-59938817D01*
X149802924Y-59945823D01*
X149679114Y-60007728D01*
X149675851Y-60009781D01*
X149674311Y-60010295D01*
X149672393Y-60011958D01*
X149662523Y-60018171D01*
X149654306Y-60027645D01*
X149644835Y-60035860D01*
X149638621Y-60045731D01*
X149636959Y-60047648D01*
X149636445Y-60049186D01*
X149634392Y-60052450D01*
X149572488Y-60176259D01*
X149565482Y-60194567D01*
X149565227Y-60198150D01*
X149563852Y-60201471D01*
X149561931Y-60220980D01*
X149204788Y-60220980D01*
X149204788Y-59849552D01*
X149202867Y-59830043D01*
X149201491Y-59826722D01*
X149201237Y-59823139D01*
X149194231Y-59804831D01*
X149132326Y-59681021D01*
X149130272Y-59677758D01*
X149129759Y-59676218D01*
X149128095Y-59674300D01*
X149121883Y-59664430D01*
X149112408Y-59656213D01*
X149104194Y-59646742D01*
X149094322Y-59640528D01*
X149092406Y-59638866D01*
X149090867Y-59638352D01*
X149087604Y-59636299D01*
X148963795Y-59574395D01*
X148945487Y-59567389D01*
X148941903Y-59567134D01*
X148938583Y-59565759D01*
X148919074Y-59563838D01*
X148733359Y-59563838D01*
X148713850Y-59565759D01*
X148710529Y-59567134D01*
X148706946Y-59567389D01*
X148688638Y-59574395D01*
X148564829Y-59636299D01*
X148561565Y-59638352D01*
X148560027Y-59638866D01*
X148558110Y-59640528D01*
X148548239Y-59646742D01*
X148547645Y-59647426D01*
X148547051Y-59646742D01*
X148537179Y-59640528D01*
X148535263Y-59638866D01*
X148533724Y-59638352D01*
X148530461Y-59636299D01*
X148406652Y-59574395D01*
X148388344Y-59567389D01*
X148384760Y-59567134D01*
X148381440Y-59565759D01*
X148361931Y-59563838D01*
X148176217Y-59563838D01*
X148156708Y-59565759D01*
X148153387Y-59567134D01*
X148149804Y-59567389D01*
X148131496Y-59574395D01*
X148070340Y-59604972D01*
X148046059Y-59580691D01*
X148010011Y-59565759D01*
X147970993Y-59565759D01*
X147934945Y-59580691D01*
X147907355Y-59608281D01*
X147892423Y-59644329D01*
X147890502Y-59663838D01*
X147389068Y-59663838D01*
X147380261Y-59655031D01*
X147372591Y-59648736D01*
X147370861Y-59646742D01*
X147367853Y-59644848D01*
X147365107Y-59642595D01*
X147362667Y-59641584D01*
X147354271Y-59636299D01*
X147230462Y-59574395D01*
X147212154Y-59567389D01*
X147208570Y-59567134D01*
X147205250Y-59565759D01*
X147185741Y-59563838D01*
X147000027Y-59563838D01*
X146980518Y-59565759D01*
X146977197Y-59567134D01*
X146973614Y-59567389D01*
X146955306Y-59574395D01*
X146831496Y-59636299D01*
X146823099Y-59641584D01*
X146820660Y-59642595D01*
X146817913Y-59644848D01*
X146814906Y-59646742D01*
X146813175Y-59648736D01*
X146805506Y-59655031D01*
X146743601Y-59716936D01*
X146737306Y-59724605D01*
X146735312Y-59726336D01*
X146733419Y-59729343D01*
X146731165Y-59732090D01*
X146730154Y-59734530D01*
X146724869Y-59742927D01*
X146662965Y-59866736D01*
X146655959Y-59885045D01*
X146655704Y-59888627D01*
X146654329Y-59891948D01*
X146652408Y-59911457D01*
X146171455Y-59911457D01*
X146171455Y-59763838D01*
X146380979Y-59763838D01*
X146400488Y-59761917D01*
X146436536Y-59746985D01*
X146464126Y-59719395D01*
X146479058Y-59683347D01*
X146479058Y-59644329D01*
X146464126Y-59608281D01*
X146436536Y-59580691D01*
X146400488Y-59565759D01*
X146380979Y-59563838D01*
X146171455Y-59563838D01*
X146171455Y-59230504D01*
X146169534Y-59210995D01*
X146154602Y-59174947D01*
X146127012Y-59147357D01*
X146090964Y-59132425D01*
X146051946Y-59132425D01*
X146015898Y-59147357D01*
X145988308Y-59174947D01*
X145973376Y-59210995D01*
X145971455Y-59230504D01*
X145971455Y-59563838D01*
X145885741Y-59563838D01*
X145866232Y-59565759D01*
X145830184Y-59580691D01*
X145802594Y-59608281D01*
X145787662Y-59644329D01*
X145550487Y-59644329D01*
X145535555Y-59608281D01*
X145507965Y-59580691D01*
X145471917Y-59565759D01*
X145432899Y-59565759D01*
X145396851Y-59580691D01*
X145369261Y-59608281D01*
X145354329Y-59644329D01*
X145352408Y-59663838D01*
X145352408Y-60365273D01*
X145331266Y-60386414D01*
X145243087Y-60430504D01*
X145104586Y-60430504D01*
X145031705Y-60394064D01*
X144995265Y-60321183D01*
X144995265Y-59663838D01*
X144993344Y-59644329D01*
X144978412Y-59608281D01*
X144950822Y-59580691D01*
X144914774Y-59565759D01*
X144875756Y-59565759D01*
X144839708Y-59580691D01*
X144812118Y-59608281D01*
X144797186Y-59644329D01*
X144795265Y-59663838D01*
X144292630Y-59663838D01*
X144283838Y-59656213D01*
X144275624Y-59646742D01*
X144265752Y-59640528D01*
X144263836Y-59638866D01*
X144262297Y-59638352D01*
X144259034Y-59636299D01*
X144135225Y-59574395D01*
X144116917Y-59567389D01*
X144113333Y-59567134D01*
X144110013Y-59565759D01*
X144090504Y-59563838D01*
X143842885Y-59563838D01*
X143823376Y-59565759D01*
X143820055Y-59567134D01*
X143816472Y-59567389D01*
X143798164Y-59574395D01*
X143674354Y-59636299D01*
X143657764Y-59646742D01*
X143632199Y-59676218D01*
X143619860Y-59713234D01*
X143622626Y-59752154D01*
X143640075Y-59787053D01*
X143669551Y-59812618D01*
X143706567Y-59824957D01*
X143745487Y-59822191D01*
X143763796Y-59815185D01*
X143866491Y-59763838D01*
X144066897Y-59763838D01*
X144139777Y-59800277D01*
X144176218Y-59873159D01*
X144176218Y-59911557D01*
X144128801Y-59935266D01*
X143842885Y-59935266D01*
X143823376Y-59937187D01*
X143820055Y-59938562D01*
X143816472Y-59938817D01*
X143798164Y-59945823D01*
X143674354Y-60007728D01*
X143671091Y-60009781D01*
X143669551Y-60010295D01*
X143667633Y-60011958D01*
X143657763Y-60018171D01*
X143649546Y-60027645D01*
X143640075Y-60035860D01*
X143633861Y-60045731D01*
X143632199Y-60047648D01*
X143631685Y-60049186D01*
X143629632Y-60052450D01*
X143567728Y-60176259D01*
X143560722Y-60194567D01*
X143560467Y-60198150D01*
X143559092Y-60201471D01*
X143557171Y-60220980D01*
X141652409Y-60220980D01*
X141652409Y-60179151D01*
X142190963Y-60071440D01*
X142190965Y-60071440D01*
X142190966Y-60071439D01*
X142191068Y-60071419D01*
X142209821Y-60065709D01*
X142217961Y-60060257D01*
X142227013Y-60056508D01*
X142234012Y-60049508D01*
X142242241Y-60043998D01*
X142247676Y-60035844D01*
X142254603Y-60028918D01*
X142258391Y-60019771D01*
X142263884Y-60011533D01*
X142265785Y-60001921D01*
X142269535Y-59992870D01*
X142271456Y-59973361D01*
X142271456Y-59973261D01*
X142271457Y-59973256D01*
X142271456Y-59973251D01*
X142271456Y-59849552D01*
X142269535Y-59830043D01*
X142268159Y-59826722D01*
X142267905Y-59823139D01*
X142260899Y-59804831D01*
X142198994Y-59681021D01*
X142196940Y-59677758D01*
X142196427Y-59676218D01*
X142194763Y-59674300D01*
X142188551Y-59664430D01*
X142179076Y-59656213D01*
X142170862Y-59646742D01*
X142160990Y-59640528D01*
X142159074Y-59638866D01*
X142157535Y-59638352D01*
X142154272Y-59636299D01*
X142030463Y-59574395D01*
X142012155Y-59567389D01*
X142008571Y-59567134D01*
X142005251Y-59565759D01*
X141985742Y-59563838D01*
X141738123Y-59563838D01*
X141718614Y-59565759D01*
X141715293Y-59567134D01*
X141711710Y-59567389D01*
X141693402Y-59574395D01*
X141569592Y-59636299D01*
X141566329Y-59638352D01*
X141564789Y-59638866D01*
X141562870Y-59640530D01*
X141553002Y-59646742D01*
X141544785Y-59656214D01*
X141535313Y-59664431D01*
X141529102Y-59674297D01*
X141527437Y-59676218D01*
X141526922Y-59677760D01*
X141524870Y-59681022D01*
X141462966Y-59804831D01*
X141455960Y-59823140D01*
X141455705Y-59826722D01*
X141454330Y-59830043D01*
X141452409Y-59849552D01*
X141095266Y-59849552D01*
X141093345Y-59830043D01*
X141091969Y-59826722D01*
X141091715Y-59823139D01*
X141084709Y-59804831D01*
X141022804Y-59681021D01*
X141020750Y-59677758D01*
X141020237Y-59676218D01*
X141018573Y-59674300D01*
X141012361Y-59664430D01*
X141002886Y-59656213D01*
X140994672Y-59646742D01*
X140984800Y-59640528D01*
X140982884Y-59638866D01*
X140981345Y-59638352D01*
X140978082Y-59636299D01*
X140854273Y-59574395D01*
X140835965Y-59567389D01*
X140832381Y-59567134D01*
X140829061Y-59565759D01*
X140809552Y-59563838D01*
X140623837Y-59563838D01*
X140604328Y-59565759D01*
X140601007Y-59567134D01*
X140597424Y-59567389D01*
X140579116Y-59574395D01*
X140455307Y-59636299D01*
X140452043Y-59638352D01*
X140450505Y-59638866D01*
X140448588Y-59640528D01*
X140438717Y-59646742D01*
X140438123Y-59647426D01*
X140437529Y-59646742D01*
X140427657Y-59640528D01*
X140425741Y-59638866D01*
X140424202Y-59638352D01*
X140420939Y-59636299D01*
X140297130Y-59574395D01*
X140278822Y-59567389D01*
X140275238Y-59567134D01*
X140271918Y-59565759D01*
X140252409Y-59563838D01*
X140066695Y-59563838D01*
X140047186Y-59565759D01*
X140043865Y-59567134D01*
X140040282Y-59567389D01*
X140021974Y-59574395D01*
X139960818Y-59604972D01*
X139936537Y-59580691D01*
X139900489Y-59565759D01*
X139861471Y-59565759D01*
X139825423Y-59580691D01*
X139797833Y-59608281D01*
X139782901Y-59644329D01*
X139780980Y-59663838D01*
X139279546Y-59663838D01*
X139270739Y-59655031D01*
X139263069Y-59648736D01*
X139261339Y-59646742D01*
X139258331Y-59644848D01*
X139255585Y-59642595D01*
X139253145Y-59641584D01*
X139244749Y-59636299D01*
X139120940Y-59574395D01*
X139102632Y-59567389D01*
X139099048Y-59567134D01*
X139095728Y-59565759D01*
X139076219Y-59563838D01*
X138890505Y-59563838D01*
X138870996Y-59565759D01*
X138867675Y-59567134D01*
X138864092Y-59567389D01*
X138845784Y-59574395D01*
X138721974Y-59636299D01*
X138713577Y-59641584D01*
X138711138Y-59642595D01*
X138708391Y-59644848D01*
X138705384Y-59646742D01*
X138703653Y-59648736D01*
X138695984Y-59655031D01*
X138634079Y-59716936D01*
X138627784Y-59724605D01*
X138625790Y-59726336D01*
X138623897Y-59729343D01*
X138621643Y-59732090D01*
X138620632Y-59734530D01*
X138615347Y-59742927D01*
X138553443Y-59866736D01*
X138546437Y-59885045D01*
X138546182Y-59888627D01*
X138544807Y-59891948D01*
X138542886Y-59911457D01*
X138185743Y-59911457D01*
X138185743Y-59849552D01*
X138183822Y-59830043D01*
X138182446Y-59826722D01*
X138182192Y-59823139D01*
X138175186Y-59804831D01*
X138113281Y-59681021D01*
X138111227Y-59677758D01*
X138110714Y-59676218D01*
X138109050Y-59674300D01*
X138102838Y-59664430D01*
X138093363Y-59656213D01*
X138085149Y-59646742D01*
X138075277Y-59640528D01*
X138073361Y-59638866D01*
X138071822Y-59638352D01*
X138068559Y-59636299D01*
X137944750Y-59574395D01*
X137926442Y-59567389D01*
X137922858Y-59567134D01*
X137919538Y-59565759D01*
X137900029Y-59563838D01*
X137714315Y-59563838D01*
X137694806Y-59565759D01*
X137691485Y-59567134D01*
X137687902Y-59567389D01*
X137669594Y-59574395D01*
X137628600Y-59594891D01*
X137628600Y-59230504D01*
X137626679Y-59210995D01*
X137611747Y-59174947D01*
X137584157Y-59147357D01*
X137548109Y-59132425D01*
X137509091Y-59132425D01*
X137473043Y-59147357D01*
X137445453Y-59174947D01*
X137430521Y-59210995D01*
X137428600Y-59230504D01*
X135895267Y-59230504D01*
X135893346Y-59210995D01*
X135878414Y-59174947D01*
X135850824Y-59147357D01*
X135814776Y-59132425D01*
X135775758Y-59132425D01*
X135739710Y-59147357D01*
X135712120Y-59174947D01*
X135697188Y-59210995D01*
X135695267Y-59230504D01*
X135695267Y-59563838D01*
X135609553Y-59563838D01*
X135590044Y-59565759D01*
X135553996Y-59580691D01*
X135526406Y-59608281D01*
X135511474Y-59644329D01*
X135460013Y-59644329D01*
X135445081Y-59608281D01*
X135417491Y-59580691D01*
X135381443Y-59565759D01*
X135361934Y-59563838D01*
X135238124Y-59563838D01*
X135218615Y-59565759D01*
X135215294Y-59567134D01*
X135211711Y-59567389D01*
X135193403Y-59574395D01*
X135082570Y-59629810D01*
X135073652Y-59608281D01*
X135046062Y-59580691D01*
X135010014Y-59565759D01*
X134970996Y-59565759D01*
X134934948Y-59580691D01*
X134907358Y-59608281D01*
X134892426Y-59644329D01*
X134890505Y-59663838D01*
X134387870Y-59663838D01*
X134379078Y-59656213D01*
X134370864Y-59646742D01*
X134360992Y-59640528D01*
X134359076Y-59638866D01*
X134357537Y-59638352D01*
X134354274Y-59636299D01*
X134230465Y-59574395D01*
X134212157Y-59567389D01*
X134208573Y-59567134D01*
X134205253Y-59565759D01*
X134185744Y-59563838D01*
X133938125Y-59563838D01*
X133918616Y-59565759D01*
X133915295Y-59567134D01*
X133911712Y-59567389D01*
X133893404Y-59574395D01*
X133769594Y-59636299D01*
X133753004Y-59646742D01*
X133727439Y-59676218D01*
X133715100Y-59713234D01*
X133717866Y-59752154D01*
X133735315Y-59787053D01*
X133764791Y-59812618D01*
X133801807Y-59824957D01*
X133840727Y-59822191D01*
X133859036Y-59815185D01*
X133961731Y-59763838D01*
X134162137Y-59763838D01*
X134235017Y-59800277D01*
X134271458Y-59873159D01*
X134271458Y-59911557D01*
X134224041Y-59935266D01*
X133938125Y-59935266D01*
X133918616Y-59937187D01*
X133915295Y-59938562D01*
X133911712Y-59938817D01*
X133893404Y-59945823D01*
X133769594Y-60007728D01*
X133766331Y-60009781D01*
X133764791Y-60010295D01*
X133762873Y-60011958D01*
X133753003Y-60018171D01*
X133744786Y-60027645D01*
X133735315Y-60035860D01*
X133729101Y-60045731D01*
X133727439Y-60047648D01*
X133726925Y-60049186D01*
X133724872Y-60052450D01*
X133662968Y-60176259D01*
X133655962Y-60194567D01*
X133655707Y-60198150D01*
X133654332Y-60201471D01*
X133652411Y-60220980D01*
X133295268Y-60220980D01*
X133295268Y-59849552D01*
X133293347Y-59830043D01*
X133291971Y-59826722D01*
X133291717Y-59823139D01*
X133284711Y-59804831D01*
X133222806Y-59681021D01*
X133220752Y-59677758D01*
X133220239Y-59676218D01*
X133218575Y-59674300D01*
X133212363Y-59664430D01*
X133202888Y-59656213D01*
X133194674Y-59646742D01*
X133184802Y-59640528D01*
X133182886Y-59638866D01*
X133181347Y-59638352D01*
X133178084Y-59636299D01*
X133054275Y-59574395D01*
X133035967Y-59567389D01*
X133032383Y-59567134D01*
X133029063Y-59565759D01*
X133009554Y-59563838D01*
X132823839Y-59563838D01*
X132804330Y-59565759D01*
X132801009Y-59567134D01*
X132797426Y-59567389D01*
X132779118Y-59574395D01*
X132655309Y-59636299D01*
X132652045Y-59638352D01*
X132650507Y-59638866D01*
X132648590Y-59640528D01*
X132638719Y-59646742D01*
X132638125Y-59647426D01*
X132637531Y-59646742D01*
X132627659Y-59640528D01*
X132625743Y-59638866D01*
X132624204Y-59638352D01*
X132620941Y-59636299D01*
X132497132Y-59574395D01*
X132478824Y-59567389D01*
X132475240Y-59567134D01*
X132471920Y-59565759D01*
X132452411Y-59563838D01*
X132266697Y-59563838D01*
X132247188Y-59565759D01*
X132243867Y-59567134D01*
X132240284Y-59567389D01*
X132221976Y-59574395D01*
X132160820Y-59604972D01*
X132136539Y-59580691D01*
X132100491Y-59565759D01*
X132061473Y-59565759D01*
X132025425Y-59580691D01*
X131997835Y-59608281D01*
X131982903Y-59644329D01*
X131980982Y-59663838D01*
X131538074Y-59663838D01*
X131523246Y-59646742D01*
X131506655Y-59636299D01*
X131382846Y-59574395D01*
X131364537Y-59567389D01*
X131360954Y-59567134D01*
X131357634Y-59565759D01*
X131338125Y-59563838D01*
X131152411Y-59563838D01*
X131132902Y-59565759D01*
X131129581Y-59567134D01*
X131125998Y-59567389D01*
X131107690Y-59574395D01*
X130983880Y-59636299D01*
X130980617Y-59638352D01*
X130979077Y-59638866D01*
X130977158Y-59640530D01*
X130967290Y-59646742D01*
X130959073Y-59656214D01*
X130949601Y-59664431D01*
X130943390Y-59674297D01*
X130941725Y-59676218D01*
X130941210Y-59677760D01*
X130939158Y-59681022D01*
X130877254Y-59804831D01*
X130870248Y-59823140D01*
X130869993Y-59826722D01*
X130868618Y-59830043D01*
X130866697Y-59849552D01*
X130722253Y-59849552D01*
X130722253Y-58987981D01*
X154239707Y-58987981D01*
X154239707Y-60774948D01*
G37*
D73*
G36*
X104113293Y-129185000D02*
G01*
X103337334Y-127176346D01*
X103624197Y-127176346D01*
X104144801Y-128633866D01*
X104249947Y-128962250D01*
X104357903Y-128633866D01*
X104898900Y-127176346D01*
X105169399Y-127176346D01*
X104385258Y-129185000D01*
X104113293Y-129185000D01*
G37*
G36*
X105958201Y-127712099D02*
G01*
X106083722Y-127743600D01*
X106188564Y-127795479D01*
X106254448Y-127853265D01*
X106300052Y-127926099D01*
X106331018Y-128020205D01*
X106339521Y-128095428D01*
X106343353Y-128246374D01*
X106343353Y-128573538D01*
X106348557Y-128885233D01*
X106358984Y-129008046D01*
X106382288Y-129098125D01*
X106421144Y-129185000D01*
X106164323Y-129185000D01*
X106133494Y-129103779D01*
X106115108Y-129005237D01*
X105976297Y-129106942D01*
X105852180Y-129168635D01*
X105722326Y-129204153D01*
X105580949Y-129216263D01*
X105460784Y-129207885D01*
X105361822Y-129184571D01*
X105280338Y-129148217D01*
X105213363Y-129099515D01*
X105157111Y-129036890D01*
X105117485Y-128967323D01*
X105093356Y-128889372D01*
X105085013Y-128800928D01*
X105085891Y-128793600D01*
X105347330Y-128793600D01*
X105355669Y-128855222D01*
X105380083Y-128908638D01*
X105421702Y-128956022D01*
X105475130Y-128990279D01*
X105546070Y-129012612D01*
X105639689Y-129020868D01*
X105732808Y-129013667D01*
X105816537Y-128992788D01*
X105892480Y-128958709D01*
X105960603Y-128911577D01*
X106014274Y-128855586D01*
X106055024Y-128789937D01*
X106083154Y-128697176D01*
X106094591Y-128547159D01*
X106094591Y-128458133D01*
X105943206Y-128504444D01*
X105692934Y-128550090D01*
X105552787Y-128575568D01*
X105478367Y-128598817D01*
X105422174Y-128632620D01*
X105381402Y-128677951D01*
X105355897Y-128732711D01*
X105347330Y-128793600D01*
X105085891Y-128793600D01*
X105097307Y-128698357D01*
X105133496Y-128606388D01*
X105189947Y-128526439D01*
X105260502Y-128464972D01*
X105343304Y-128418485D01*
X105437456Y-128384371D01*
X105656053Y-128347491D01*
X105933617Y-128304776D01*
X106094591Y-128262739D01*
X106096057Y-128198503D01*
X106086794Y-128100717D01*
X106062562Y-128032768D01*
X106026325Y-127986622D01*
X105958530Y-127942665D01*
X105867523Y-127913893D01*
X105746301Y-127903213D01*
X105631473Y-127911290D01*
X105548626Y-127932485D01*
X105490090Y-127963541D01*
X105443068Y-128009667D01*
X105401974Y-128078508D01*
X105367847Y-128176765D01*
X105127390Y-128145502D01*
X105155475Y-128045218D01*
X105191733Y-127963276D01*
X105235345Y-127896863D01*
X105290606Y-127840470D01*
X105362004Y-127791828D01*
X105452477Y-127751172D01*
X105601398Y-127713504D01*
X105781838Y-127700003D01*
X105958201Y-127712099D01*
G37*
G36*
X106720952Y-129185000D02*
G01*
X106720952Y-127731266D01*
X106942236Y-127731266D01*
X106942236Y-127956580D01*
X107031080Y-127817062D01*
X107098674Y-127749951D01*
X107174106Y-127712444D01*
X107256454Y-127700003D01*
X107337318Y-127708258D01*
X107421071Y-127733840D01*
X107509246Y-127778893D01*
X107424616Y-128005917D01*
X107332990Y-127969550D01*
X107244242Y-127957923D01*
X107167720Y-127970049D01*
X107099406Y-128006406D01*
X107045048Y-128063180D01*
X107007815Y-128140617D01*
X106977452Y-128275448D01*
X106966905Y-128426992D01*
X106966905Y-129185000D01*
X106720952Y-129185000D01*
G37*
G36*
X107655669Y-129185000D02*
G01*
X107655669Y-127731266D01*
X107877076Y-127731266D01*
X107877076Y-127937529D01*
X107947340Y-127851374D01*
X108027064Y-127785922D01*
X108117380Y-127739044D01*
X108220354Y-127710103D01*
X108338817Y-127700003D01*
X108466020Y-127712086D01*
X108579884Y-127747264D01*
X108678574Y-127803671D01*
X108744504Y-127870973D01*
X108790368Y-127953221D01*
X108821074Y-128052812D01*
X108830540Y-128133989D01*
X108834752Y-128292048D01*
X108834752Y-129185000D01*
X108588799Y-129185000D01*
X108588799Y-128300108D01*
X108580376Y-128159152D01*
X108560101Y-128074794D01*
X108520718Y-128008130D01*
X108458251Y-127955603D01*
X108380389Y-127922563D01*
X108286915Y-127911029D01*
X108185899Y-127922383D01*
X108096410Y-127955535D01*
X108015683Y-128011046D01*
X107970655Y-128064305D01*
X107935091Y-128140405D01*
X107910822Y-128246239D01*
X107901622Y-128390478D01*
X107901622Y-129185000D01*
X107655669Y-129185000D01*
G37*
G36*
X109212473Y-127449898D02*
G01*
X109212473Y-127176346D01*
X109458304Y-127176346D01*
X109458304Y-127449898D01*
X109212473Y-127449898D01*
G37*
G36*
X109212473Y-129185000D02*
G01*
X109212473Y-127731266D01*
X109458304Y-127731266D01*
X109458304Y-129185000D01*
X109212473Y-129185000D01*
G37*
G36*
X109821493Y-129741751D02*
G01*
X109794138Y-129514849D01*
X109872665Y-129531710D01*
X109934822Y-129536709D01*
X110011866Y-129529144D01*
X110065980Y-129509232D01*
X110110584Y-129476586D01*
X110146702Y-129432662D01*
X110171531Y-129381583D01*
X110221807Y-129248991D01*
X110243667Y-129188785D01*
X109693021Y-127731266D01*
X109958147Y-127731266D01*
X110260031Y-128567309D01*
X110315238Y-128729065D01*
X110365177Y-128901800D01*
X110411459Y-128741376D01*
X110466294Y-128579644D01*
X110776482Y-127731266D01*
X111022435Y-127731266D01*
X110470446Y-129210523D01*
X110384093Y-129428606D01*
X110332449Y-129537686D01*
X110259152Y-129645756D01*
X110182117Y-129714762D01*
X110123378Y-129745580D01*
X110056614Y-129764566D01*
X109980006Y-129771182D01*
X109907519Y-129764314D01*
X109821493Y-129741751D01*
G37*
G36*
X112021285Y-127712099D02*
G01*
X112146807Y-127743600D01*
X112251648Y-127795479D01*
X112317533Y-127853265D01*
X112363136Y-127926099D01*
X112394103Y-128020205D01*
X112402605Y-128095428D01*
X112406437Y-128246374D01*
X112406437Y-128573538D01*
X112411641Y-128885233D01*
X112422069Y-129008046D01*
X112445373Y-129098125D01*
X112484228Y-129185000D01*
X112227407Y-129185000D01*
X112196579Y-129103779D01*
X112178192Y-129005237D01*
X112039381Y-129106942D01*
X111915265Y-129168635D01*
X111785410Y-129204153D01*
X111644033Y-129216263D01*
X111523869Y-129207885D01*
X111424906Y-129184571D01*
X111343422Y-129148217D01*
X111276448Y-129099515D01*
X111220196Y-129036890D01*
X111180569Y-128967323D01*
X111156441Y-128889372D01*
X111148098Y-128800928D01*
X111148976Y-128793600D01*
X111410415Y-128793600D01*
X111418753Y-128855222D01*
X111443167Y-128908638D01*
X111484787Y-128956022D01*
X111538214Y-128990279D01*
X111609154Y-129012612D01*
X111702773Y-129020868D01*
X111795893Y-129013667D01*
X111879621Y-128992788D01*
X111955565Y-128958709D01*
X112023687Y-128911577D01*
X112077359Y-128855586D01*
X112118108Y-128789937D01*
X112146238Y-128697176D01*
X112157676Y-128547159D01*
X112157676Y-128458133D01*
X112006291Y-128504444D01*
X111756018Y-128550090D01*
X111615871Y-128575568D01*
X111541451Y-128598817D01*
X111485258Y-128632620D01*
X111444487Y-128677951D01*
X111418981Y-128732711D01*
X111410415Y-128793600D01*
X111148976Y-128793600D01*
X111160391Y-128698357D01*
X111196580Y-128606388D01*
X111253031Y-128526439D01*
X111323586Y-128464972D01*
X111406388Y-128418485D01*
X111500540Y-128384371D01*
X111719138Y-128347491D01*
X111996701Y-128304776D01*
X112157676Y-128262739D01*
X112159141Y-128198503D01*
X112149879Y-128100717D01*
X112125646Y-128032768D01*
X112089410Y-127986622D01*
X112021614Y-127942665D01*
X111930607Y-127913893D01*
X111809385Y-127903213D01*
X111694557Y-127911290D01*
X111611711Y-127932485D01*
X111553175Y-127963541D01*
X111506152Y-128009667D01*
X111465058Y-128078508D01*
X111430931Y-128176765D01*
X111190474Y-128145502D01*
X111218559Y-128045218D01*
X111254817Y-127963276D01*
X111298429Y-127896863D01*
X111353691Y-127840470D01*
X111425088Y-127791828D01*
X111515561Y-127751172D01*
X111664482Y-127713504D01*
X111844923Y-127700003D01*
X112021285Y-127712099D01*
G37*
D49*
X158289316Y-83742219D02*
X158860744Y-83742219D01*
X158575030Y-84742219D02*
X158575030Y-83742219D01*
X159098840Y-83742219D02*
X159765506Y-84742219D01*
X159765506Y-83742219D02*
X159098840Y-84742219D01*
X159103601Y-87217219D02*
X158770268Y-86741028D01*
X158532173Y-87217219D02*
X158532173Y-86217219D01*
X158532173Y-86217219D02*
X158913125Y-86217219D01*
X158913125Y-86217219D02*
X159008363Y-86264838D01*
X159008363Y-86264838D02*
X159055982Y-86312457D01*
X159055982Y-86312457D02*
X159103601Y-86407695D01*
X159103601Y-86407695D02*
X159103601Y-86550552D01*
X159103601Y-86550552D02*
X159055982Y-86645790D01*
X159055982Y-86645790D02*
X159008363Y-86693409D01*
X159008363Y-86693409D02*
X158913125Y-86741028D01*
X158913125Y-86741028D02*
X158532173Y-86741028D01*
X159436935Y-86217219D02*
X160103601Y-87217219D01*
X160103601Y-86217219D02*
X159436935Y-87217219D01*
D74*
X155554167Y-69232200D02*
X155697024Y-69279819D01*
X155697024Y-69279819D02*
X155935119Y-69279819D01*
X155935119Y-69279819D02*
X156030357Y-69232200D01*
X156030357Y-69232200D02*
X156077976Y-69184580D01*
X156077976Y-69184580D02*
X156125595Y-69089342D01*
X156125595Y-69089342D02*
X156125595Y-68994104D01*
X156125595Y-68994104D02*
X156077976Y-68898866D01*
X156077976Y-68898866D02*
X156030357Y-68851247D01*
X156030357Y-68851247D02*
X155935119Y-68803628D01*
X155935119Y-68803628D02*
X155744643Y-68756009D01*
X155744643Y-68756009D02*
X155649405Y-68708390D01*
X155649405Y-68708390D02*
X155601786Y-68660771D01*
X155601786Y-68660771D02*
X155554167Y-68565533D01*
X155554167Y-68565533D02*
X155554167Y-68470295D01*
X155554167Y-68470295D02*
X155601786Y-68375057D01*
X155601786Y-68375057D02*
X155649405Y-68327438D01*
X155649405Y-68327438D02*
X155744643Y-68279819D01*
X155744643Y-68279819D02*
X155982738Y-68279819D01*
X155982738Y-68279819D02*
X156125595Y-68327438D01*
X156458929Y-68279819D02*
X156697024Y-69279819D01*
X156697024Y-69279819D02*
X156887500Y-68565533D01*
X156887500Y-68565533D02*
X157077976Y-69279819D01*
X157077976Y-69279819D02*
X157316072Y-68279819D01*
X158220833Y-69279819D02*
X157649405Y-69279819D01*
X157935119Y-69279819D02*
X157935119Y-68279819D01*
X157935119Y-68279819D02*
X157839881Y-68422676D01*
X157839881Y-68422676D02*
X157744643Y-68517914D01*
X157744643Y-68517914D02*
X157649405Y-68565533D01*
X122187557Y-101170238D02*
X122139938Y-101265476D01*
X122139938Y-101265476D02*
X122044700Y-101360714D01*
X122044700Y-101360714D02*
X121901842Y-101503571D01*
X121901842Y-101503571D02*
X121854223Y-101598809D01*
X121854223Y-101598809D02*
X121854223Y-101694047D01*
X122092319Y-101646428D02*
X122044700Y-101741666D01*
X122044700Y-101741666D02*
X121949461Y-101836904D01*
X121949461Y-101836904D02*
X121758985Y-101884523D01*
X121758985Y-101884523D02*
X121425652Y-101884523D01*
X121425652Y-101884523D02*
X121235176Y-101836904D01*
X121235176Y-101836904D02*
X121139938Y-101741666D01*
X121139938Y-101741666D02*
X121092319Y-101646428D01*
X121092319Y-101646428D02*
X121092319Y-101455952D01*
X121092319Y-101455952D02*
X121139938Y-101360714D01*
X121139938Y-101360714D02*
X121235176Y-101265476D01*
X121235176Y-101265476D02*
X121425652Y-101217857D01*
X121425652Y-101217857D02*
X121758985Y-101217857D01*
X121758985Y-101217857D02*
X121949461Y-101265476D01*
X121949461Y-101265476D02*
X122044700Y-101360714D01*
X122044700Y-101360714D02*
X122092319Y-101455952D01*
X122092319Y-101455952D02*
X122092319Y-101646428D01*
X122092319Y-100265476D02*
X122092319Y-100836904D01*
X122092319Y-100551190D02*
X121092319Y-100551190D01*
X121092319Y-100551190D02*
X121235176Y-100646428D01*
X121235176Y-100646428D02*
X121330414Y-100741666D01*
X121330414Y-100741666D02*
X121378033Y-100836904D01*
X133061905Y-75629819D02*
X133061905Y-74629819D01*
X133061905Y-74629819D02*
X133300000Y-74629819D01*
X133300000Y-74629819D02*
X133442857Y-74677438D01*
X133442857Y-74677438D02*
X133538095Y-74772676D01*
X133538095Y-74772676D02*
X133585714Y-74867914D01*
X133585714Y-74867914D02*
X133633333Y-75058390D01*
X133633333Y-75058390D02*
X133633333Y-75201247D01*
X133633333Y-75201247D02*
X133585714Y-75391723D01*
X133585714Y-75391723D02*
X133538095Y-75486961D01*
X133538095Y-75486961D02*
X133442857Y-75582200D01*
X133442857Y-75582200D02*
X133300000Y-75629819D01*
X133300000Y-75629819D02*
X133061905Y-75629819D01*
X134490476Y-74963152D02*
X134490476Y-75629819D01*
X134252381Y-74582200D02*
X134014286Y-75296485D01*
X134014286Y-75296485D02*
X134633333Y-75296485D01*
X144720833Y-71279819D02*
X144387500Y-70803628D01*
X144149405Y-71279819D02*
X144149405Y-70279819D01*
X144149405Y-70279819D02*
X144530357Y-70279819D01*
X144530357Y-70279819D02*
X144625595Y-70327438D01*
X144625595Y-70327438D02*
X144673214Y-70375057D01*
X144673214Y-70375057D02*
X144720833Y-70470295D01*
X144720833Y-70470295D02*
X144720833Y-70613152D01*
X144720833Y-70613152D02*
X144673214Y-70708390D01*
X144673214Y-70708390D02*
X144625595Y-70756009D01*
X144625595Y-70756009D02*
X144530357Y-70803628D01*
X144530357Y-70803628D02*
X144149405Y-70803628D01*
X145054167Y-70279819D02*
X145720833Y-70279819D01*
X145720833Y-70279819D02*
X145292262Y-71279819D01*
X119542319Y-98388094D02*
X118542319Y-98388094D01*
X118542319Y-98388094D02*
X118542319Y-98149999D01*
X118542319Y-98149999D02*
X118589938Y-98007142D01*
X118589938Y-98007142D02*
X118685176Y-97911904D01*
X118685176Y-97911904D02*
X118780414Y-97864285D01*
X118780414Y-97864285D02*
X118970890Y-97816666D01*
X118970890Y-97816666D02*
X119113747Y-97816666D01*
X119113747Y-97816666D02*
X119304223Y-97864285D01*
X119304223Y-97864285D02*
X119399461Y-97911904D01*
X119399461Y-97911904D02*
X119494700Y-98007142D01*
X119494700Y-98007142D02*
X119542319Y-98149999D01*
X119542319Y-98149999D02*
X119542319Y-98388094D01*
X118542319Y-97483332D02*
X118542319Y-96864285D01*
X118542319Y-96864285D02*
X118923271Y-97197618D01*
X118923271Y-97197618D02*
X118923271Y-97054761D01*
X118923271Y-97054761D02*
X118970890Y-96959523D01*
X118970890Y-96959523D02*
X119018509Y-96911904D01*
X119018509Y-96911904D02*
X119113747Y-96864285D01*
X119113747Y-96864285D02*
X119351842Y-96864285D01*
X119351842Y-96864285D02*
X119447080Y-96911904D01*
X119447080Y-96911904D02*
X119494700Y-96959523D01*
X119494700Y-96959523D02*
X119542319Y-97054761D01*
X119542319Y-97054761D02*
X119542319Y-97340475D01*
X119542319Y-97340475D02*
X119494700Y-97435713D01*
X119494700Y-97435713D02*
X119447080Y-97483332D01*
X138633333Y-75779819D02*
X138300000Y-75303628D01*
X138061905Y-75779819D02*
X138061905Y-74779819D01*
X138061905Y-74779819D02*
X138442857Y-74779819D01*
X138442857Y-74779819D02*
X138538095Y-74827438D01*
X138538095Y-74827438D02*
X138585714Y-74875057D01*
X138585714Y-74875057D02*
X138633333Y-74970295D01*
X138633333Y-74970295D02*
X138633333Y-75113152D01*
X138633333Y-75113152D02*
X138585714Y-75208390D01*
X138585714Y-75208390D02*
X138538095Y-75256009D01*
X138538095Y-75256009D02*
X138442857Y-75303628D01*
X138442857Y-75303628D02*
X138061905Y-75303628D01*
X139490476Y-74779819D02*
X139300000Y-74779819D01*
X139300000Y-74779819D02*
X139204762Y-74827438D01*
X139204762Y-74827438D02*
X139157143Y-74875057D01*
X139157143Y-74875057D02*
X139061905Y-75017914D01*
X139061905Y-75017914D02*
X139014286Y-75208390D01*
X139014286Y-75208390D02*
X139014286Y-75589342D01*
X139014286Y-75589342D02*
X139061905Y-75684580D01*
X139061905Y-75684580D02*
X139109524Y-75732200D01*
X139109524Y-75732200D02*
X139204762Y-75779819D01*
X139204762Y-75779819D02*
X139395238Y-75779819D01*
X139395238Y-75779819D02*
X139490476Y-75732200D01*
X139490476Y-75732200D02*
X139538095Y-75684580D01*
X139538095Y-75684580D02*
X139585714Y-75589342D01*
X139585714Y-75589342D02*
X139585714Y-75351247D01*
X139585714Y-75351247D02*
X139538095Y-75256009D01*
X139538095Y-75256009D02*
X139490476Y-75208390D01*
X139490476Y-75208390D02*
X139395238Y-75160771D01*
X139395238Y-75160771D02*
X139204762Y-75160771D01*
X139204762Y-75160771D02*
X139109524Y-75208390D01*
X139109524Y-75208390D02*
X139061905Y-75256009D01*
X139061905Y-75256009D02*
X139014286Y-75351247D01*
X116874405Y-123104819D02*
X116874405Y-122104819D01*
X117445833Y-123104819D02*
X117017262Y-122533390D01*
X117445833Y-122104819D02*
X116874405Y-122676247D01*
X118398214Y-123104819D02*
X117826786Y-123104819D01*
X118112500Y-123104819D02*
X118112500Y-122104819D01*
X118112500Y-122104819D02*
X118017262Y-122247676D01*
X118017262Y-122247676D02*
X117922024Y-122342914D01*
X117922024Y-122342914D02*
X117826786Y-122390533D01*
X126470833Y-115779819D02*
X126137500Y-115303628D01*
X125899405Y-115779819D02*
X125899405Y-114779819D01*
X125899405Y-114779819D02*
X126280357Y-114779819D01*
X126280357Y-114779819D02*
X126375595Y-114827438D01*
X126375595Y-114827438D02*
X126423214Y-114875057D01*
X126423214Y-114875057D02*
X126470833Y-114970295D01*
X126470833Y-114970295D02*
X126470833Y-115113152D01*
X126470833Y-115113152D02*
X126423214Y-115208390D01*
X126423214Y-115208390D02*
X126375595Y-115256009D01*
X126375595Y-115256009D02*
X126280357Y-115303628D01*
X126280357Y-115303628D02*
X125899405Y-115303628D01*
X127423214Y-115779819D02*
X126851786Y-115779819D01*
X127137500Y-115779819D02*
X127137500Y-114779819D01*
X127137500Y-114779819D02*
X127042262Y-114922676D01*
X127042262Y-114922676D02*
X126947024Y-115017914D01*
X126947024Y-115017914D02*
X126851786Y-115065533D01*
X150547319Y-106471904D02*
X151356842Y-106471904D01*
X151356842Y-106471904D02*
X151452080Y-106424285D01*
X151452080Y-106424285D02*
X151499700Y-106376666D01*
X151499700Y-106376666D02*
X151547319Y-106281428D01*
X151547319Y-106281428D02*
X151547319Y-106090952D01*
X151547319Y-106090952D02*
X151499700Y-105995714D01*
X151499700Y-105995714D02*
X151452080Y-105948095D01*
X151452080Y-105948095D02*
X151356842Y-105900476D01*
X151356842Y-105900476D02*
X150547319Y-105900476D01*
X151547319Y-104900476D02*
X151547319Y-105471904D01*
X151547319Y-105186190D02*
X150547319Y-105186190D01*
X150547319Y-105186190D02*
X150690176Y-105281428D01*
X150690176Y-105281428D02*
X150785414Y-105376666D01*
X150785414Y-105376666D02*
X150833033Y-105471904D01*
X133470833Y-69364580D02*
X133423214Y-69412200D01*
X133423214Y-69412200D02*
X133280357Y-69459819D01*
X133280357Y-69459819D02*
X133185119Y-69459819D01*
X133185119Y-69459819D02*
X133042262Y-69412200D01*
X133042262Y-69412200D02*
X132947024Y-69316961D01*
X132947024Y-69316961D02*
X132899405Y-69221723D01*
X132899405Y-69221723D02*
X132851786Y-69031247D01*
X132851786Y-69031247D02*
X132851786Y-68888390D01*
X132851786Y-68888390D02*
X132899405Y-68697914D01*
X132899405Y-68697914D02*
X132947024Y-68602676D01*
X132947024Y-68602676D02*
X133042262Y-68507438D01*
X133042262Y-68507438D02*
X133185119Y-68459819D01*
X133185119Y-68459819D02*
X133280357Y-68459819D01*
X133280357Y-68459819D02*
X133423214Y-68507438D01*
X133423214Y-68507438D02*
X133470833Y-68555057D01*
X134423214Y-69459819D02*
X133851786Y-69459819D01*
X134137500Y-69459819D02*
X134137500Y-68459819D01*
X134137500Y-68459819D02*
X134042262Y-68602676D01*
X134042262Y-68602676D02*
X133947024Y-68697914D01*
X133947024Y-68697914D02*
X133851786Y-68745533D01*
X117722319Y-116563094D02*
X116722319Y-116563094D01*
X116722319Y-116563094D02*
X116722319Y-116324999D01*
X116722319Y-116324999D02*
X116769938Y-116182142D01*
X116769938Y-116182142D02*
X116865176Y-116086904D01*
X116865176Y-116086904D02*
X116960414Y-116039285D01*
X116960414Y-116039285D02*
X117150890Y-115991666D01*
X117150890Y-115991666D02*
X117293747Y-115991666D01*
X117293747Y-115991666D02*
X117484223Y-116039285D01*
X117484223Y-116039285D02*
X117579461Y-116086904D01*
X117579461Y-116086904D02*
X117674700Y-116182142D01*
X117674700Y-116182142D02*
X117722319Y-116324999D01*
X117722319Y-116324999D02*
X117722319Y-116563094D01*
X116817557Y-115610713D02*
X116769938Y-115563094D01*
X116769938Y-115563094D02*
X116722319Y-115467856D01*
X116722319Y-115467856D02*
X116722319Y-115229761D01*
X116722319Y-115229761D02*
X116769938Y-115134523D01*
X116769938Y-115134523D02*
X116817557Y-115086904D01*
X116817557Y-115086904D02*
X116912795Y-115039285D01*
X116912795Y-115039285D02*
X117008033Y-115039285D01*
X117008033Y-115039285D02*
X117150890Y-115086904D01*
X117150890Y-115086904D02*
X117722319Y-115658332D01*
X117722319Y-115658332D02*
X117722319Y-115039285D01*
X133061905Y-71879819D02*
X133061905Y-70879819D01*
X133061905Y-70879819D02*
X133300000Y-70879819D01*
X133300000Y-70879819D02*
X133442857Y-70927438D01*
X133442857Y-70927438D02*
X133538095Y-71022676D01*
X133538095Y-71022676D02*
X133585714Y-71117914D01*
X133585714Y-71117914D02*
X133633333Y-71308390D01*
X133633333Y-71308390D02*
X133633333Y-71451247D01*
X133633333Y-71451247D02*
X133585714Y-71641723D01*
X133585714Y-71641723D02*
X133538095Y-71736961D01*
X133538095Y-71736961D02*
X133442857Y-71832200D01*
X133442857Y-71832200D02*
X133300000Y-71879819D01*
X133300000Y-71879819D02*
X133061905Y-71879819D01*
X134585714Y-71879819D02*
X134014286Y-71879819D01*
X134300000Y-71879819D02*
X134300000Y-70879819D01*
X134300000Y-70879819D02*
X134204762Y-71022676D01*
X134204762Y-71022676D02*
X134109524Y-71117914D01*
X134109524Y-71117914D02*
X134014286Y-71165533D01*
X144720833Y-75629819D02*
X144387500Y-75153628D01*
X144149405Y-75629819D02*
X144149405Y-74629819D01*
X144149405Y-74629819D02*
X144530357Y-74629819D01*
X144530357Y-74629819D02*
X144625595Y-74677438D01*
X144625595Y-74677438D02*
X144673214Y-74725057D01*
X144673214Y-74725057D02*
X144720833Y-74820295D01*
X144720833Y-74820295D02*
X144720833Y-74963152D01*
X144720833Y-74963152D02*
X144673214Y-75058390D01*
X144673214Y-75058390D02*
X144625595Y-75106009D01*
X144625595Y-75106009D02*
X144530357Y-75153628D01*
X144530357Y-75153628D02*
X144149405Y-75153628D01*
X145292262Y-75058390D02*
X145197024Y-75010771D01*
X145197024Y-75010771D02*
X145149405Y-74963152D01*
X145149405Y-74963152D02*
X145101786Y-74867914D01*
X145101786Y-74867914D02*
X145101786Y-74820295D01*
X145101786Y-74820295D02*
X145149405Y-74725057D01*
X145149405Y-74725057D02*
X145197024Y-74677438D01*
X145197024Y-74677438D02*
X145292262Y-74629819D01*
X145292262Y-74629819D02*
X145482738Y-74629819D01*
X145482738Y-74629819D02*
X145577976Y-74677438D01*
X145577976Y-74677438D02*
X145625595Y-74725057D01*
X145625595Y-74725057D02*
X145673214Y-74820295D01*
X145673214Y-74820295D02*
X145673214Y-74867914D01*
X145673214Y-74867914D02*
X145625595Y-74963152D01*
X145625595Y-74963152D02*
X145577976Y-75010771D01*
X145577976Y-75010771D02*
X145482738Y-75058390D01*
X145482738Y-75058390D02*
X145292262Y-75058390D01*
X145292262Y-75058390D02*
X145197024Y-75106009D01*
X145197024Y-75106009D02*
X145149405Y-75153628D01*
X145149405Y-75153628D02*
X145101786Y-75248866D01*
X145101786Y-75248866D02*
X145101786Y-75439342D01*
X145101786Y-75439342D02*
X145149405Y-75534580D01*
X145149405Y-75534580D02*
X145197024Y-75582200D01*
X145197024Y-75582200D02*
X145292262Y-75629819D01*
X145292262Y-75629819D02*
X145482738Y-75629819D01*
X145482738Y-75629819D02*
X145577976Y-75582200D01*
X145577976Y-75582200D02*
X145625595Y-75534580D01*
X145625595Y-75534580D02*
X145673214Y-75439342D01*
X145673214Y-75439342D02*
X145673214Y-75248866D01*
X145673214Y-75248866D02*
X145625595Y-75153628D01*
X145625595Y-75153628D02*
X145577976Y-75106009D01*
X145577976Y-75106009D02*
X145482738Y-75058390D01*
X119567261Y-85500057D02*
X119472023Y-85452438D01*
X119472023Y-85452438D02*
X119376785Y-85357200D01*
X119376785Y-85357200D02*
X119233928Y-85214342D01*
X119233928Y-85214342D02*
X119138690Y-85166723D01*
X119138690Y-85166723D02*
X119043452Y-85166723D01*
X119091071Y-85404819D02*
X118995833Y-85357200D01*
X118995833Y-85357200D02*
X118900595Y-85261961D01*
X118900595Y-85261961D02*
X118852976Y-85071485D01*
X118852976Y-85071485D02*
X118852976Y-84738152D01*
X118852976Y-84738152D02*
X118900595Y-84547676D01*
X118900595Y-84547676D02*
X118995833Y-84452438D01*
X118995833Y-84452438D02*
X119091071Y-84404819D01*
X119091071Y-84404819D02*
X119281547Y-84404819D01*
X119281547Y-84404819D02*
X119376785Y-84452438D01*
X119376785Y-84452438D02*
X119472023Y-84547676D01*
X119472023Y-84547676D02*
X119519642Y-84738152D01*
X119519642Y-84738152D02*
X119519642Y-85071485D01*
X119519642Y-85071485D02*
X119472023Y-85261961D01*
X119472023Y-85261961D02*
X119376785Y-85357200D01*
X119376785Y-85357200D02*
X119281547Y-85404819D01*
X119281547Y-85404819D02*
X119091071Y-85404819D01*
X119900595Y-84500057D02*
X119948214Y-84452438D01*
X119948214Y-84452438D02*
X120043452Y-84404819D01*
X120043452Y-84404819D02*
X120281547Y-84404819D01*
X120281547Y-84404819D02*
X120376785Y-84452438D01*
X120376785Y-84452438D02*
X120424404Y-84500057D01*
X120424404Y-84500057D02*
X120472023Y-84595295D01*
X120472023Y-84595295D02*
X120472023Y-84690533D01*
X120472023Y-84690533D02*
X120424404Y-84833390D01*
X120424404Y-84833390D02*
X119852976Y-85404819D01*
X119852976Y-85404819D02*
X120472023Y-85404819D01*
X125237319Y-97326904D02*
X126046842Y-97326904D01*
X126046842Y-97326904D02*
X126142080Y-97279285D01*
X126142080Y-97279285D02*
X126189700Y-97231666D01*
X126189700Y-97231666D02*
X126237319Y-97136428D01*
X126237319Y-97136428D02*
X126237319Y-96945952D01*
X126237319Y-96945952D02*
X126189700Y-96850714D01*
X126189700Y-96850714D02*
X126142080Y-96803095D01*
X126142080Y-96803095D02*
X126046842Y-96755476D01*
X126046842Y-96755476D02*
X125237319Y-96755476D01*
X125237319Y-96374523D02*
X125237319Y-95755476D01*
X125237319Y-95755476D02*
X125618271Y-96088809D01*
X125618271Y-96088809D02*
X125618271Y-95945952D01*
X125618271Y-95945952D02*
X125665890Y-95850714D01*
X125665890Y-95850714D02*
X125713509Y-95803095D01*
X125713509Y-95803095D02*
X125808747Y-95755476D01*
X125808747Y-95755476D02*
X126046842Y-95755476D01*
X126046842Y-95755476D02*
X126142080Y-95803095D01*
X126142080Y-95803095D02*
X126189700Y-95850714D01*
X126189700Y-95850714D02*
X126237319Y-95945952D01*
X126237319Y-95945952D02*
X126237319Y-96231666D01*
X126237319Y-96231666D02*
X126189700Y-96326904D01*
X126189700Y-96326904D02*
X126142080Y-96374523D01*
X138383333Y-71779819D02*
X138050000Y-71303628D01*
X137811905Y-71779819D02*
X137811905Y-70779819D01*
X137811905Y-70779819D02*
X138192857Y-70779819D01*
X138192857Y-70779819D02*
X138288095Y-70827438D01*
X138288095Y-70827438D02*
X138335714Y-70875057D01*
X138335714Y-70875057D02*
X138383333Y-70970295D01*
X138383333Y-70970295D02*
X138383333Y-71113152D01*
X138383333Y-71113152D02*
X138335714Y-71208390D01*
X138335714Y-71208390D02*
X138288095Y-71256009D01*
X138288095Y-71256009D02*
X138192857Y-71303628D01*
X138192857Y-71303628D02*
X137811905Y-71303628D01*
X139288095Y-70779819D02*
X138811905Y-70779819D01*
X138811905Y-70779819D02*
X138764286Y-71256009D01*
X138764286Y-71256009D02*
X138811905Y-71208390D01*
X138811905Y-71208390D02*
X138907143Y-71160771D01*
X138907143Y-71160771D02*
X139145238Y-71160771D01*
X139145238Y-71160771D02*
X139240476Y-71208390D01*
X139240476Y-71208390D02*
X139288095Y-71256009D01*
X139288095Y-71256009D02*
X139335714Y-71351247D01*
X139335714Y-71351247D02*
X139335714Y-71589342D01*
X139335714Y-71589342D02*
X139288095Y-71684580D01*
X139288095Y-71684580D02*
X139240476Y-71732200D01*
X139240476Y-71732200D02*
X139145238Y-71779819D01*
X139145238Y-71779819D02*
X138907143Y-71779819D01*
X138907143Y-71779819D02*
X138811905Y-71732200D01*
X138811905Y-71732200D02*
X138764286Y-71684580D01*
X84592319Y-60658333D02*
X85306604Y-60658333D01*
X85306604Y-60658333D02*
X85449461Y-60705952D01*
X85449461Y-60705952D02*
X85544700Y-60801190D01*
X85544700Y-60801190D02*
X85592319Y-60944047D01*
X85592319Y-60944047D02*
X85592319Y-61039285D01*
X84687557Y-60229761D02*
X84639938Y-60182142D01*
X84639938Y-60182142D02*
X84592319Y-60086904D01*
X84592319Y-60086904D02*
X84592319Y-59848809D01*
X84592319Y-59848809D02*
X84639938Y-59753571D01*
X84639938Y-59753571D02*
X84687557Y-59705952D01*
X84687557Y-59705952D02*
X84782795Y-59658333D01*
X84782795Y-59658333D02*
X84878033Y-59658333D01*
X84878033Y-59658333D02*
X85020890Y-59705952D01*
X85020890Y-59705952D02*
X85592319Y-60277380D01*
X85592319Y-60277380D02*
X85592319Y-59658333D01*
X131133333Y-87629819D02*
X130800000Y-87153628D01*
X130561905Y-87629819D02*
X130561905Y-86629819D01*
X130561905Y-86629819D02*
X130942857Y-86629819D01*
X130942857Y-86629819D02*
X131038095Y-86677438D01*
X131038095Y-86677438D02*
X131085714Y-86725057D01*
X131085714Y-86725057D02*
X131133333Y-86820295D01*
X131133333Y-86820295D02*
X131133333Y-86963152D01*
X131133333Y-86963152D02*
X131085714Y-87058390D01*
X131085714Y-87058390D02*
X131038095Y-87106009D01*
X131038095Y-87106009D02*
X130942857Y-87153628D01*
X130942857Y-87153628D02*
X130561905Y-87153628D01*
X131990476Y-86963152D02*
X131990476Y-87629819D01*
X131752381Y-86582200D02*
X131514286Y-87296485D01*
X131514286Y-87296485D02*
X132133333Y-87296485D01*
X155554167Y-101482200D02*
X155697024Y-101529819D01*
X155697024Y-101529819D02*
X155935119Y-101529819D01*
X155935119Y-101529819D02*
X156030357Y-101482200D01*
X156030357Y-101482200D02*
X156077976Y-101434580D01*
X156077976Y-101434580D02*
X156125595Y-101339342D01*
X156125595Y-101339342D02*
X156125595Y-101244104D01*
X156125595Y-101244104D02*
X156077976Y-101148866D01*
X156077976Y-101148866D02*
X156030357Y-101101247D01*
X156030357Y-101101247D02*
X155935119Y-101053628D01*
X155935119Y-101053628D02*
X155744643Y-101006009D01*
X155744643Y-101006009D02*
X155649405Y-100958390D01*
X155649405Y-100958390D02*
X155601786Y-100910771D01*
X155601786Y-100910771D02*
X155554167Y-100815533D01*
X155554167Y-100815533D02*
X155554167Y-100720295D01*
X155554167Y-100720295D02*
X155601786Y-100625057D01*
X155601786Y-100625057D02*
X155649405Y-100577438D01*
X155649405Y-100577438D02*
X155744643Y-100529819D01*
X155744643Y-100529819D02*
X155982738Y-100529819D01*
X155982738Y-100529819D02*
X156125595Y-100577438D01*
X156458929Y-100529819D02*
X156697024Y-101529819D01*
X156697024Y-101529819D02*
X156887500Y-100815533D01*
X156887500Y-100815533D02*
X157077976Y-101529819D01*
X157077976Y-101529819D02*
X157316072Y-100529819D01*
X157649405Y-100625057D02*
X157697024Y-100577438D01*
X157697024Y-100577438D02*
X157792262Y-100529819D01*
X157792262Y-100529819D02*
X158030357Y-100529819D01*
X158030357Y-100529819D02*
X158125595Y-100577438D01*
X158125595Y-100577438D02*
X158173214Y-100625057D01*
X158173214Y-100625057D02*
X158220833Y-100720295D01*
X158220833Y-100720295D02*
X158220833Y-100815533D01*
X158220833Y-100815533D02*
X158173214Y-100958390D01*
X158173214Y-100958390D02*
X157601786Y-101529819D01*
X157601786Y-101529819D02*
X158220833Y-101529819D01*
X121720833Y-95929819D02*
X121387500Y-95453628D01*
X121149405Y-95929819D02*
X121149405Y-94929819D01*
X121149405Y-94929819D02*
X121530357Y-94929819D01*
X121530357Y-94929819D02*
X121625595Y-94977438D01*
X121625595Y-94977438D02*
X121673214Y-95025057D01*
X121673214Y-95025057D02*
X121720833Y-95120295D01*
X121720833Y-95120295D02*
X121720833Y-95263152D01*
X121720833Y-95263152D02*
X121673214Y-95358390D01*
X121673214Y-95358390D02*
X121625595Y-95406009D01*
X121625595Y-95406009D02*
X121530357Y-95453628D01*
X121530357Y-95453628D02*
X121149405Y-95453628D01*
X122101786Y-95025057D02*
X122149405Y-94977438D01*
X122149405Y-94977438D02*
X122244643Y-94929819D01*
X122244643Y-94929819D02*
X122482738Y-94929819D01*
X122482738Y-94929819D02*
X122577976Y-94977438D01*
X122577976Y-94977438D02*
X122625595Y-95025057D01*
X122625595Y-95025057D02*
X122673214Y-95120295D01*
X122673214Y-95120295D02*
X122673214Y-95215533D01*
X122673214Y-95215533D02*
X122625595Y-95358390D01*
X122625595Y-95358390D02*
X122054167Y-95929819D01*
X122054167Y-95929819D02*
X122673214Y-95929819D01*
X133470833Y-65864580D02*
X133423214Y-65912200D01*
X133423214Y-65912200D02*
X133280357Y-65959819D01*
X133280357Y-65959819D02*
X133185119Y-65959819D01*
X133185119Y-65959819D02*
X133042262Y-65912200D01*
X133042262Y-65912200D02*
X132947024Y-65816961D01*
X132947024Y-65816961D02*
X132899405Y-65721723D01*
X132899405Y-65721723D02*
X132851786Y-65531247D01*
X132851786Y-65531247D02*
X132851786Y-65388390D01*
X132851786Y-65388390D02*
X132899405Y-65197914D01*
X132899405Y-65197914D02*
X132947024Y-65102676D01*
X132947024Y-65102676D02*
X133042262Y-65007438D01*
X133042262Y-65007438D02*
X133185119Y-64959819D01*
X133185119Y-64959819D02*
X133280357Y-64959819D01*
X133280357Y-64959819D02*
X133423214Y-65007438D01*
X133423214Y-65007438D02*
X133470833Y-65055057D01*
X133851786Y-65055057D02*
X133899405Y-65007438D01*
X133899405Y-65007438D02*
X133994643Y-64959819D01*
X133994643Y-64959819D02*
X134232738Y-64959819D01*
X134232738Y-64959819D02*
X134327976Y-65007438D01*
X134327976Y-65007438D02*
X134375595Y-65055057D01*
X134375595Y-65055057D02*
X134423214Y-65150295D01*
X134423214Y-65150295D02*
X134423214Y-65245533D01*
X134423214Y-65245533D02*
X134375595Y-65388390D01*
X134375595Y-65388390D02*
X133804167Y-65959819D01*
X133804167Y-65959819D02*
X134423214Y-65959819D01*
X141475595Y-69029819D02*
X141475595Y-69839342D01*
X141475595Y-69839342D02*
X141523214Y-69934580D01*
X141523214Y-69934580D02*
X141570833Y-69982200D01*
X141570833Y-69982200D02*
X141666071Y-70029819D01*
X141666071Y-70029819D02*
X141856547Y-70029819D01*
X141856547Y-70029819D02*
X141951785Y-69982200D01*
X141951785Y-69982200D02*
X141999404Y-69934580D01*
X141999404Y-69934580D02*
X142047023Y-69839342D01*
X142047023Y-69839342D02*
X142047023Y-69029819D01*
X142951785Y-69363152D02*
X142951785Y-70029819D01*
X142713690Y-68982200D02*
X142475595Y-69696485D01*
X142475595Y-69696485D02*
X143094642Y-69696485D01*
X112442319Y-103404166D02*
X111966128Y-103737499D01*
X112442319Y-103975594D02*
X111442319Y-103975594D01*
X111442319Y-103975594D02*
X111442319Y-103594642D01*
X111442319Y-103594642D02*
X111489938Y-103499404D01*
X111489938Y-103499404D02*
X111537557Y-103451785D01*
X111537557Y-103451785D02*
X111632795Y-103404166D01*
X111632795Y-103404166D02*
X111775652Y-103404166D01*
X111775652Y-103404166D02*
X111870890Y-103451785D01*
X111870890Y-103451785D02*
X111918509Y-103499404D01*
X111918509Y-103499404D02*
X111966128Y-103594642D01*
X111966128Y-103594642D02*
X111966128Y-103975594D01*
X111442319Y-103070832D02*
X111442319Y-102451785D01*
X111442319Y-102451785D02*
X111823271Y-102785118D01*
X111823271Y-102785118D02*
X111823271Y-102642261D01*
X111823271Y-102642261D02*
X111870890Y-102547023D01*
X111870890Y-102547023D02*
X111918509Y-102499404D01*
X111918509Y-102499404D02*
X112013747Y-102451785D01*
X112013747Y-102451785D02*
X112251842Y-102451785D01*
X112251842Y-102451785D02*
X112347080Y-102499404D01*
X112347080Y-102499404D02*
X112394700Y-102547023D01*
X112394700Y-102547023D02*
X112442319Y-102642261D01*
X112442319Y-102642261D02*
X112442319Y-102927975D01*
X112442319Y-102927975D02*
X112394700Y-103023213D01*
X112394700Y-103023213D02*
X112347080Y-103070832D01*
X109899405Y-101279819D02*
X109899405Y-100279819D01*
X110470833Y-101279819D02*
X110042262Y-100708390D01*
X110470833Y-100279819D02*
X109899405Y-100851247D01*
X110851786Y-100375057D02*
X110899405Y-100327438D01*
X110899405Y-100327438D02*
X110994643Y-100279819D01*
X110994643Y-100279819D02*
X111232738Y-100279819D01*
X111232738Y-100279819D02*
X111327976Y-100327438D01*
X111327976Y-100327438D02*
X111375595Y-100375057D01*
X111375595Y-100375057D02*
X111423214Y-100470295D01*
X111423214Y-100470295D02*
X111423214Y-100565533D01*
X111423214Y-100565533D02*
X111375595Y-100708390D01*
X111375595Y-100708390D02*
X110804167Y-101279819D01*
X110804167Y-101279819D02*
X111423214Y-101279819D01*
X84842319Y-83158333D02*
X85556604Y-83158333D01*
X85556604Y-83158333D02*
X85699461Y-83205952D01*
X85699461Y-83205952D02*
X85794700Y-83301190D01*
X85794700Y-83301190D02*
X85842319Y-83444047D01*
X85842319Y-83444047D02*
X85842319Y-83539285D01*
X84842319Y-82777380D02*
X84842319Y-82158333D01*
X84842319Y-82158333D02*
X85223271Y-82491666D01*
X85223271Y-82491666D02*
X85223271Y-82348809D01*
X85223271Y-82348809D02*
X85270890Y-82253571D01*
X85270890Y-82253571D02*
X85318509Y-82205952D01*
X85318509Y-82205952D02*
X85413747Y-82158333D01*
X85413747Y-82158333D02*
X85651842Y-82158333D01*
X85651842Y-82158333D02*
X85747080Y-82205952D01*
X85747080Y-82205952D02*
X85794700Y-82253571D01*
X85794700Y-82253571D02*
X85842319Y-82348809D01*
X85842319Y-82348809D02*
X85842319Y-82634523D01*
X85842319Y-82634523D02*
X85794700Y-82729761D01*
X85794700Y-82729761D02*
X85747080Y-82777380D01*
X155554166Y-81399819D02*
X155554166Y-82114104D01*
X155554166Y-82114104D02*
X155506547Y-82256961D01*
X155506547Y-82256961D02*
X155411309Y-82352200D01*
X155411309Y-82352200D02*
X155268452Y-82399819D01*
X155268452Y-82399819D02*
X155173214Y-82399819D01*
X156554166Y-82399819D02*
X155982738Y-82399819D01*
X156268452Y-82399819D02*
X156268452Y-81399819D01*
X156268452Y-81399819D02*
X156173214Y-81542676D01*
X156173214Y-81542676D02*
X156077976Y-81637914D01*
X156077976Y-81637914D02*
X155982738Y-81685533D01*
X119987319Y-108576904D02*
X120796842Y-108576904D01*
X120796842Y-108576904D02*
X120892080Y-108529285D01*
X120892080Y-108529285D02*
X120939700Y-108481666D01*
X120939700Y-108481666D02*
X120987319Y-108386428D01*
X120987319Y-108386428D02*
X120987319Y-108195952D01*
X120987319Y-108195952D02*
X120939700Y-108100714D01*
X120939700Y-108100714D02*
X120892080Y-108053095D01*
X120892080Y-108053095D02*
X120796842Y-108005476D01*
X120796842Y-108005476D02*
X119987319Y-108005476D01*
X120082557Y-107576904D02*
X120034938Y-107529285D01*
X120034938Y-107529285D02*
X119987319Y-107434047D01*
X119987319Y-107434047D02*
X119987319Y-107195952D01*
X119987319Y-107195952D02*
X120034938Y-107100714D01*
X120034938Y-107100714D02*
X120082557Y-107053095D01*
X120082557Y-107053095D02*
X120177795Y-107005476D01*
X120177795Y-107005476D02*
X120273033Y-107005476D01*
X120273033Y-107005476D02*
X120415890Y-107053095D01*
X120415890Y-107053095D02*
X120987319Y-107624523D01*
X120987319Y-107624523D02*
X120987319Y-107005476D01*
X93590714Y-60779819D02*
X93590714Y-59779819D01*
X93590714Y-59779819D02*
X93971666Y-59779819D01*
X93971666Y-59779819D02*
X94066904Y-59827438D01*
X94066904Y-59827438D02*
X94114523Y-59875057D01*
X94114523Y-59875057D02*
X94162142Y-59970295D01*
X94162142Y-59970295D02*
X94162142Y-60113152D01*
X94162142Y-60113152D02*
X94114523Y-60208390D01*
X94114523Y-60208390D02*
X94066904Y-60256009D01*
X94066904Y-60256009D02*
X93971666Y-60303628D01*
X93971666Y-60303628D02*
X93590714Y-60303628D01*
X94543095Y-60732200D02*
X94685952Y-60779819D01*
X94685952Y-60779819D02*
X94924047Y-60779819D01*
X94924047Y-60779819D02*
X95019285Y-60732200D01*
X95019285Y-60732200D02*
X95066904Y-60684580D01*
X95066904Y-60684580D02*
X95114523Y-60589342D01*
X95114523Y-60589342D02*
X95114523Y-60494104D01*
X95114523Y-60494104D02*
X95066904Y-60398866D01*
X95066904Y-60398866D02*
X95019285Y-60351247D01*
X95019285Y-60351247D02*
X94924047Y-60303628D01*
X94924047Y-60303628D02*
X94733571Y-60256009D01*
X94733571Y-60256009D02*
X94638333Y-60208390D01*
X94638333Y-60208390D02*
X94590714Y-60160771D01*
X94590714Y-60160771D02*
X94543095Y-60065533D01*
X94543095Y-60065533D02*
X94543095Y-59970295D01*
X94543095Y-59970295D02*
X94590714Y-59875057D01*
X94590714Y-59875057D02*
X94638333Y-59827438D01*
X94638333Y-59827438D02*
X94733571Y-59779819D01*
X94733571Y-59779819D02*
X94971666Y-59779819D01*
X94971666Y-59779819D02*
X95114523Y-59827438D01*
X96066904Y-60779819D02*
X95495476Y-60779819D01*
X95781190Y-60779819D02*
X95781190Y-59779819D01*
X95781190Y-59779819D02*
X95685952Y-59922676D01*
X95685952Y-59922676D02*
X95590714Y-60017914D01*
X95590714Y-60017914D02*
X95495476Y-60065533D01*
D75*
%TO.C,SW1*%
X153387500Y-72325000D02*
X153387500Y-73825000D01*
X154637500Y-76325000D02*
X159137500Y-76325000D01*
X159137500Y-69825000D02*
X154637500Y-69825000D01*
X160387500Y-73825000D02*
X160387500Y-72325000D01*
%TO.C,Q1*%
X120487500Y-105125000D02*
X120487500Y-101525000D01*
X116037500Y-103325000D02*
G75*
G02*
X120475978Y-101486522I2600000J0D01*
G01*
X120475978Y-105163478D02*
G75*
G02*
X116037499Y-103325000I-1838478J1838478D01*
G01*
%TO.C,D4*%
X132115000Y-75865000D02*
X132115000Y-77785000D01*
X132115000Y-77785000D02*
X134800000Y-77785000D01*
X134800000Y-75865000D02*
X132115000Y-75865000D01*
%TO.C,R7*%
X145114564Y-72090000D02*
X144660436Y-72090000D01*
X145114564Y-73560000D02*
X144660436Y-73560000D01*
%TO.C,D3*%
X115867500Y-92630000D02*
X115867500Y-96870000D01*
X115867500Y-96030000D02*
X118107500Y-96030000D01*
X115867500Y-96150000D02*
X118107500Y-96150000D01*
X115867500Y-96270000D02*
X118107500Y-96270000D01*
X115867500Y-96870000D02*
X118107500Y-96870000D01*
X116987500Y-91980000D02*
X116987500Y-92630000D01*
X116987500Y-97520000D02*
X116987500Y-96870000D01*
X118107500Y-92630000D02*
X115867500Y-92630000D01*
X118107500Y-96870000D02*
X118107500Y-92630000D01*
%TO.C,R6*%
X139027064Y-76090000D02*
X138572936Y-76090000D01*
X139027064Y-77560000D02*
X138572936Y-77560000D01*
%TO.C,K1*%
X83887500Y-128615000D02*
X83887500Y-102735000D01*
X90247500Y-118715000D02*
X89028300Y-114143000D01*
X90247500Y-118715000D02*
X90247500Y-125075000D01*
X90247500Y-125075000D02*
X94311500Y-125075000D01*
X91517500Y-114397000D02*
X92533500Y-115159000D01*
X92533500Y-113635000D02*
X91517500Y-114397000D01*
X92533500Y-115159000D02*
X92533500Y-113635000D01*
X94097500Y-109571000D02*
X94097500Y-114397000D01*
X94097500Y-114397000D02*
X92533500Y-114397000D01*
X95837500Y-101865000D02*
X84757500Y-101865000D01*
X96707500Y-106515000D02*
X96707500Y-102735000D01*
X100837500Y-129485000D02*
X84757500Y-129485000D01*
X101707500Y-128615000D02*
X101707500Y-127635000D01*
X106503498Y-111069603D02*
X106503498Y-114397003D01*
X106503500Y-111069600D02*
X107773500Y-111069600D01*
X106503500Y-117953000D02*
X106503500Y-121280400D01*
X107773500Y-121280400D02*
X106503500Y-121280400D01*
X115037500Y-107165000D02*
X97357500Y-107165000D01*
X115037500Y-126985000D02*
X102357500Y-126985000D01*
X115907500Y-126115000D02*
X115907500Y-108035000D01*
X83887500Y-102735000D02*
G75*
G02*
X84757500Y-101865000I870000J0D01*
G01*
X84757500Y-129485000D02*
G75*
G02*
X83887500Y-128615000I0J870000D01*
G01*
X95837500Y-101865000D02*
G75*
G02*
X96707500Y-102735000I0J-870000D01*
G01*
X97357500Y-107165000D02*
G75*
G02*
X96707500Y-106515000I0J650000D01*
G01*
X101707500Y-127635000D02*
G75*
G02*
X102357500Y-126985000I650000J0D01*
G01*
X101707500Y-128615000D02*
G75*
G02*
X100837500Y-129485000I-870000J0D01*
G01*
X105995234Y-115413356D02*
G75*
G02*
X105995501Y-116175000I508266J-380644D01*
G01*
X105995235Y-116175355D02*
G75*
G02*
X105995501Y-116937000I508265J-380645D01*
G01*
X105995700Y-116936733D02*
G75*
G02*
X106503500Y-117953000I507800J-381267D01*
G01*
X106503498Y-114397003D02*
G75*
G02*
X105995703Y-115413266I2J-634997D01*
G01*
X115037500Y-107165000D02*
G75*
G02*
X115907500Y-108035000I0J-870000D01*
G01*
X115907500Y-126115000D02*
G75*
G02*
X115037500Y-126985000I-870000J0D01*
G01*
X90374500Y-118715000D02*
G75*
G02*
X90120500Y-118715000I-127000J0D01*
G01*
X90120500Y-118715000D02*
G75*
G02*
X90374500Y-118715000I127000J0D01*
G01*
%TO.C,R1*%
X122910436Y-114340000D02*
X123364564Y-114340000D01*
X122910436Y-115810000D02*
X123364564Y-115810000D01*
%TO.C,U1*%
X131362500Y-104260000D02*
X132362500Y-104260000D01*
X131362500Y-105040000D02*
X131362500Y-104260000D01*
X131362500Y-130000000D02*
X131362500Y-123585000D01*
X149602500Y-104260000D02*
X148602500Y-104260000D01*
X149602500Y-105040000D02*
X149602500Y-104260000D01*
X149602500Y-130000000D02*
X131362500Y-130000000D01*
X149602500Y-130000000D02*
X149602500Y-123840000D01*
X149607500Y-123615000D02*
X149607500Y-123115000D01*
X150107500Y-123115000D01*
X149607500Y-123615000D01*
G36*
X149607500Y-123615000D02*
G01*
X149607500Y-123115000D01*
X150107500Y-123115000D01*
X149607500Y-123615000D01*
G37*
%TO.C,C1*%
X133898752Y-66590000D02*
X133376248Y-66590000D01*
X133898752Y-68060000D02*
X133376248Y-68060000D01*
%TO.C,D2*%
X118267500Y-113705000D02*
X118267500Y-117945000D01*
X118267500Y-117105000D02*
X120507500Y-117105000D01*
X118267500Y-117225000D02*
X120507500Y-117225000D01*
X118267500Y-117345000D02*
X120507500Y-117345000D01*
X118267500Y-117945000D02*
X120507500Y-117945000D01*
X119387500Y-113055000D02*
X119387500Y-113705000D01*
X119387500Y-118595000D02*
X119387500Y-117945000D01*
X120507500Y-113705000D02*
X118267500Y-113705000D01*
X120507500Y-117945000D02*
X120507500Y-113705000D01*
%TO.C,D1*%
X132115000Y-72115000D02*
X132115000Y-74035000D01*
X132115000Y-74035000D02*
X134800000Y-74035000D01*
X134800000Y-72115000D02*
X132115000Y-72115000D01*
%TO.C,R8*%
X144660436Y-76090000D02*
X145114564Y-76090000D01*
X144660436Y-77560000D02*
X145114564Y-77560000D01*
%TO.C,Q2*%
X113612500Y-87110000D02*
X117212500Y-87110000D01*
X113574022Y-87098478D02*
G75*
G02*
X115412500Y-82659999I1838478J1838478D01*
G01*
X115412500Y-82660000D02*
G75*
G02*
X117250978Y-87098478I0J-2600000D01*
G01*
%TO.C,U3*%
X126782500Y-93915000D02*
X126782500Y-95565000D01*
X126782500Y-97565000D02*
X126782500Y-99215000D01*
X126782500Y-99215000D02*
X131982500Y-99215000D01*
X131982500Y-93915000D02*
X126782500Y-93915000D01*
X131982500Y-99215000D02*
X131982500Y-93915000D01*
X126782500Y-95565000D02*
G75*
G02*
X126782500Y-97565000I0J-1000000D01*
G01*
%TO.C,R5*%
X138777064Y-72340000D02*
X138322936Y-72340000D01*
X138777064Y-73810000D02*
X138322936Y-73810000D01*
%TO.C,J2*%
X84077500Y-79365000D02*
X84077500Y-59045000D01*
X84077500Y-79365000D02*
X91697500Y-79365000D01*
X90427500Y-59045000D02*
X90427500Y-79365000D01*
X91697500Y-59045000D02*
X84077500Y-59045000D01*
X91697500Y-79365000D02*
X91697500Y-59045000D01*
%TO.C,R4*%
X131072936Y-88090000D02*
X131527064Y-88090000D01*
X131072936Y-89560000D02*
X131527064Y-89560000D01*
%TO.C,SW2*%
X153387500Y-104575000D02*
X153387500Y-106075000D01*
X154637500Y-108575000D02*
X159137500Y-108575000D01*
X159137500Y-102075000D02*
X154637500Y-102075000D01*
X160387500Y-106075000D02*
X160387500Y-104575000D01*
%TO.C,R2*%
X122114564Y-93090000D02*
X121660436Y-93090000D01*
X122114564Y-94560000D02*
X121660436Y-94560000D01*
%TO.C,C2*%
X133898752Y-63090000D02*
X133376248Y-63090000D01*
X133898752Y-64560000D02*
X133376248Y-64560000D01*
%TO.C,U4*%
X140287500Y-61415000D02*
X144047500Y-61415000D01*
X140287500Y-68235000D02*
X144047500Y-68235000D01*
X144047500Y-61415000D02*
X144047500Y-62675000D01*
X144047500Y-68235000D02*
X144047500Y-66975000D01*
X139007500Y-61515000D02*
X138767500Y-61185000D01*
X139247500Y-61185000D01*
X139007500Y-61515000D01*
G36*
X139007500Y-61515000D02*
G01*
X138767500Y-61185000D01*
X139247500Y-61185000D01*
X139007500Y-61515000D01*
G37*
%TO.C,R3*%
X112902500Y-103464564D02*
X112902500Y-103010436D01*
X114372500Y-103464564D02*
X114372500Y-103010436D01*
D76*
%TO.C,K2*%
X92687500Y-84075000D02*
X92687500Y-99575000D01*
X92687500Y-99575000D02*
X111687500Y-99575000D01*
X111687500Y-84075000D02*
X92687500Y-84075000D01*
X111687500Y-84075000D02*
X111687500Y-90325000D01*
X111687500Y-99575000D02*
X111687500Y-93325000D01*
D75*
%TO.C,J3*%
X84077500Y-99115000D02*
X84077500Y-83875000D01*
X90427500Y-99115000D02*
X90427500Y-83875000D01*
X91697500Y-83875000D02*
X84077500Y-83875000D01*
X91697500Y-99115000D02*
X84077500Y-99115000D01*
X91697500Y-99115000D02*
X91697500Y-83875000D01*
%TO.C,J1*%
X154557500Y-82945000D02*
X155887500Y-82945000D01*
X154557500Y-84275000D02*
X154557500Y-82945000D01*
X154557500Y-85545000D02*
X154557500Y-93225000D01*
X154557500Y-85545000D02*
X157217500Y-85545000D01*
X154557500Y-93225000D02*
X157217500Y-93225000D01*
X157217500Y-85545000D02*
X157217500Y-93225000D01*
%TO.C,U2*%
X121532500Y-105165000D02*
X121532500Y-106815000D01*
X121532500Y-108815000D02*
X121532500Y-110465000D01*
X121532500Y-110465000D02*
X126732500Y-110465000D01*
X126732500Y-105165000D02*
X121532500Y-105165000D01*
X126732500Y-110465000D02*
X126732500Y-105165000D01*
X121532500Y-106815000D02*
G75*
G02*
X121532500Y-108815000I0J-1000000D01*
G01*
%TO.C,PS1*%
X92647500Y-58817500D02*
X95647500Y-58817500D01*
X92647500Y-61817500D02*
X92647500Y-58817500D01*
X92887500Y-59057500D02*
X92887500Y-81677500D01*
X92887500Y-59057500D02*
X129807500Y-59057500D01*
X92887500Y-81677500D02*
X129807500Y-81677500D01*
X129807500Y-59057500D02*
X129807500Y-81677500D01*
%TD*%
D77*
X131312500Y-123775000D02*
X131375000Y-129850000D01*
X107737500Y-93950000D02*
X107737500Y-95925000D01*
X107787500Y-89750000D02*
X112737500Y-89750000D01*
X162487500Y-58250000D02*
X162500000Y-130000000D01*
X107787500Y-87625000D02*
X107787500Y-89750000D01*
X114787500Y-95925000D02*
X114787500Y-87675000D01*
X83762500Y-58250000D02*
X162487500Y-58250000D01*
X149562500Y-123775000D02*
X131312500Y-123775000D01*
X112737500Y-93950000D02*
X107737500Y-93950000D01*
X114787500Y-87675000D02*
X107787500Y-87625000D01*
X162500000Y-130000000D02*
X149575000Y-130000000D01*
X83412500Y-58250000D02*
X83762500Y-58250000D01*
X83500000Y-129850000D02*
X83412500Y-58250000D01*
X112737500Y-89750000D02*
X112737500Y-93950000D01*
X149575000Y-130000000D02*
X149562500Y-123775000D01*
X107737500Y-95925000D02*
X114787500Y-95925000D01*
X131375000Y-129850000D02*
X83500000Y-129850000D01*
M02*
